<svg xmlns="http://www.w3.org/2000/svg" xmlns:rdkit="http://www.rdkit.org/xml" xmlns:xlink="http://www.w3.org/1999/xlink" version="1.1" baseProfile="full" xml:space="preserve" width="1200px" height="1000px" viewBox="0 0 1200 1000">
<!-- END OF HEADER -->
<rect style="opacity:1.0;fill:#FFFFFF;stroke:none" width="1200.0" height="1000.0" x="0.0" y="0.0"> </rect>
<path class="bond-0 atom-0 atom-1" d="M 147.2,103.4 L 162.5,107.9" style="fill:none;fill-rule:evenodd;stroke:#0000FF;stroke-width:2.0px;stroke-linecap:butt;stroke-linejoin:miter;stroke-opacity:1"/>
<path class="bond-0 atom-0 atom-1" d="M 162.5,107.9 L 177.9,112.4" style="fill:none;fill-rule:evenodd;stroke:#000000;stroke-width:2.0px;stroke-linecap:butt;stroke-linejoin:miter;stroke-opacity:1"/>
<path class="bond-1 atom-1 atom-2" d="M 177.9,112.4 L 205.0,86.7" style="fill:none;fill-rule:evenodd;stroke:#000000;stroke-width:2.0px;stroke-linecap:butt;stroke-linejoin:miter;stroke-opacity:1"/>
<path class="bond-2 atom-2 atom-3" d="M 205.0,86.7 L 240.9,97.3" style="fill:none;fill-rule:evenodd;stroke:#000000;stroke-width:2.0px;stroke-linecap:butt;stroke-linejoin:miter;stroke-opacity:1"/>
<path class="bond-3 atom-3 atom-4" d="M 240.9,97.3 L 276.9,107.9" style="fill:none;fill-rule:evenodd;stroke:#000000;stroke-width:2.0px;stroke-linecap:butt;stroke-linejoin:miter;stroke-opacity:1"/>
<path class="bond-3 atom-3 atom-4" d="M 242.5,91.9 L 278.4,102.6" style="fill:none;fill-rule:evenodd;stroke:#000000;stroke-width:2.0px;stroke-linecap:butt;stroke-linejoin:miter;stroke-opacity:1"/>
<path class="bond-3 atom-3 atom-4" d="M 239.3,102.7 L 275.3,113.3" style="fill:none;fill-rule:evenodd;stroke:#000000;stroke-width:2.0px;stroke-linecap:butt;stroke-linejoin:miter;stroke-opacity:1"/>
<path d="M 177.1,112.2 L 177.9,112.4 L 179.2,111.2" style="fill:none;stroke:#000000;stroke-width:2.0px;stroke-linecap:butt;stroke-linejoin:miter;stroke-opacity:1;"/>
<path d="M 203.7,88.0 L 205.0,86.7 L 206.8,87.2" style="fill:none;stroke:#000000;stroke-width:2.0px;stroke-linecap:butt;stroke-linejoin:miter;stroke-opacity:1;"/>
<path d="M 239.1,96.8 L 240.9,97.3 L 242.7,97.8" style="fill:none;stroke:#000000;stroke-width:2.0px;stroke-linecap:butt;stroke-linejoin:miter;stroke-opacity:1;"/>
<path class="atom-0" d="M 121.6 96.5 L 123.0 96.5 L 123.0 101.0 L 128.4 101.0 L 128.4 96.5 L 129.9 96.5 L 129.9 107.1 L 128.4 107.1 L 128.4 102.2 L 123.0 102.2 L 123.0 107.1 L 121.6 107.1 L 121.6 96.5 " fill="#0000FF"/>
<path class="atom-0" d="M 135.2 108.7 Q 135.9 108.9, 136.3 109.4 Q 136.6 109.8, 136.6 110.5 Q 136.6 111.1, 136.3 111.6 Q 136.0 112.0, 135.5 112.3 Q 134.9 112.5, 134.2 112.5 Q 133.4 112.5, 132.9 112.3 Q 132.3 112.0, 131.9 111.5 L 132.4 110.9 Q 132.9 111.4, 133.2 111.5 Q 133.6 111.7, 134.2 111.7 Q 134.8 111.7, 135.2 111.4 Q 135.6 111.0, 135.6 110.5 Q 135.6 109.8, 135.2 109.5 Q 134.8 109.1, 133.9 109.1 L 133.4 109.1 L 133.4 108.4 L 133.9 108.4 Q 134.6 108.4, 135.0 108.1 Q 135.5 107.7, 135.5 107.1 Q 135.5 106.7, 135.1 106.4 Q 134.8 106.1, 134.2 106.1 Q 133.6 106.1, 133.3 106.3 Q 132.9 106.5, 132.6 107.1 L 131.9 106.7 Q 132.2 106.1, 132.8 105.7 Q 133.4 105.3, 134.2 105.3 Q 135.2 105.3, 135.8 105.8 Q 136.4 106.3, 136.4 107.1 Q 136.4 107.7, 136.1 108.1 Q 135.8 108.5, 135.2 108.7 " fill="#0000FF"/>
<path class="atom-0" d="M 139.6 96.5 L 143.1 102.1 Q 143.4 102.7, 144.0 103.7 Q 144.5 104.7, 144.6 104.7 L 144.6 96.5 L 146.0 96.5 L 146.0 107.1 L 144.5 107.1 L 140.8 101.0 Q 140.4 100.3, 139.9 99.4 Q 139.4 98.6, 139.3 98.3 L 139.3 107.1 L 137.9 107.1 L 137.9 96.5 L 139.6 96.5 " fill="#0000FF"/>
<path class="atom-0" d="M 148.0 98.4 L 149.9 98.4 L 149.9 96.5 L 150.7 96.5 L 150.7 98.4 L 152.6 98.4 L 152.6 99.1 L 150.7 99.1 L 150.7 101.1 L 149.9 101.1 L 149.9 99.1 L 148.0 99.1 L 148.0 98.4 " fill="#0000FF"/>
<path class="bond-0 atom-0 atom-1" d="M 536.4,96.4 L 548.6,93.5" style="fill:none;fill-rule:evenodd;stroke:#0000FF;stroke-width:2.0px;stroke-linecap:butt;stroke-linejoin:miter;stroke-opacity:1"/>
<path class="bond-0 atom-0 atom-1" d="M 548.6,93.5 L 560.9,90.5" style="fill:none;fill-rule:evenodd;stroke:#000000;stroke-width:2.0px;stroke-linecap:butt;stroke-linejoin:miter;stroke-opacity:1"/>
<path class="bond-1 atom-1 atom-2" d="M 560.9,90.5 L 586.7,117.6" style="fill:none;fill-rule:evenodd;stroke:#000000;stroke-width:2.0px;stroke-linecap:butt;stroke-linejoin:miter;stroke-opacity:1"/>
<path class="bond-2 atom-2 atom-3" d="M 586.7,117.6 L 623.1,108.8" style="fill:none;fill-rule:evenodd;stroke:#000000;stroke-width:2.0px;stroke-linecap:butt;stroke-linejoin:miter;stroke-opacity:1"/>
<path class="bond-3 atom-3 atom-4" d="M 623.1,108.8 L 633.7,72.9" style="fill:none;fill-rule:evenodd;stroke:#000000;stroke-width:2.0px;stroke-linecap:butt;stroke-linejoin:miter;stroke-opacity:1"/>
<path class="bond-4 atom-4 atom-5" d="M 633.7,72.9 L 670.1,64.1" style="fill:none;fill-rule:evenodd;stroke:#000000;stroke-width:2.0px;stroke-linecap:butt;stroke-linejoin:miter;stroke-opacity:1"/>
<path class="bond-5 atom-5 atom-6" d="M 670.1,64.1 L 695.9,91.2" style="fill:none;fill-rule:evenodd;stroke:#000000;stroke-width:2.0px;stroke-linecap:butt;stroke-linejoin:miter;stroke-opacity:1"/>
<path class="bond-6 atom-6 atom-7" d="M 695.9,91.2 L 685.4,127.1" style="fill:none;fill-rule:evenodd;stroke:#000000;stroke-width:2.0px;stroke-linecap:butt;stroke-linejoin:miter;stroke-opacity:1"/>
<path class="bond-7 atom-7 atom-8" d="M 685.4,127.1 L 648.9,135.9" style="fill:none;fill-rule:evenodd;stroke:#000000;stroke-width:2.0px;stroke-linecap:butt;stroke-linejoin:miter;stroke-opacity:1"/>
<path class="bond-8 atom-8 atom-3" d="M 648.9,135.9 L 623.1,108.8" style="fill:none;fill-rule:evenodd;stroke:#000000;stroke-width:2.0px;stroke-linecap:butt;stroke-linejoin:miter;stroke-opacity:1"/>
<path d="M 560.3,90.7 L 560.9,90.5 L 562.2,91.9" style="fill:none;stroke:#000000;stroke-width:2.0px;stroke-linecap:butt;stroke-linejoin:miter;stroke-opacity:1;"/>
<path d="M 585.4,116.3 L 586.7,117.6 L 588.5,117.2" style="fill:none;stroke:#000000;stroke-width:2.0px;stroke-linecap:butt;stroke-linejoin:miter;stroke-opacity:1;"/>
<path d="M 633.2,74.7 L 633.7,72.9 L 635.5,72.4" style="fill:none;stroke:#000000;stroke-width:2.0px;stroke-linecap:butt;stroke-linejoin:miter;stroke-opacity:1;"/>
<path d="M 668.3,64.5 L 670.1,64.1 L 671.4,65.4" style="fill:none;stroke:#000000;stroke-width:2.0px;stroke-linecap:butt;stroke-linejoin:miter;stroke-opacity:1;"/>
<path d="M 694.6,89.8 L 695.9,91.2 L 695.4,93.0" style="fill:none;stroke:#000000;stroke-width:2.0px;stroke-linecap:butt;stroke-linejoin:miter;stroke-opacity:1;"/>
<path d="M 685.9,125.3 L 685.4,127.1 L 683.5,127.6" style="fill:none;stroke:#000000;stroke-width:2.0px;stroke-linecap:butt;stroke-linejoin:miter;stroke-opacity:1;"/>
<path d="M 650.8,135.5 L 648.9,135.9 L 647.7,134.6" style="fill:none;stroke:#000000;stroke-width:2.0px;stroke-linecap:butt;stroke-linejoin:miter;stroke-opacity:1;"/>
<path class="atom-0" d="M 504.1 94.0 L 505.5 94.0 L 505.5 98.5 L 510.9 98.5 L 510.9 94.0 L 512.4 94.0 L 512.4 104.6 L 510.9 104.6 L 510.9 99.7 L 505.5 99.7 L 505.5 104.6 L 504.1 104.6 L 504.1 94.0 " fill="#0000FF"/>
<path class="atom-0" d="M 517.8 106.2 Q 518.5 106.4, 518.8 106.9 Q 519.1 107.3, 519.1 108.0 Q 519.1 108.6, 518.8 109.1 Q 518.5 109.5, 518.0 109.8 Q 517.4 110.0, 516.7 110.0 Q 516.0 110.0, 515.4 109.8 Q 514.9 109.5, 514.4 109.0 L 515.0 108.4 Q 515.4 108.9, 515.8 109.0 Q 516.1 109.2, 516.7 109.2 Q 517.4 109.2, 517.7 108.9 Q 518.1 108.5, 518.1 108.0 Q 518.1 107.3, 517.7 107.0 Q 517.3 106.6, 516.5 106.6 L 516.0 106.6 L 516.0 105.9 L 516.4 105.9 Q 517.2 105.9, 517.6 105.6 Q 518.0 105.3, 518.0 104.6 Q 518.0 104.2, 517.6 103.9 Q 517.3 103.6, 516.7 103.6 Q 516.2 103.6, 515.8 103.8 Q 515.4 104.0, 515.2 104.6 L 514.5 104.2 Q 514.7 103.6, 515.3 103.2 Q 515.9 102.8, 516.7 102.8 Q 517.8 102.8, 518.4 103.3 Q 519.0 103.8, 519.0 104.6 Q 519.0 105.2, 518.7 105.6 Q 518.4 106.0, 517.8 106.2 " fill="#0000FF"/>
<path class="atom-0" d="M 522.1 94.0 L 525.6 99.6 Q 526.0 100.2, 526.5 101.2 Q 527.1 102.2, 527.1 102.2 L 527.1 94.0 L 528.5 94.0 L 528.5 104.6 L 527.1 104.6 L 523.3 98.5 Q 522.9 97.8, 522.4 96.9 Q 522.0 96.1, 521.8 95.9 L 521.8 104.6 L 520.5 104.6 L 520.5 94.0 L 522.1 94.0 " fill="#0000FF"/>
<path class="atom-0" d="M 530.5 95.9 L 532.4 95.9 L 532.4 94.0 L 533.2 94.0 L 533.2 95.9 L 535.1 95.9 L 535.1 96.6 L 533.2 96.6 L 533.2 98.6 L 532.4 98.6 L 532.4 96.6 L 530.5 96.6 L 530.5 95.9 " fill="#0000FF"/>
<path class="bond-0 atom-0 atom-1" d="M 1091.1,85.4 L 1064.3,111.6" style="fill:none;fill-rule:evenodd;stroke:#000000;stroke-width:2.0px;stroke-linecap:butt;stroke-linejoin:miter;stroke-opacity:1"/>
<path class="bond-1 atom-1 atom-2" d="M 1064.3,111.6 L 1028.2,101.6" style="fill:none;fill-rule:evenodd;stroke:#000000;stroke-width:2.0px;stroke-linecap:butt;stroke-linejoin:miter;stroke-opacity:1"/>
<path class="bond-2 atom-2 atom-3" d="M 1028.2,101.6 L 992.2,91.6" style="fill:none;fill-rule:evenodd;stroke:#000000;stroke-width:2.0px;stroke-linecap:butt;stroke-linejoin:miter;stroke-opacity:1"/>
<path class="bond-2 atom-2 atom-3" d="M 1026.7,107.0 L 990.7,97.0" style="fill:none;fill-rule:evenodd;stroke:#000000;stroke-width:2.0px;stroke-linecap:butt;stroke-linejoin:miter;stroke-opacity:1"/>
<path class="bond-2 atom-2 atom-3" d="M 1029.8,96.2 L 993.7,86.1" style="fill:none;fill-rule:evenodd;stroke:#000000;stroke-width:2.0px;stroke-linecap:butt;stroke-linejoin:miter;stroke-opacity:1"/>
<path class="bond-3 atom-3 atom-4" d="M 992.2,91.6 L 956.1,81.5" style="fill:none;fill-rule:evenodd;stroke:#000000;stroke-width:2.0px;stroke-linecap:butt;stroke-linejoin:miter;stroke-opacity:1"/>
<path class="bond-4 atom-4 atom-5" d="M 956.1,81.5 L 946.1,91.4" style="fill:none;fill-rule:evenodd;stroke:#000000;stroke-width:2.0px;stroke-linecap:butt;stroke-linejoin:miter;stroke-opacity:1"/>
<path class="bond-4 atom-4 atom-5" d="M 946.1,91.4 L 936.1,101.2" style="fill:none;fill-rule:evenodd;stroke:#0000FF;stroke-width:2.0px;stroke-linecap:butt;stroke-linejoin:miter;stroke-opacity:1"/>
<path d="M 1065.7,110.3 L 1064.3,111.6 L 1062.5,111.1" style="fill:none;stroke:#000000;stroke-width:2.0px;stroke-linecap:butt;stroke-linejoin:miter;stroke-opacity:1;"/>
<path d="M 1030.1,102.1 L 1028.2,101.6 L 1026.4,101.1" style="fill:none;stroke:#000000;stroke-width:2.0px;stroke-linecap:butt;stroke-linejoin:miter;stroke-opacity:1;"/>
<path d="M 994.0,92.1 L 992.2,91.6 L 990.4,91.1" style="fill:none;stroke:#000000;stroke-width:2.0px;stroke-linecap:butt;stroke-linejoin:miter;stroke-opacity:1;"/>
<path d="M 957.9,82.0 L 956.1,81.5 L 955.6,82.0" style="fill:none;stroke:#000000;stroke-width:2.0px;stroke-linecap:butt;stroke-linejoin:miter;stroke-opacity:1;"/>
<path class="atom-5" d="M 908.9 102.5 L 910.4 102.5 L 910.4 107.0 L 915.8 107.0 L 915.8 102.5 L 917.2 102.5 L 917.2 113.1 L 915.8 113.1 L 915.8 108.2 L 910.4 108.2 L 910.4 113.1 L 908.9 113.1 L 908.9 102.5 " fill="#0000FF"/>
<path class="atom-5" d="M 922.6 114.7 Q 923.3 114.9, 923.6 115.3 Q 924.0 115.8, 924.0 116.5 Q 924.0 117.0, 923.7 117.5 Q 923.4 118.0, 922.8 118.2 Q 922.3 118.5, 921.6 118.5 Q 920.8 118.5, 920.3 118.2 Q 919.7 117.9, 919.3 117.4 L 919.8 116.8 Q 920.3 117.3, 920.6 117.5 Q 921.0 117.7, 921.6 117.7 Q 922.2 117.7, 922.6 117.3 Q 923.0 117.0, 923.0 116.4 Q 923.0 115.7, 922.6 115.4 Q 922.2 115.1, 921.3 115.1 L 920.8 115.1 L 920.8 114.4 L 921.3 114.4 Q 922.0 114.4, 922.4 114.0 Q 922.8 113.7, 922.8 113.1 Q 922.8 112.6, 922.5 112.4 Q 922.2 112.1, 921.6 112.1 Q 921.0 112.1, 920.7 112.3 Q 920.3 112.5, 920.0 113.0 L 919.3 112.7 Q 919.6 112.1, 920.2 111.7 Q 920.8 111.3, 921.6 111.3 Q 922.6 111.3, 923.2 111.8 Q 923.8 112.3, 923.8 113.1 Q 923.8 113.6, 923.5 114.1 Q 923.2 114.5, 922.6 114.7 " fill="#0000FF"/>
<path class="atom-5" d="M 927.0 102.5 L 930.5 108.1 Q 930.8 108.6, 931.4 109.6 Q 931.9 110.6, 932.0 110.7 L 932.0 102.5 L 933.4 102.5 L 933.4 113.1 L 931.9 113.1 L 928.2 106.9 Q 927.8 106.2, 927.3 105.4 Q 926.8 104.6, 926.7 104.3 L 926.7 113.1 L 925.3 113.1 L 925.3 102.5 L 927.0 102.5 " fill="#0000FF"/>
<path class="atom-5" d="M 935.4 104.4 L 937.2 104.4 L 937.2 102.4 L 938.1 102.4 L 938.1 104.4 L 940.0 104.4 L 940.0 105.1 L 938.1 105.1 L 938.1 107.1 L 937.2 107.1 L 937.2 105.1 L 935.4 105.1 L 935.4 104.4 " fill="#0000FF"/>
<path class="bond-0 atom-0 atom-1" d="M 291.6,356.1 L 291.2,318.7" style="fill:none;fill-rule:evenodd;stroke:#000000;stroke-width:2.0px;stroke-linecap:butt;stroke-linejoin:miter;stroke-opacity:1"/>
<path class="bond-0 atom-0 atom-1" d="M 286.0,356.2 L 285.6,322.0" style="fill:none;fill-rule:evenodd;stroke:#000000;stroke-width:2.0px;stroke-linecap:butt;stroke-linejoin:miter;stroke-opacity:1"/>
<path class="bond-1 atom-1 atom-2" d="M 291.2,318.7 L 258.5,300.4" style="fill:none;fill-rule:evenodd;stroke:#000000;stroke-width:2.0px;stroke-linecap:butt;stroke-linejoin:miter;stroke-opacity:1"/>
<path class="bond-2 atom-2 atom-3" d="M 258.5,300.4 L 226.3,319.5" style="fill:none;fill-rule:evenodd;stroke:#000000;stroke-width:2.0px;stroke-linecap:butt;stroke-linejoin:miter;stroke-opacity:1"/>
<path class="bond-2 atom-2 atom-3" d="M 252.8,297.2 L 226.2,313.0" style="fill:none;fill-rule:evenodd;stroke:#000000;stroke-width:2.0px;stroke-linecap:butt;stroke-linejoin:miter;stroke-opacity:1"/>
<path class="bond-3 atom-3 atom-4" d="M 226.3,319.5 L 193.6,301.2" style="fill:none;fill-rule:evenodd;stroke:#000000;stroke-width:2.0px;stroke-linecap:butt;stroke-linejoin:miter;stroke-opacity:1"/>
<path class="bond-4 atom-4 atom-5" d="M 193.6,301.2 L 161.4,320.3" style="fill:none;fill-rule:evenodd;stroke:#000000;stroke-width:2.0px;stroke-linecap:butt;stroke-linejoin:miter;stroke-opacity:1"/>
<path class="bond-5 atom-5 atom-6" d="M 161.4,320.3 L 147.7,312.6" style="fill:none;fill-rule:evenodd;stroke:#000000;stroke-width:2.0px;stroke-linecap:butt;stroke-linejoin:miter;stroke-opacity:1"/>
<path class="bond-5 atom-5 atom-6" d="M 147.7,312.6 L 134.0,304.9" style="fill:none;fill-rule:evenodd;stroke:#0000FF;stroke-width:2.0px;stroke-linecap:butt;stroke-linejoin:miter;stroke-opacity:1"/>
<path class="bond-6 atom-4 atom-7" d="M 193.6,301.2 L 193.2,263.7" style="fill:none;fill-rule:evenodd;stroke:#000000;stroke-width:2.0px;stroke-linecap:butt;stroke-linejoin:miter;stroke-opacity:1"/>
<path class="bond-6 atom-4 atom-7" d="M 199.2,297.9 L 198.8,266.9" style="fill:none;fill-rule:evenodd;stroke:#000000;stroke-width:2.0px;stroke-linecap:butt;stroke-linejoin:miter;stroke-opacity:1"/>
<path class="bond-7 atom-7 atom-8" d="M 193.2,263.7 L 225.4,244.6" style="fill:none;fill-rule:evenodd;stroke:#000000;stroke-width:2.0px;stroke-linecap:butt;stroke-linejoin:miter;stroke-opacity:1"/>
<path class="bond-8 atom-8 atom-9" d="M 225.4,244.6 L 258.0,262.9" style="fill:none;fill-rule:evenodd;stroke:#000000;stroke-width:2.0px;stroke-linecap:butt;stroke-linejoin:miter;stroke-opacity:1"/>
<path class="bond-8 atom-8 atom-9" d="M 225.4,251.1 L 252.5,266.2" style="fill:none;fill-rule:evenodd;stroke:#000000;stroke-width:2.0px;stroke-linecap:butt;stroke-linejoin:miter;stroke-opacity:1"/>
<path class="bond-9 atom-9 atom-10" d="M 258.0,262.9 L 290.2,243.8" style="fill:none;fill-rule:evenodd;stroke:#000000;stroke-width:2.0px;stroke-linecap:butt;stroke-linejoin:miter;stroke-opacity:1"/>
<path class="bond-10 atom-9 atom-2" d="M 258.0,262.9 L 258.5,300.4" style="fill:none;fill-rule:evenodd;stroke:#000000;stroke-width:2.0px;stroke-linecap:butt;stroke-linejoin:miter;stroke-opacity:1"/>
<path d="M 291.2,320.6 L 291.2,318.7 L 289.5,317.8" style="fill:none;stroke:#000000;stroke-width:2.0px;stroke-linecap:butt;stroke-linejoin:miter;stroke-opacity:1;"/>
<path d="M 227.9,318.5 L 226.3,319.5 L 224.7,318.6" style="fill:none;stroke:#000000;stroke-width:2.0px;stroke-linecap:butt;stroke-linejoin:miter;stroke-opacity:1;"/>
<path d="M 163.0,319.4 L 161.4,320.3 L 160.8,319.9" style="fill:none;stroke:#000000;stroke-width:2.0px;stroke-linecap:butt;stroke-linejoin:miter;stroke-opacity:1;"/>
<path d="M 193.2,265.6 L 193.2,263.7 L 194.8,262.8" style="fill:none;stroke:#000000;stroke-width:2.0px;stroke-linecap:butt;stroke-linejoin:miter;stroke-opacity:1;"/>
<path d="M 223.8,245.6 L 225.4,244.6 L 227.0,245.5" style="fill:none;stroke:#000000;stroke-width:2.0px;stroke-linecap:butt;stroke-linejoin:miter;stroke-opacity:1;"/>
<path class="atom-6" d="M 108.4 296.7 L 109.8 296.7 L 109.8 301.2 L 115.2 301.2 L 115.2 296.7 L 116.7 296.7 L 116.7 307.3 L 115.2 307.3 L 115.2 302.4 L 109.8 302.4 L 109.8 307.3 L 108.4 307.3 L 108.4 296.7 " fill="#0000FF"/>
<path class="atom-6" d="M 122.1 308.9 Q 122.7 309.1, 123.1 309.6 Q 123.4 310.0, 123.4 310.7 Q 123.4 311.3, 123.1 311.7 Q 122.8 312.2, 122.3 312.5 Q 121.7 312.7, 121.0 312.7 Q 120.3 312.7, 119.7 312.4 Q 119.1 312.2, 118.7 311.6 L 119.3 311.1 Q 119.7 311.5, 120.1 311.7 Q 120.4 311.9, 121.0 311.9 Q 121.6 311.9, 122.0 311.6 Q 122.4 311.2, 122.4 310.7 Q 122.4 310.0, 122.0 309.6 Q 121.6 309.3, 120.8 309.3 L 120.3 309.3 L 120.3 308.6 L 120.7 308.6 Q 121.5 308.6, 121.9 308.3 Q 122.3 307.9, 122.3 307.3 Q 122.3 306.9, 121.9 306.6 Q 121.6 306.3, 121.0 306.3 Q 120.4 306.3, 120.1 306.5 Q 119.7 306.7, 119.4 307.3 L 118.8 306.9 Q 119.0 306.3, 119.6 305.9 Q 120.2 305.5, 121.0 305.5 Q 122.1 305.5, 122.7 306.0 Q 123.3 306.5, 123.3 307.3 Q 123.3 307.9, 123.0 308.3 Q 122.6 308.7, 122.1 308.9 " fill="#0000FF"/>
<path class="atom-6" d="M 126.4 296.7 L 129.9 302.3 Q 130.2 302.9, 130.8 303.9 Q 131.4 304.9, 131.4 304.9 L 131.4 296.7 L 132.8 296.7 L 132.8 307.3 L 131.3 307.3 L 127.6 301.2 Q 127.2 300.4, 126.7 299.6 Q 126.3 298.8, 126.1 298.5 L 126.1 307.3 L 124.8 307.3 L 124.8 296.7 L 126.4 296.7 " fill="#0000FF"/>
<path class="atom-6" d="M 134.8 298.6 L 136.7 298.6 L 136.7 296.6 L 137.5 296.6 L 137.5 298.6 L 139.4 298.6 L 139.4 299.3 L 137.5 299.3 L 137.5 301.3 L 136.7 301.3 L 136.7 299.3 L 134.8 299.3 L 134.8 298.6 " fill="#0000FF"/>
<path class="bond-0 atom-0 atom-1" d="M 640.4,300.0 L 624.3,300.0" style="fill:none;fill-rule:evenodd;stroke:#0000FF;stroke-width:2.0px;stroke-linecap:butt;stroke-linejoin:miter;stroke-opacity:1"/>
<path class="bond-0 atom-0 atom-1" d="M 624.3,300.0 L 608.2,300.0" style="fill:none;fill-rule:evenodd;stroke:#000000;stroke-width:2.0px;stroke-linecap:butt;stroke-linejoin:miter;stroke-opacity:1"/>
<path class="bond-1 atom-1 atom-2" d="M 608.2,300.0 L 589.5,332.4" style="fill:none;fill-rule:evenodd;stroke:#000000;stroke-width:2.0px;stroke-linecap:butt;stroke-linejoin:miter;stroke-opacity:1"/>
<path class="bond-1 atom-1 atom-2" d="M 601.7,300.0 L 586.2,326.8" style="fill:none;fill-rule:evenodd;stroke:#000000;stroke-width:2.0px;stroke-linecap:butt;stroke-linejoin:miter;stroke-opacity:1"/>
<path class="bond-2 atom-2 atom-3" d="M 589.5,332.4 L 552.0,332.4" style="fill:none;fill-rule:evenodd;stroke:#000000;stroke-width:2.0px;stroke-linecap:butt;stroke-linejoin:miter;stroke-opacity:1"/>
<path class="bond-3 atom-3 atom-4" d="M 552.0,332.4 L 533.3,300.0" style="fill:none;fill-rule:evenodd;stroke:#000000;stroke-width:2.0px;stroke-linecap:butt;stroke-linejoin:miter;stroke-opacity:1"/>
<path class="bond-3 atom-3 atom-4" d="M 555.3,326.8 L 539.8,300.0" style="fill:none;fill-rule:evenodd;stroke:#000000;stroke-width:2.0px;stroke-linecap:butt;stroke-linejoin:miter;stroke-opacity:1"/>
<path class="bond-4 atom-4 atom-5" d="M 533.3,300.0 L 552.0,267.6" style="fill:none;fill-rule:evenodd;stroke:#000000;stroke-width:2.0px;stroke-linecap:butt;stroke-linejoin:miter;stroke-opacity:1"/>
<path class="bond-5 atom-5 atom-6" d="M 552.0,267.6 L 589.5,267.6" style="fill:none;fill-rule:evenodd;stroke:#000000;stroke-width:2.0px;stroke-linecap:butt;stroke-linejoin:miter;stroke-opacity:1"/>
<path class="bond-5 atom-5 atom-6" d="M 555.3,273.2 L 586.2,273.2" style="fill:none;fill-rule:evenodd;stroke:#000000;stroke-width:2.0px;stroke-linecap:butt;stroke-linejoin:miter;stroke-opacity:1"/>
<path class="bond-6 atom-6 atom-1" d="M 589.5,267.6 L 608.2,300.0" style="fill:none;fill-rule:evenodd;stroke:#000000;stroke-width:2.0px;stroke-linecap:butt;stroke-linejoin:miter;stroke-opacity:1"/>
<path d="M 590.4,330.8 L 589.5,332.4 L 587.6,332.4" style="fill:none;stroke:#000000;stroke-width:2.0px;stroke-linecap:butt;stroke-linejoin:miter;stroke-opacity:1;"/>
<path d="M 553.9,332.4 L 552.0,332.4 L 551.1,330.8" style="fill:none;stroke:#000000;stroke-width:2.0px;stroke-linecap:butt;stroke-linejoin:miter;stroke-opacity:1;"/>
<path d="M 534.2,301.6 L 533.3,300.0 L 534.2,298.4" style="fill:none;stroke:#000000;stroke-width:2.0px;stroke-linecap:butt;stroke-linejoin:miter;stroke-opacity:1;"/>
<path d="M 551.1,269.2 L 552.0,267.6 L 553.9,267.6" style="fill:none;stroke:#000000;stroke-width:2.0px;stroke-linecap:butt;stroke-linejoin:miter;stroke-opacity:1;"/>
<path d="M 587.6,267.6 L 589.5,267.6 L 590.4,269.2" style="fill:none;stroke:#000000;stroke-width:2.0px;stroke-linecap:butt;stroke-linejoin:miter;stroke-opacity:1;"/>
<path class="atom-0" d="M 643.3 294.7 L 646.8 300.3 Q 647.1 300.9, 647.7 301.9 Q 648.2 302.9, 648.3 302.9 L 648.3 294.7 L 649.7 294.7 L 649.7 305.3 L 648.2 305.3 L 644.5 299.2 Q 644.0 298.4, 643.6 297.6 Q 643.1 296.8, 643.0 296.5 L 643.0 305.3 L 641.6 305.3 L 641.6 294.7 L 643.3 294.7 " fill="#0000FF"/>
<path class="atom-0" d="M 651.7 294.7 L 653.1 294.7 L 653.1 299.2 L 658.5 299.2 L 658.5 294.7 L 660.0 294.7 L 660.0 305.3 L 658.5 305.3 L 658.5 300.4 L 653.1 300.4 L 653.1 305.3 L 651.7 305.3 L 651.7 294.7 " fill="#0000FF"/>
<path class="atom-0" d="M 665.4 306.9 Q 666.0 307.1, 666.4 307.6 Q 666.7 308.0, 666.7 308.7 Q 666.7 309.3, 666.4 309.7 Q 666.1 310.2, 665.6 310.5 Q 665.0 310.7, 664.3 310.7 Q 663.6 310.7, 663.0 310.4 Q 662.5 310.2, 662.0 309.6 L 662.6 309.1 Q 663.0 309.5, 663.4 309.7 Q 663.7 309.9, 664.3 309.9 Q 665.0 309.9, 665.3 309.6 Q 665.7 309.2, 665.7 308.7 Q 665.7 308.0, 665.3 307.7 Q 664.9 307.3, 664.1 307.3 L 663.6 307.3 L 663.6 306.6 L 664.0 306.6 Q 664.8 306.6, 665.2 306.3 Q 665.6 305.9, 665.6 305.3 Q 665.6 304.9, 665.2 304.6 Q 664.9 304.3, 664.3 304.3 Q 663.7 304.3, 663.4 304.5 Q 663.0 304.7, 662.7 305.3 L 662.1 304.9 Q 662.3 304.3, 662.9 303.9 Q 663.5 303.5, 664.3 303.5 Q 665.4 303.5, 666.0 304.0 Q 666.6 304.5, 666.6 305.3 Q 666.6 305.9, 666.3 306.3 Q 666.0 306.7, 665.4 306.9 " fill="#0000FF"/>
<path class="atom-0" d="M 662.0 296.6 L 663.9 296.6 L 663.9 294.6 L 664.7 294.6 L 664.7 296.6 L 666.7 296.6 L 666.7 297.3 L 664.7 297.3 L 664.7 299.3 L 663.9 299.3 L 663.9 297.3 L 662.0 297.3 L 662.0 296.6 " fill="#0000FF"/>
<path class="bond-0 atom-0 atom-1" d="M 1011.4,373.0 L 984.5,346.9" style="fill:none;fill-rule:evenodd;stroke:#000000;stroke-width:2.0px;stroke-linecap:butt;stroke-linejoin:miter;stroke-opacity:1"/>
<path class="bond-1 atom-1 atom-2" d="M 984.5,346.9 L 948.5,357.1" style="fill:none;fill-rule:evenodd;stroke:#000000;stroke-width:2.0px;stroke-linecap:butt;stroke-linejoin:miter;stroke-opacity:1"/>
<path class="bond-1 atom-1 atom-2" d="M 979.9,342.4 L 950.1,350.9" style="fill:none;fill-rule:evenodd;stroke:#000000;stroke-width:2.0px;stroke-linecap:butt;stroke-linejoin:miter;stroke-opacity:1"/>
<path class="bond-2 atom-2 atom-3" d="M 948.5,357.1 L 921.6,331.0" style="fill:none;fill-rule:evenodd;stroke:#000000;stroke-width:2.0px;stroke-linecap:butt;stroke-linejoin:miter;stroke-opacity:1"/>
<path class="bond-3 atom-3 atom-4" d="M 921.6,331.0 L 930.8,294.7" style="fill:none;fill-rule:evenodd;stroke:#000000;stroke-width:2.0px;stroke-linecap:butt;stroke-linejoin:miter;stroke-opacity:1"/>
<path class="bond-3 atom-3 atom-4" d="M 927.9,329.3 L 935.5,299.3" style="fill:none;fill-rule:evenodd;stroke:#000000;stroke-width:2.0px;stroke-linecap:butt;stroke-linejoin:miter;stroke-opacity:1"/>
<path class="bond-4 atom-4 atom-5" d="M 930.8,294.7 L 903.9,268.6" style="fill:none;fill-rule:evenodd;stroke:#000000;stroke-width:2.0px;stroke-linecap:butt;stroke-linejoin:miter;stroke-opacity:1"/>
<path class="bond-5 atom-5 atom-6" d="M 903.9,268.6 L 907.7,253.8" style="fill:none;fill-rule:evenodd;stroke:#000000;stroke-width:2.0px;stroke-linecap:butt;stroke-linejoin:miter;stroke-opacity:1"/>
<path class="bond-5 atom-5 atom-6" d="M 907.7,253.8 L 911.5,238.9" style="fill:none;fill-rule:evenodd;stroke:#0000FF;stroke-width:2.0px;stroke-linecap:butt;stroke-linejoin:miter;stroke-opacity:1"/>
<path class="bond-6 atom-4 atom-7" d="M 930.8,294.7 L 966.8,284.5" style="fill:none;fill-rule:evenodd;stroke:#000000;stroke-width:2.0px;stroke-linecap:butt;stroke-linejoin:miter;stroke-opacity:1"/>
<path class="bond-7 atom-7 atom-8" d="M 966.8,284.5 L 993.7,310.6" style="fill:none;fill-rule:evenodd;stroke:#000000;stroke-width:2.0px;stroke-linecap:butt;stroke-linejoin:miter;stroke-opacity:1"/>
<path class="bond-7 atom-7 atom-8" d="M 965.3,290.8 L 987.5,312.4" style="fill:none;fill-rule:evenodd;stroke:#000000;stroke-width:2.0px;stroke-linecap:butt;stroke-linejoin:miter;stroke-opacity:1"/>
<path class="bond-8 atom-8 atom-9" d="M 993.7,310.6 L 1029.7,300.4" style="fill:none;fill-rule:evenodd;stroke:#000000;stroke-width:2.0px;stroke-linecap:butt;stroke-linejoin:miter;stroke-opacity:1"/>
<path class="bond-9 atom-9 atom-10" d="M 1029.7,300.4 L 1038.9,264.1" style="fill:none;fill-rule:evenodd;stroke:#000000;stroke-width:2.0px;stroke-linecap:butt;stroke-linejoin:miter;stroke-opacity:1"/>
<path class="bond-9 atom-9 atom-10" d="M 1025.1,295.9 L 1033.5,262.7" style="fill:none;fill-rule:evenodd;stroke:#000000;stroke-width:2.0px;stroke-linecap:butt;stroke-linejoin:miter;stroke-opacity:1"/>
<path class="bond-10 atom-10 atom-11" d="M 1038.9,264.1 L 1054.3,259.7" style="fill:none;fill-rule:evenodd;stroke:#000000;stroke-width:2.0px;stroke-linecap:butt;stroke-linejoin:miter;stroke-opacity:1"/>
<path class="bond-10 atom-10 atom-11" d="M 1054.3,259.7 L 1069.7,255.4" style="fill:none;fill-rule:evenodd;stroke:#0000FF;stroke-width:2.0px;stroke-linecap:butt;stroke-linejoin:miter;stroke-opacity:1"/>
<path class="bond-11 atom-8 atom-1" d="M 993.7,310.6 L 984.5,346.9" style="fill:none;fill-rule:evenodd;stroke:#000000;stroke-width:2.0px;stroke-linecap:butt;stroke-linejoin:miter;stroke-opacity:1"/>
<path d="M 950.3,356.6 L 948.5,357.1 L 947.2,355.8" style="fill:none;stroke:#000000;stroke-width:2.0px;stroke-linecap:butt;stroke-linejoin:miter;stroke-opacity:1;"/>
<path d="M 923.0,332.4 L 921.6,331.0 L 922.1,329.2" style="fill:none;stroke:#000000;stroke-width:2.0px;stroke-linecap:butt;stroke-linejoin:miter;stroke-opacity:1;"/>
<path d="M 905.3,269.9 L 903.9,268.6 L 904.1,267.9" style="fill:none;stroke:#000000;stroke-width:2.0px;stroke-linecap:butt;stroke-linejoin:miter;stroke-opacity:1;"/>
<path d="M 965.0,285.0 L 966.8,284.5 L 968.2,285.8" style="fill:none;stroke:#000000;stroke-width:2.0px;stroke-linecap:butt;stroke-linejoin:miter;stroke-opacity:1;"/>
<path d="M 1027.9,300.9 L 1029.7,300.4 L 1030.2,298.6" style="fill:none;stroke:#000000;stroke-width:2.0px;stroke-linecap:butt;stroke-linejoin:miter;stroke-opacity:1;"/>
<path d="M 1038.4,265.9 L 1038.9,264.1 L 1039.7,263.9" style="fill:none;stroke:#000000;stroke-width:2.0px;stroke-linecap:butt;stroke-linejoin:miter;stroke-opacity:1;"/>
<path class="atom-6" d="M 910.8 227.0 L 914.2 232.6 Q 914.6 233.2, 915.1 234.2 Q 915.7 235.2, 915.7 235.3 L 915.7 227.0 L 917.1 227.0 L 917.1 237.6 L 915.7 237.6 L 912.0 231.5 Q 911.5 230.8, 911.1 229.9 Q 910.6 229.1, 910.5 228.9 L 910.5 237.6 L 909.1 237.6 L 909.1 227.0 L 910.8 227.0 " fill="#0000FF"/>
<path class="atom-6" d="M 919.1 227.0 L 920.6 227.0 L 920.6 231.5 L 926.0 231.5 L 926.0 227.0 L 927.4 227.0 L 927.4 237.6 L 926.0 237.6 L 926.0 232.7 L 920.6 232.7 L 920.6 237.6 L 919.1 237.6 L 919.1 227.0 " fill="#0000FF"/>
<path class="atom-6" d="M 932.8 239.2 Q 933.5 239.4, 933.8 239.9 Q 934.2 240.3, 934.2 241.0 Q 934.2 241.6, 933.9 242.1 Q 933.6 242.5, 933.0 242.8 Q 932.5 243.0, 931.8 243.0 Q 931.0 243.0, 930.5 242.8 Q 929.9 242.5, 929.5 242.0 L 930.0 241.4 Q 930.5 241.9, 930.8 242.1 Q 931.2 242.2, 931.8 242.2 Q 932.4 242.2, 932.8 241.9 Q 933.2 241.6, 933.2 241.0 Q 933.2 240.3, 932.8 240.0 Q 932.4 239.7, 931.5 239.7 L 931.0 239.7 L 931.0 238.9 L 931.5 238.9 Q 932.2 238.9, 932.6 238.6 Q 933.0 238.3, 933.0 237.6 Q 933.0 237.2, 932.7 236.9 Q 932.4 236.6, 931.8 236.6 Q 931.2 236.6, 930.9 236.9 Q 930.5 237.1, 930.2 237.6 L 929.5 237.2 Q 929.8 236.6, 930.4 236.3 Q 931.0 235.9, 931.8 235.9 Q 932.8 235.9, 933.4 236.3 Q 934.0 236.8, 934.0 237.6 Q 934.0 238.2, 933.7 238.6 Q 933.4 239.0, 932.8 239.2 " fill="#0000FF"/>
<path class="atom-6" d="M 929.5 228.9 L 931.4 228.9 L 931.4 227.0 L 932.2 227.0 L 932.2 228.9 L 934.1 228.9 L 934.1 229.6 L 932.2 229.6 L 932.2 231.6 L 931.4 231.6 L 931.4 229.6 L 929.5 229.6 L 929.5 228.9 " fill="#0000FF"/>
<path class="atom-11" d="M 1072.6 248.6 L 1076.1 254.2 Q 1076.4 254.7, 1077.0 255.8 Q 1077.5 256.8, 1077.5 256.8 L 1077.5 248.6 L 1079.0 248.6 L 1079.0 259.2 L 1077.5 259.2 L 1073.8 253.0 Q 1073.3 252.3, 1072.9 251.5 Q 1072.4 250.7, 1072.3 250.4 L 1072.3 259.2 L 1070.9 259.2 L 1070.9 248.6 L 1072.6 248.6 " fill="#0000FF"/>
<path class="atom-11" d="M 1081.0 248.6 L 1082.4 248.6 L 1082.4 253.1 L 1087.8 253.1 L 1087.8 248.6 L 1089.3 248.6 L 1089.3 259.2 L 1087.8 259.2 L 1087.8 254.3 L 1082.4 254.3 L 1082.4 259.2 L 1081.0 259.2 L 1081.0 248.6 " fill="#0000FF"/>
<path class="atom-11" d="M 1091.4 258.8 Q 1091.6 258.1, 1092.2 257.8 Q 1092.8 257.4, 1093.7 257.4 Q 1094.7 257.4, 1095.3 258.0 Q 1095.9 258.6, 1095.9 259.6 Q 1095.9 260.6, 1095.2 261.6 Q 1094.4 262.5, 1092.8 263.7 L 1096.1 263.7 L 1096.1 264.5 L 1091.3 264.5 L 1091.3 263.8 Q 1092.6 262.9, 1093.4 262.2 Q 1094.2 261.5, 1094.6 260.9 Q 1094.9 260.3, 1094.9 259.6 Q 1094.9 259.0, 1094.6 258.6 Q 1094.3 258.2, 1093.7 258.2 Q 1093.1 258.2, 1092.8 258.4 Q 1092.4 258.7, 1092.1 259.2 L 1091.4 258.8 " fill="#0000FF"/>
<path class="bond-0 atom-0 atom-1" d="M 253.0,500.9 L 221.9,491.9" style="fill:none;fill-rule:evenodd;stroke:#000000;stroke-width:2.0px;stroke-linecap:butt;stroke-linejoin:miter;stroke-opacity:1"/>
<path class="bond-0 atom-0 atom-1" d="M 251.5,506.3 L 220.3,497.3" style="fill:none;fill-rule:evenodd;stroke:#000000;stroke-width:2.0px;stroke-linecap:butt;stroke-linejoin:miter;stroke-opacity:1"/>
<path class="bond-0 atom-0 atom-1" d="M 254.6,495.5 L 223.4,486.5" style="fill:none;fill-rule:evenodd;stroke:#000000;stroke-width:2.0px;stroke-linecap:butt;stroke-linejoin:miter;stroke-opacity:1"/>
<path class="bond-1 atom-1 atom-2" d="M 221.9,491.9 L 185.9,481.6" style="fill:none;fill-rule:evenodd;stroke:#000000;stroke-width:2.0px;stroke-linecap:butt;stroke-linejoin:miter;stroke-opacity:1"/>
<path class="bond-2 atom-2 atom-3" d="M 185.9,481.6 L 175.8,491.4" style="fill:none;fill-rule:evenodd;stroke:#000000;stroke-width:2.0px;stroke-linecap:butt;stroke-linejoin:miter;stroke-opacity:1"/>
<path class="bond-2 atom-2 atom-3" d="M 175.8,491.4 L 165.8,501.1" style="fill:none;fill-rule:evenodd;stroke:#0000FF;stroke-width:2.0px;stroke-linecap:butt;stroke-linejoin:miter;stroke-opacity:1"/>
<path d="M 223.4,492.4 L 221.9,491.9 L 220.1,491.4" style="fill:none;stroke:#000000;stroke-width:2.0px;stroke-linecap:butt;stroke-linejoin:miter;stroke-opacity:1;"/>
<path d="M 187.7,482.1 L 185.9,481.6 L 185.4,482.1" style="fill:none;stroke:#000000;stroke-width:2.0px;stroke-linecap:butt;stroke-linejoin:miter;stroke-opacity:1;"/>
<path class="atom-0" d="M 259.4 502.0 Q 260.4 502.3, 261.0 502.9 Q 261.5 503.5, 261.5 504.4 Q 261.5 505.9, 260.5 506.7 Q 259.6 507.5, 257.8 507.5 L 254.3 507.5 L 254.3 496.9 L 257.4 496.9 Q 259.2 496.9, 260.1 497.7 Q 261.0 498.4, 261.0 499.8 Q 261.0 501.4, 259.4 502.0 M 255.7 498.1 L 255.7 501.5 L 257.4 501.5 Q 258.4 501.5, 259.0 501.0 Q 259.5 500.6, 259.5 499.8 Q 259.5 498.1, 257.4 498.1 L 255.7 498.1 M 257.8 506.3 Q 258.9 506.3, 259.4 505.9 Q 260.0 505.4, 260.0 504.4 Q 260.0 503.5, 259.4 503.1 Q 258.8 502.7, 257.6 502.7 L 255.7 502.7 L 255.7 506.3 L 257.8 506.3 " fill="#000000"/>
<path class="atom-3" d="M 138.5 502.4 L 140.0 502.4 L 140.0 506.9 L 145.4 506.9 L 145.4 502.4 L 146.8 502.4 L 146.8 513.0 L 145.4 513.0 L 145.4 508.1 L 140.0 508.1 L 140.0 513.0 L 138.5 513.0 L 138.5 502.4 " fill="#0000FF"/>
<path class="atom-3" d="M 152.2 514.6 Q 152.9 514.8, 153.2 515.2 Q 153.6 515.7, 153.6 516.4 Q 153.6 516.9, 153.3 517.4 Q 153.0 517.9, 152.4 518.1 Q 151.9 518.4, 151.2 518.4 Q 150.4 518.4, 149.9 518.1 Q 149.3 517.8, 148.9 517.3 L 149.4 516.7 Q 149.9 517.2, 150.2 517.4 Q 150.6 517.6, 151.2 517.6 Q 151.8 517.6, 152.2 517.2 Q 152.6 516.9, 152.6 516.3 Q 152.6 515.6, 152.2 515.3 Q 151.8 515.0, 150.9 515.0 L 150.4 515.0 L 150.4 514.3 L 150.9 514.3 Q 151.6 514.3, 152.0 513.9 Q 152.4 513.6, 152.4 513.0 Q 152.4 512.5, 152.1 512.3 Q 151.8 512.0, 151.2 512.0 Q 150.6 512.0, 150.2 512.2 Q 149.9 512.4, 149.6 512.9 L 148.9 512.6 Q 149.2 512.0, 149.8 511.6 Q 150.4 511.2, 151.2 511.2 Q 152.2 511.2, 152.8 511.7 Q 153.4 512.2, 153.4 513.0 Q 153.4 513.5, 153.1 513.9 Q 152.8 514.4, 152.2 514.6 " fill="#0000FF"/>
<path class="atom-3" d="M 156.6 502.4 L 160.1 508.0 Q 160.4 508.5, 161.0 509.5 Q 161.5 510.5, 161.5 510.6 L 161.5 502.4 L 163.0 502.4 L 163.0 513.0 L 161.5 513.0 L 157.8 506.8 Q 157.3 506.1, 156.9 505.3 Q 156.4 504.5, 156.3 504.2 L 156.3 513.0 L 154.9 513.0 L 154.9 502.4 L 156.6 502.4 " fill="#0000FF"/>
<path class="atom-3" d="M 165.0 504.3 L 166.8 504.3 L 166.8 502.3 L 167.7 502.3 L 167.7 504.3 L 169.6 504.3 L 169.6 505.0 L 167.7 505.0 L 167.7 507.0 L 166.8 507.0 L 166.8 505.0 L 165.0 505.0 L 165.0 504.3 " fill="#0000FF"/>
<path class="bond-0 atom-0 atom-1" d="M 539.4,501.2 L 567.0,485.3" style="fill:none;fill-rule:evenodd;stroke:#000000;stroke-width:2.0px;stroke-linecap:butt;stroke-linejoin:miter;stroke-opacity:1"/>
<path class="bond-1 atom-1 atom-2" d="M 567.0,485.3 L 599.5,504.0" style="fill:none;fill-rule:evenodd;stroke:#000000;stroke-width:2.0px;stroke-linecap:butt;stroke-linejoin:miter;stroke-opacity:1"/>
<path class="bond-2 atom-2 atom-3" d="M 599.5,504.0 L 631.9,485.3" style="fill:none;fill-rule:evenodd;stroke:#000000;stroke-width:2.0px;stroke-linecap:butt;stroke-linejoin:miter;stroke-opacity:1"/>
<path class="bond-3 atom-3 atom-4" d="M 631.9,485.3 L 645.5,493.1" style="fill:none;fill-rule:evenodd;stroke:#000000;stroke-width:2.0px;stroke-linecap:butt;stroke-linejoin:miter;stroke-opacity:1"/>
<path class="bond-3 atom-3 atom-4" d="M 645.5,493.1 L 659.1,501.0" style="fill:none;fill-rule:evenodd;stroke:#0000FF;stroke-width:2.0px;stroke-linecap:butt;stroke-linejoin:miter;stroke-opacity:1"/>
<path d="M 565.6,486.1 L 567.0,485.3 L 568.7,486.2" style="fill:none;stroke:#000000;stroke-width:2.0px;stroke-linecap:butt;stroke-linejoin:miter;stroke-opacity:1;"/>
<path d="M 597.8,503.1 L 599.5,504.0 L 601.1,503.1" style="fill:none;stroke:#000000;stroke-width:2.0px;stroke-linecap:butt;stroke-linejoin:miter;stroke-opacity:1;"/>
<path d="M 630.3,486.2 L 631.9,485.3 L 632.6,485.7" style="fill:none;stroke:#000000;stroke-width:2.0px;stroke-linecap:butt;stroke-linejoin:miter;stroke-opacity:1;"/>
<path class="atom-0" d="M 514.6 498.7 L 516.0 498.7 L 516.0 503.2 L 521.5 503.2 L 521.5 498.7 L 522.9 498.7 L 522.9 509.3 L 521.5 509.3 L 521.5 504.4 L 516.0 504.4 L 516.0 509.3 L 514.6 509.3 L 514.6 498.7 " fill="#000000"/>
<path class="atom-0" d="M 524.9 508.9 Q 525.2 508.3, 525.8 507.9 Q 526.4 507.5, 527.3 507.5 Q 528.3 507.5, 528.9 508.1 Q 529.5 508.7, 529.5 509.7 Q 529.5 510.7, 528.8 511.7 Q 528.0 512.7, 526.4 513.8 L 529.6 513.8 L 529.6 514.6 L 524.9 514.6 L 524.9 514.0 Q 526.2 513.0, 527.0 512.3 Q 527.8 511.6, 528.2 511.0 Q 528.5 510.4, 528.5 509.8 Q 528.5 509.1, 528.2 508.7 Q 527.9 508.3, 527.3 508.3 Q 526.7 508.3, 526.3 508.6 Q 526.0 508.8, 525.7 509.3 L 524.9 508.9 " fill="#000000"/>
<path class="atom-0" d="M 536.1 503.7 Q 537.2 504.0, 537.7 504.7 Q 538.2 505.3, 538.2 506.2 Q 538.2 507.7, 537.3 508.5 Q 536.3 509.3, 534.6 509.3 L 531.0 509.3 L 531.0 498.7 L 534.1 498.7 Q 535.9 498.7, 536.8 499.4 Q 537.8 500.2, 537.8 501.5 Q 537.8 503.1, 536.1 503.7 M 532.4 499.9 L 532.4 503.2 L 534.1 503.2 Q 535.2 503.2, 535.7 502.8 Q 536.3 502.4, 536.3 501.5 Q 536.3 499.9, 534.1 499.9 L 532.4 499.9 M 534.6 508.1 Q 535.6 508.1, 536.1 507.6 Q 536.7 507.1, 536.7 506.2 Q 536.7 505.3, 536.1 504.9 Q 535.5 504.4, 534.3 504.4 L 532.4 504.4 L 532.4 508.1 L 534.6 508.1 " fill="#000000"/>
<path class="atom-4" d="M 662.0 498.7 L 665.5 504.3 Q 665.8 504.9, 666.4 505.9 Q 666.9 506.9, 666.9 506.9 L 666.9 498.7 L 668.4 498.7 L 668.4 509.3 L 666.9 509.3 L 663.2 503.2 Q 662.7 502.5, 662.3 501.6 Q 661.8 500.8, 661.7 500.5 L 661.7 509.3 L 660.3 509.3 L 660.3 498.7 L 662.0 498.7 " fill="#0000FF"/>
<path class="atom-4" d="M 670.4 498.7 L 671.8 498.7 L 671.8 503.2 L 677.2 503.2 L 677.2 498.7 L 678.7 498.7 L 678.7 509.3 L 677.2 509.3 L 677.2 504.4 L 671.8 504.4 L 671.8 509.3 L 670.4 509.3 L 670.4 498.7 " fill="#0000FF"/>
<path class="atom-4" d="M 684.1 510.9 Q 684.7 511.1, 685.1 511.6 Q 685.4 512.0, 685.4 512.7 Q 685.4 513.3, 685.1 513.8 Q 684.8 514.2, 684.3 514.5 Q 683.7 514.7, 683.0 514.7 Q 682.3 514.7, 681.7 514.5 Q 681.1 514.2, 680.7 513.7 L 681.3 513.1 Q 681.7 513.6, 682.1 513.7 Q 682.4 513.9, 683.0 513.9 Q 683.6 513.9, 684.0 513.6 Q 684.4 513.2, 684.4 512.7 Q 684.4 512.0, 684.0 511.7 Q 683.6 511.3, 682.8 511.3 L 682.2 511.3 L 682.2 510.6 L 682.7 510.6 Q 683.5 510.6, 683.9 510.3 Q 684.3 509.9, 684.3 509.3 Q 684.3 508.9, 683.9 508.6 Q 683.6 508.3, 683.0 508.3 Q 682.4 508.3, 682.1 508.5 Q 681.7 508.7, 681.4 509.3 L 680.8 508.9 Q 681.0 508.3, 681.6 507.9 Q 682.2 507.5, 683.0 507.5 Q 684.0 507.5, 684.6 508.0 Q 685.3 508.5, 685.3 509.3 Q 685.3 509.9, 684.9 510.3 Q 684.6 510.7, 684.1 510.9 " fill="#0000FF"/>
<path class="atom-4" d="M 680.7 500.6 L 682.6 500.6 L 682.6 498.7 L 683.4 498.7 L 683.4 500.6 L 685.4 500.6 L 685.4 501.3 L 683.4 501.3 L 683.4 503.3 L 682.6 503.3 L 682.6 501.3 L 680.7 501.3 L 680.7 500.6 " fill="#0000FF"/>
<path class="bond-0 atom-0 atom-1" d="M 908.0,505.2 L 941.4,488.2" style="fill:none;fill-rule:evenodd;stroke:#000000;stroke-width:2.0px;stroke-linecap:butt;stroke-linejoin:miter;stroke-opacity:1"/>
<path class="bond-1 atom-1 atom-2" d="M 941.4,488.2 L 972.8,508.5" style="fill:none;fill-rule:evenodd;stroke:#000000;stroke-width:2.0px;stroke-linecap:butt;stroke-linejoin:miter;stroke-opacity:1"/>
<path class="bond-2 atom-2 atom-3" d="M 972.8,508.5 L 1006.1,491.5" style="fill:none;fill-rule:evenodd;stroke:#000000;stroke-width:2.0px;stroke-linecap:butt;stroke-linejoin:miter;stroke-opacity:1"/>
<path class="bond-3 atom-3 atom-4" d="M 1006.1,491.5 L 1037.6,511.8" style="fill:none;fill-rule:evenodd;stroke:#000000;stroke-width:2.0px;stroke-linecap:butt;stroke-linejoin:miter;stroke-opacity:1"/>
<path class="bond-4 atom-4 atom-5" d="M 1037.6,511.8 L 1051.6,504.6" style="fill:none;fill-rule:evenodd;stroke:#000000;stroke-width:2.0px;stroke-linecap:butt;stroke-linejoin:miter;stroke-opacity:1"/>
<path class="bond-4 atom-4 atom-5" d="M 1051.6,504.6 L 1065.7,497.5" style="fill:none;fill-rule:evenodd;stroke:#0000FF;stroke-width:2.0px;stroke-linecap:butt;stroke-linejoin:miter;stroke-opacity:1"/>
<path d="M 939.7,489.0 L 941.4,488.2 L 942.9,489.2" style="fill:none;stroke:#000000;stroke-width:2.0px;stroke-linecap:butt;stroke-linejoin:miter;stroke-opacity:1;"/>
<path d="M 971.2,507.5 L 972.8,508.5 L 974.5,507.7" style="fill:none;stroke:#000000;stroke-width:2.0px;stroke-linecap:butt;stroke-linejoin:miter;stroke-opacity:1;"/>
<path d="M 1004.5,492.3 L 1006.1,491.5 L 1007.7,492.5" style="fill:none;stroke:#000000;stroke-width:2.0px;stroke-linecap:butt;stroke-linejoin:miter;stroke-opacity:1;"/>
<path d="M 1036.0,510.8 L 1037.6,511.8 L 1038.3,511.5" style="fill:none;stroke:#000000;stroke-width:2.0px;stroke-linecap:butt;stroke-linejoin:miter;stroke-opacity:1;"/>
<path class="atom-5" d="M 1068.6 489.5 L 1072.1 495.1 Q 1072.4 495.6, 1073.0 496.6 Q 1073.5 497.6, 1073.5 497.7 L 1073.5 489.5 L 1074.9 489.5 L 1074.9 500.1 L 1073.5 500.1 L 1069.8 493.9 Q 1069.3 493.2, 1068.9 492.4 Q 1068.4 491.6, 1068.3 491.3 L 1068.3 500.1 L 1066.9 500.1 L 1066.9 489.5 L 1068.6 489.5 " fill="#0000FF"/>
<path class="atom-5" d="M 1076.9 489.5 L 1078.4 489.5 L 1078.4 494.0 L 1083.8 494.0 L 1083.8 489.5 L 1085.2 489.5 L 1085.2 500.1 L 1083.8 500.1 L 1083.8 495.2 L 1078.4 495.2 L 1078.4 500.1 L 1076.9 500.1 L 1076.9 489.5 " fill="#0000FF"/>
<path class="atom-5" d="M 1090.6 501.7 Q 1091.3 501.9, 1091.7 502.3 Q 1092.0 502.8, 1092.0 503.5 Q 1092.0 504.0, 1091.7 504.5 Q 1091.4 505.0, 1090.9 505.2 Q 1090.3 505.5, 1089.6 505.5 Q 1088.8 505.5, 1088.3 505.2 Q 1087.7 504.9, 1087.3 504.4 L 1087.8 503.8 Q 1088.3 504.3, 1088.6 504.5 Q 1089.0 504.7, 1089.6 504.7 Q 1090.2 504.7, 1090.6 504.3 Q 1091.0 504.0, 1091.0 503.4 Q 1091.0 502.7, 1090.6 502.4 Q 1090.2 502.1, 1089.3 502.1 L 1088.8 502.1 L 1088.8 501.4 L 1089.3 501.4 Q 1090.0 501.4, 1090.4 501.0 Q 1090.9 500.7, 1090.9 500.1 Q 1090.9 499.6, 1090.5 499.4 Q 1090.2 499.1, 1089.6 499.1 Q 1089.0 499.1, 1088.7 499.3 Q 1088.3 499.5, 1088.0 500.0 L 1087.3 499.7 Q 1087.6 499.1, 1088.2 498.7 Q 1088.8 498.3, 1089.6 498.3 Q 1090.6 498.3, 1091.2 498.8 Q 1091.8 499.3, 1091.8 500.1 Q 1091.8 500.6, 1091.5 501.0 Q 1091.2 501.5, 1090.6 501.7 " fill="#0000FF"/>
<path class="atom-5" d="M 1087.3 491.4 L 1089.2 491.4 L 1089.2 489.4 L 1090.0 489.4 L 1090.0 491.4 L 1091.9 491.4 L 1091.9 492.1 L 1090.0 492.1 L 1090.0 494.1 L 1089.2 494.1 L 1089.2 492.1 L 1087.3 492.1 L 1087.3 491.4 " fill="#0000FF"/>
<path class="bond-0 atom-0 atom-1" d="M 120.4,716.5 L 133.3,725.3" style="fill:none;fill-rule:evenodd;stroke:#0000FF;stroke-width:2.0px;stroke-linecap:butt;stroke-linejoin:miter;stroke-opacity:1"/>
<path class="bond-0 atom-0 atom-1" d="M 133.3,725.3 L 146.1,734.1" style="fill:none;fill-rule:evenodd;stroke:#000000;stroke-width:2.0px;stroke-linecap:butt;stroke-linejoin:miter;stroke-opacity:1"/>
<path class="bond-1 atom-1 atom-2" d="M 146.1,734.1 L 179.9,718.0" style="fill:none;fill-rule:evenodd;stroke:#000000;stroke-width:2.0px;stroke-linecap:butt;stroke-linejoin:miter;stroke-opacity:1"/>
<path class="bond-2 atom-2 atom-3" d="M 179.9,718.0 L 175.0,680.8" style="fill:none;fill-rule:evenodd;stroke:#000000;stroke-width:2.0px;stroke-linecap:butt;stroke-linejoin:miter;stroke-opacity:1"/>
<path class="bond-2 atom-2 atom-3" d="M 185.2,715.4 L 180.8,681.9" style="fill:none;fill-rule:evenodd;stroke:#000000;stroke-width:2.0px;stroke-linecap:butt;stroke-linejoin:miter;stroke-opacity:1"/>
<path class="bond-3 atom-3 atom-4" d="M 175.0,680.8 L 192.8,647.9" style="fill:none;fill-rule:evenodd;stroke:#000000;stroke-width:2.0px;stroke-linecap:butt;stroke-linejoin:miter;stroke-opacity:1"/>
<path class="bond-4 atom-4 atom-5" d="M 192.8,647.9 L 226.6,631.8" style="fill:none;fill-rule:evenodd;stroke:#000000;stroke-width:2.0px;stroke-linecap:butt;stroke-linejoin:miter;stroke-opacity:1"/>
<path class="bond-4 atom-4 atom-5" d="M 196.9,652.2 L 229.0,636.8" style="fill:none;fill-rule:evenodd;stroke:#000000;stroke-width:2.0px;stroke-linecap:butt;stroke-linejoin:miter;stroke-opacity:1"/>
<path class="bond-5 atom-5 atom-6" d="M 226.6,631.8 L 263.4,638.6" style="fill:none;fill-rule:evenodd;stroke:#000000;stroke-width:2.0px;stroke-linecap:butt;stroke-linejoin:miter;stroke-opacity:1"/>
<path class="bond-6 atom-6 atom-7" d="M 263.4,638.6 L 289.2,665.7" style="fill:none;fill-rule:evenodd;stroke:#000000;stroke-width:2.0px;stroke-linecap:butt;stroke-linejoin:miter;stroke-opacity:1"/>
<path class="bond-6 atom-6 atom-7" d="M 260.6,643.8 L 285.2,669.6" style="fill:none;fill-rule:evenodd;stroke:#000000;stroke-width:2.0px;stroke-linecap:butt;stroke-linejoin:miter;stroke-opacity:1"/>
<path class="bond-7 atom-7 atom-8" d="M 289.2,665.7 L 294.1,702.9" style="fill:none;fill-rule:evenodd;stroke:#000000;stroke-width:2.0px;stroke-linecap:butt;stroke-linejoin:miter;stroke-opacity:1"/>
<path class="bond-8 atom-8 atom-9" d="M 294.1,702.9 L 276.3,735.8" style="fill:none;fill-rule:evenodd;stroke:#000000;stroke-width:2.0px;stroke-linecap:butt;stroke-linejoin:miter;stroke-opacity:1"/>
<path class="bond-8 atom-8 atom-9" d="M 288.3,701.8 L 272.2,731.5" style="fill:none;fill-rule:evenodd;stroke:#000000;stroke-width:2.0px;stroke-linecap:butt;stroke-linejoin:miter;stroke-opacity:1"/>
<path class="bond-9 atom-9 atom-10" d="M 276.3,735.8 L 287.0,747.0" style="fill:none;fill-rule:evenodd;stroke:#000000;stroke-width:2.0px;stroke-linecap:butt;stroke-linejoin:miter;stroke-opacity:1"/>
<path class="bond-9 atom-9 atom-10" d="M 287.0,747.0 L 297.7,758.3" style="fill:none;fill-rule:evenodd;stroke:#33CCCC;stroke-width:2.0px;stroke-linecap:butt;stroke-linejoin:miter;stroke-opacity:1"/>
<path class="bond-10 atom-9 atom-11" d="M 276.3,735.8 L 242.5,751.9" style="fill:none;fill-rule:evenodd;stroke:#000000;stroke-width:2.0px;stroke-linecap:butt;stroke-linejoin:miter;stroke-opacity:1"/>
<path class="bond-11 atom-11 atom-12" d="M 242.5,751.9 L 205.7,745.1" style="fill:none;fill-rule:evenodd;stroke:#000000;stroke-width:2.0px;stroke-linecap:butt;stroke-linejoin:miter;stroke-opacity:1"/>
<path class="bond-11 atom-11 atom-12" d="M 241.7,746.1 L 206.7,739.6" style="fill:none;fill-rule:evenodd;stroke:#000000;stroke-width:2.0px;stroke-linecap:butt;stroke-linejoin:miter;stroke-opacity:1"/>
<path class="bond-12 atom-12 atom-2" d="M 205.7,745.1 L 179.9,718.0" style="fill:none;fill-rule:evenodd;stroke:#000000;stroke-width:2.0px;stroke-linecap:butt;stroke-linejoin:miter;stroke-opacity:1"/>
<path d="M 145.4,733.7 L 146.1,734.1 L 147.8,733.3" style="fill:none;stroke:#000000;stroke-width:2.0px;stroke-linecap:butt;stroke-linejoin:miter;stroke-opacity:1;"/>
<path d="M 175.2,682.7 L 175.0,680.8 L 175.8,679.2" style="fill:none;stroke:#000000;stroke-width:2.0px;stroke-linecap:butt;stroke-linejoin:miter;stroke-opacity:1;"/>
<path d="M 191.9,649.5 L 192.8,647.9 L 194.5,647.1" style="fill:none;stroke:#000000;stroke-width:2.0px;stroke-linecap:butt;stroke-linejoin:miter;stroke-opacity:1;"/>
<path d="M 224.9,632.6 L 226.6,631.8 L 228.4,632.1" style="fill:none;stroke:#000000;stroke-width:2.0px;stroke-linecap:butt;stroke-linejoin:miter;stroke-opacity:1;"/>
<path d="M 261.6,638.2 L 263.4,638.6 L 264.7,639.9" style="fill:none;stroke:#000000;stroke-width:2.0px;stroke-linecap:butt;stroke-linejoin:miter;stroke-opacity:1;"/>
<path d="M 287.9,664.4 L 289.2,665.7 L 289.5,667.6" style="fill:none;stroke:#000000;stroke-width:2.0px;stroke-linecap:butt;stroke-linejoin:miter;stroke-opacity:1;"/>
<path d="M 293.9,701.0 L 294.1,702.9 L 293.2,704.5" style="fill:none;stroke:#000000;stroke-width:2.0px;stroke-linecap:butt;stroke-linejoin:miter;stroke-opacity:1;"/>
<path d="M 244.2,751.1 L 242.5,751.9 L 240.6,751.6" style="fill:none;stroke:#000000;stroke-width:2.0px;stroke-linecap:butt;stroke-linejoin:miter;stroke-opacity:1;"/>
<path d="M 207.5,745.4 L 205.7,745.1 L 204.4,743.8" style="fill:none;stroke:#000000;stroke-width:2.0px;stroke-linecap:butt;stroke-linejoin:miter;stroke-opacity:1;"/>
<path class="atom-0" d="M 94.8 707.6 L 96.2 707.6 L 96.2 712.1 L 101.6 712.1 L 101.6 707.6 L 103.1 707.6 L 103.1 718.2 L 101.6 718.2 L 101.6 713.3 L 96.2 713.3 L 96.2 718.2 L 94.8 718.2 L 94.8 707.6 " fill="#0000FF"/>
<path class="atom-0" d="M 108.5 719.8 Q 109.2 720.0, 109.5 720.5 Q 109.8 720.9, 109.8 721.6 Q 109.8 722.2, 109.5 722.6 Q 109.2 723.1, 108.7 723.4 Q 108.1 723.6, 107.4 723.6 Q 106.7 723.6, 106.1 723.3 Q 105.6 723.1, 105.1 722.5 L 105.7 722.0 Q 106.1 722.4, 106.5 722.6 Q 106.8 722.8, 107.4 722.8 Q 108.1 722.8, 108.4 722.5 Q 108.8 722.1, 108.8 721.6 Q 108.8 720.9, 108.4 720.5 Q 108.0 720.2, 107.2 720.2 L 106.7 720.2 L 106.7 719.5 L 107.1 719.5 Q 107.9 719.5, 108.3 719.2 Q 108.7 718.8, 108.7 718.2 Q 108.7 717.8, 108.3 717.5 Q 108.0 717.2, 107.4 717.2 Q 106.9 717.2, 106.5 717.4 Q 106.1 717.6, 105.9 718.1 L 105.2 717.8 Q 105.4 717.2, 106.0 716.8 Q 106.6 716.4, 107.4 716.4 Q 108.5 716.4, 109.1 716.9 Q 109.7 717.4, 109.7 718.2 Q 109.7 718.8, 109.4 719.2 Q 109.1 719.6, 108.5 719.8 " fill="#0000FF"/>
<path class="atom-0" d="M 112.8 707.6 L 116.3 713.2 Q 116.7 713.8, 117.2 714.8 Q 117.8 715.8, 117.8 715.8 L 117.8 707.6 L 119.2 707.6 L 119.2 718.2 L 117.8 718.2 L 114.0 712.1 Q 113.6 711.3, 113.1 710.5 Q 112.7 709.7, 112.5 709.4 L 112.5 718.2 L 111.2 718.2 L 111.2 707.6 L 112.8 707.6 " fill="#0000FF"/>
<path class="atom-0" d="M 121.2 709.5 L 123.1 709.5 L 123.1 707.5 L 123.9 707.5 L 123.9 709.5 L 125.8 709.5 L 125.8 710.2 L 123.9 710.2 L 123.9 712.2 L 123.1 712.2 L 123.1 710.2 L 121.2 710.2 L 121.2 709.5 " fill="#0000FF"/>
<path class="atom-10" d="M 298.9 757.6 L 305.2 757.6 L 305.2 758.8 L 300.3 758.8 L 300.3 762.1 L 304.7 762.1 L 304.7 763.3 L 300.3 763.3 L 300.3 768.2 L 298.9 768.2 L 298.9 757.6 " fill="#33CCCC"/>
<path class="bond-0 atom-0 atom-1" d="M 522.8,700.7 L 551.4,686.2" style="fill:none;fill-rule:evenodd;stroke:#000000;stroke-width:2.0px;stroke-linecap:butt;stroke-linejoin:miter;stroke-opacity:1"/>
<path class="bond-1 atom-1 atom-2" d="M 551.4,686.2 L 582.8,706.5" style="fill:none;fill-rule:evenodd;stroke:#000000;stroke-width:2.0px;stroke-linecap:butt;stroke-linejoin:miter;stroke-opacity:1"/>
<path class="bond-2 atom-2 atom-3" d="M 582.8,706.5 L 616.1,689.5" style="fill:none;fill-rule:evenodd;stroke:#000000;stroke-width:2.0px;stroke-linecap:butt;stroke-linejoin:miter;stroke-opacity:1"/>
<path class="bond-3 atom-3 atom-4" d="M 616.1,689.5 L 647.6,709.8" style="fill:none;fill-rule:evenodd;stroke:#000000;stroke-width:2.0px;stroke-linecap:butt;stroke-linejoin:miter;stroke-opacity:1"/>
<path class="bond-4 atom-4 atom-5" d="M 647.6,709.8 L 661.6,702.6" style="fill:none;fill-rule:evenodd;stroke:#000000;stroke-width:2.0px;stroke-linecap:butt;stroke-linejoin:miter;stroke-opacity:1"/>
<path class="bond-4 atom-4 atom-5" d="M 661.6,702.6 L 675.7,695.4" style="fill:none;fill-rule:evenodd;stroke:#0000FF;stroke-width:2.0px;stroke-linecap:butt;stroke-linejoin:miter;stroke-opacity:1"/>
<path d="M 549.9,686.9 L 551.4,686.2 L 552.9,687.2" style="fill:none;stroke:#000000;stroke-width:2.0px;stroke-linecap:butt;stroke-linejoin:miter;stroke-opacity:1;"/>
<path d="M 581.2,705.5 L 582.8,706.5 L 584.5,705.7" style="fill:none;stroke:#000000;stroke-width:2.0px;stroke-linecap:butt;stroke-linejoin:miter;stroke-opacity:1;"/>
<path d="M 614.5,690.3 L 616.1,689.5 L 617.7,690.5" style="fill:none;stroke:#000000;stroke-width:2.0px;stroke-linecap:butt;stroke-linejoin:miter;stroke-opacity:1;"/>
<path d="M 646.0,708.8 L 647.6,709.8 L 648.3,709.4" style="fill:none;stroke:#000000;stroke-width:2.0px;stroke-linecap:butt;stroke-linejoin:miter;stroke-opacity:1;"/>
<path class="atom-0" d="M 498.0 697.9 L 499.5 697.9 L 499.5 702.4 L 504.9 702.4 L 504.9 697.9 L 506.3 697.9 L 506.3 708.5 L 504.9 708.5 L 504.9 703.6 L 499.5 703.6 L 499.5 708.5 L 498.0 708.5 L 498.0 697.9 " fill="#000000"/>
<path class="atom-0" d="M 508.4 708.2 Q 508.6 707.5, 509.2 707.1 Q 509.8 706.8, 510.7 706.8 Q 511.8 706.8, 512.3 707.3 Q 512.9 707.9, 512.9 708.9 Q 512.9 710.0, 512.2 710.9 Q 511.4 711.9, 509.8 713.0 L 513.1 713.0 L 513.1 713.8 L 508.3 713.8 L 508.3 713.2 Q 509.6 712.2, 510.4 711.5 Q 511.2 710.9, 511.6 710.2 Q 511.9 709.6, 511.9 709.0 Q 511.9 708.3, 511.6 707.9 Q 511.3 707.5, 510.7 707.5 Q 510.1 707.5, 509.8 707.8 Q 509.4 708.0, 509.1 708.5 L 508.4 708.2 " fill="#000000"/>
<path class="atom-0" d="M 519.6 703.0 Q 520.6 703.2, 521.1 703.9 Q 521.6 704.5, 521.6 705.4 Q 521.6 706.9, 520.7 707.7 Q 519.7 708.5, 518.0 708.5 L 514.4 708.5 L 514.4 697.9 L 517.5 697.9 Q 519.3 697.9, 520.3 698.7 Q 521.2 699.4, 521.2 700.7 Q 521.2 702.3, 519.6 703.0 M 515.8 699.1 L 515.8 702.4 L 517.5 702.4 Q 518.6 702.4, 519.1 702.0 Q 519.7 701.6, 519.7 700.7 Q 519.7 699.1, 517.5 699.1 L 515.8 699.1 M 518.0 707.3 Q 519.0 707.3, 519.6 706.8 Q 520.1 706.3, 520.1 705.4 Q 520.1 704.5, 519.5 704.1 Q 518.9 703.6, 517.7 703.6 L 515.8 703.6 L 515.8 707.3 L 518.0 707.3 " fill="#000000"/>
<path class="atom-5" d="M 678.6 687.4 L 682.1 693.1 Q 682.4 693.6, 682.9 694.6 Q 683.5 695.6, 683.5 695.7 L 683.5 687.4 L 684.9 687.4 L 684.9 698.1 L 683.5 698.1 L 679.8 691.9 Q 679.3 691.2, 678.9 690.4 Q 678.4 689.5, 678.3 689.3 L 678.3 698.1 L 676.9 698.1 L 676.9 687.4 L 678.6 687.4 " fill="#0000FF"/>
<path class="atom-5" d="M 686.9 687.4 L 688.4 687.4 L 688.4 692.0 L 693.8 692.0 L 693.8 687.4 L 695.2 687.4 L 695.2 698.1 L 693.8 698.1 L 693.8 693.2 L 688.4 693.2 L 688.4 698.1 L 686.9 698.1 L 686.9 687.4 " fill="#0000FF"/>
<path class="atom-5" d="M 700.6 699.7 Q 701.3 699.9, 701.7 700.3 Q 702.0 700.7, 702.0 701.4 Q 702.0 702.0, 701.7 702.5 Q 701.4 703.0, 700.9 703.2 Q 700.3 703.5, 699.6 703.5 Q 698.8 703.5, 698.3 703.2 Q 697.7 702.9, 697.3 702.4 L 697.8 701.8 Q 698.3 702.3, 698.6 702.5 Q 699.0 702.7, 699.6 702.7 Q 700.2 702.7, 700.6 702.3 Q 701.0 702.0, 701.0 701.4 Q 701.0 700.7, 700.6 700.4 Q 700.2 700.1, 699.3 700.1 L 698.8 700.1 L 698.8 699.4 L 699.3 699.4 Q 700.0 699.4, 700.4 699.0 Q 700.9 698.7, 700.9 698.1 Q 700.9 697.6, 700.5 697.3 Q 700.2 697.1, 699.6 697.1 Q 699.0 697.1, 698.7 697.3 Q 698.3 697.5, 698.0 698.0 L 697.3 697.6 Q 697.6 697.1, 698.2 696.7 Q 698.8 696.3, 699.6 696.3 Q 700.6 696.3, 701.2 696.8 Q 701.8 697.2, 701.8 698.1 Q 701.8 698.6, 701.5 699.0 Q 701.2 699.4, 700.6 699.7 " fill="#0000FF"/>
<path class="atom-5" d="M 697.3 689.4 L 699.2 689.4 L 699.2 687.4 L 700.0 687.4 L 700.0 689.4 L 701.9 689.4 L 701.9 690.1 L 700.0 690.1 L 700.0 692.1 L 699.2 692.1 L 699.2 690.1 L 697.3 690.1 L 697.3 689.4 " fill="#0000FF"/>
<path class="bond-0 atom-0 atom-1" d="M 922.8,747.7 L 944.2,716.9" style="fill:none;fill-rule:evenodd;stroke:#000000;stroke-width:2.0px;stroke-linecap:butt;stroke-linejoin:miter;stroke-opacity:1"/>
<path class="bond-1 atom-1 atom-2" d="M 944.2,716.9 L 928.2,683.1" style="fill:none;fill-rule:evenodd;stroke:#000000;stroke-width:2.0px;stroke-linecap:butt;stroke-linejoin:miter;stroke-opacity:1"/>
<path class="bond-1 atom-1 atom-2" d="M 947.9,711.6 L 934.7,683.6" style="fill:none;fill-rule:evenodd;stroke:#000000;stroke-width:2.0px;stroke-linecap:butt;stroke-linejoin:miter;stroke-opacity:1"/>
<path class="bond-2 atom-2 atom-3" d="M 928.2,683.1 L 949.5,652.3" style="fill:none;fill-rule:evenodd;stroke:#000000;stroke-width:2.0px;stroke-linecap:butt;stroke-linejoin:miter;stroke-opacity:1"/>
<path class="bond-3 atom-3 atom-4" d="M 949.5,652.3 L 986.9,655.4" style="fill:none;fill-rule:evenodd;stroke:#000000;stroke-width:2.0px;stroke-linecap:butt;stroke-linejoin:miter;stroke-opacity:1"/>
<path class="bond-3 atom-3 atom-4" d="M 952.3,658.2 L 983.2,660.7" style="fill:none;fill-rule:evenodd;stroke:#000000;stroke-width:2.0px;stroke-linecap:butt;stroke-linejoin:miter;stroke-opacity:1"/>
<path class="bond-4 atom-4 atom-5" d="M 986.9,655.4 L 1002.8,689.3" style="fill:none;fill-rule:evenodd;stroke:#000000;stroke-width:2.0px;stroke-linecap:butt;stroke-linejoin:miter;stroke-opacity:1"/>
<path class="bond-5 atom-5 atom-6" d="M 1002.8,689.3 L 1040.2,692.4" style="fill:none;fill-rule:evenodd;stroke:#000000;stroke-width:2.0px;stroke-linecap:butt;stroke-linejoin:miter;stroke-opacity:1"/>
<path class="bond-6 atom-6 atom-7" d="M 1040.2,692.4 L 1046.6,706.0" style="fill:none;fill-rule:evenodd;stroke:#000000;stroke-width:2.0px;stroke-linecap:butt;stroke-linejoin:miter;stroke-opacity:1"/>
<path class="bond-6 atom-6 atom-7" d="M 1046.6,706.0 L 1053.0,719.7" style="fill:none;fill-rule:evenodd;stroke:#0000FF;stroke-width:2.0px;stroke-linecap:butt;stroke-linejoin:miter;stroke-opacity:1"/>
<path class="bond-7 atom-5 atom-8" d="M 1002.8,689.3 L 981.5,720.0" style="fill:none;fill-rule:evenodd;stroke:#000000;stroke-width:2.0px;stroke-linecap:butt;stroke-linejoin:miter;stroke-opacity:1"/>
<path class="bond-7 atom-5 atom-8" d="M 996.4,688.7 L 978.7,714.2" style="fill:none;fill-rule:evenodd;stroke:#000000;stroke-width:2.0px;stroke-linecap:butt;stroke-linejoin:miter;stroke-opacity:1"/>
<path class="bond-8 atom-8 atom-1" d="M 981.5,720.0 L 944.2,716.9" style="fill:none;fill-rule:evenodd;stroke:#000000;stroke-width:2.0px;stroke-linecap:butt;stroke-linejoin:miter;stroke-opacity:1"/>
<path d="M 929.0,684.8 L 928.2,683.1 L 929.3,681.5" style="fill:none;stroke:#000000;stroke-width:2.0px;stroke-linecap:butt;stroke-linejoin:miter;stroke-opacity:1;"/>
<path d="M 948.5,653.8 L 949.5,652.3 L 951.4,652.4" style="fill:none;stroke:#000000;stroke-width:2.0px;stroke-linecap:butt;stroke-linejoin:miter;stroke-opacity:1;"/>
<path d="M 985.0,655.2 L 986.9,655.4 L 987.7,657.1" style="fill:none;stroke:#000000;stroke-width:2.0px;stroke-linecap:butt;stroke-linejoin:miter;stroke-opacity:1;"/>
<path d="M 1038.3,692.2 L 1040.2,692.4 L 1040.5,693.1" style="fill:none;stroke:#000000;stroke-width:2.0px;stroke-linecap:butt;stroke-linejoin:miter;stroke-opacity:1;"/>
<path d="M 982.5,718.5 L 981.5,720.0 L 979.6,719.9" style="fill:none;stroke:#000000;stroke-width:2.0px;stroke-linecap:butt;stroke-linejoin:miter;stroke-opacity:1;"/>
<path class="atom-7" d="M 1053.8 721.0 L 1057.3 726.6 Q 1057.6 727.1, 1058.2 728.1 Q 1058.7 729.1, 1058.7 729.2 L 1058.7 721.0 L 1060.1 721.0 L 1060.1 731.6 L 1058.7 731.6 L 1055.0 725.4 Q 1054.5 724.7, 1054.1 723.9 Q 1053.6 723.1, 1053.5 722.8 L 1053.5 731.6 L 1052.1 731.6 L 1052.1 721.0 L 1053.8 721.0 " fill="#0000FF"/>
<path class="atom-7" d="M 1062.2 721.0 L 1063.6 721.0 L 1063.6 725.5 L 1069.0 725.5 L 1069.0 721.0 L 1070.5 721.0 L 1070.5 731.6 L 1069.0 731.6 L 1069.0 726.7 L 1063.6 726.7 L 1063.6 731.6 L 1062.2 731.6 L 1062.2 721.0 " fill="#0000FF"/>
<path class="atom-7" d="M 1075.8 733.2 Q 1076.5 733.4, 1076.9 733.8 Q 1077.2 734.3, 1077.2 734.9 Q 1077.2 735.5, 1076.9 736.0 Q 1076.6 736.5, 1076.1 736.7 Q 1075.5 737.0, 1074.8 737.0 Q 1074.0 737.0, 1073.5 736.7 Q 1072.9 736.4, 1072.5 735.9 L 1073.1 735.3 Q 1073.5 735.8, 1073.9 736.0 Q 1074.2 736.2, 1074.8 736.2 Q 1075.4 736.2, 1075.8 735.8 Q 1076.2 735.5, 1076.2 734.9 Q 1076.2 734.2, 1075.8 733.9 Q 1075.4 733.6, 1074.5 733.6 L 1074.0 733.6 L 1074.0 732.9 L 1074.5 732.9 Q 1075.2 732.9, 1075.7 732.5 Q 1076.1 732.2, 1076.1 731.6 Q 1076.1 731.1, 1075.7 730.9 Q 1075.4 730.6, 1074.8 730.6 Q 1074.2 730.6, 1073.9 730.8 Q 1073.5 731.0, 1073.2 731.5 L 1072.5 731.1 Q 1072.8 730.6, 1073.4 730.2 Q 1074.0 729.8, 1074.8 729.8 Q 1075.8 729.8, 1076.4 730.3 Q 1077.0 730.8, 1077.0 731.6 Q 1077.0 732.1, 1076.7 732.5 Q 1076.4 732.9, 1075.8 733.2 " fill="#0000FF"/>
<path class="atom-7" d="M 1072.5 722.9 L 1074.4 722.9 L 1074.4 720.9 L 1075.2 720.9 L 1075.2 722.9 L 1077.1 722.9 L 1077.1 723.6 L 1075.2 723.6 L 1075.2 725.6 L 1074.4 725.6 L 1074.4 723.6 L 1072.5 723.6 L 1072.5 722.9 " fill="#0000FF"/>
<path class="bond-0 atom-0 atom-1" d="M 50.5,893.0 L 62.9,890.5" style="fill:none;fill-rule:evenodd;stroke:#0000FF;stroke-width:2.0px;stroke-linecap:butt;stroke-linejoin:miter;stroke-opacity:1"/>
<path class="bond-0 atom-0 atom-1" d="M 62.9,890.5 L 75.3,887.9" style="fill:none;fill-rule:evenodd;stroke:#000000;stroke-width:2.0px;stroke-linecap:butt;stroke-linejoin:miter;stroke-opacity:1"/>
<path class="bond-1 atom-1 atom-2" d="M 75.3,887.9 L 100.1,916.0" style="fill:none;fill-rule:evenodd;stroke:#000000;stroke-width:2.0px;stroke-linecap:butt;stroke-linejoin:miter;stroke-opacity:1"/>
<path class="bond-2 atom-2 atom-3" d="M 100.1,916.0 L 136.8,908.5" style="fill:none;fill-rule:evenodd;stroke:#000000;stroke-width:2.0px;stroke-linecap:butt;stroke-linejoin:miter;stroke-opacity:1"/>
<path class="bond-3 atom-3 atom-4" d="M 136.8,908.5 L 148.7,873.0" style="fill:none;fill-rule:evenodd;stroke:#000000;stroke-width:2.0px;stroke-linecap:butt;stroke-linejoin:miter;stroke-opacity:1"/>
<path class="bond-3 atom-3 atom-4" d="M 143.2,907.2 L 153.0,877.8" style="fill:none;fill-rule:evenodd;stroke:#000000;stroke-width:2.0px;stroke-linecap:butt;stroke-linejoin:miter;stroke-opacity:1"/>
<path class="bond-4 atom-4 atom-5" d="M 148.7,873.0 L 185.4,865.5" style="fill:none;fill-rule:evenodd;stroke:#000000;stroke-width:2.0px;stroke-linecap:butt;stroke-linejoin:miter;stroke-opacity:1"/>
<path class="bond-5 atom-3 atom-6" d="M 136.8,908.5 L 161.7,936.5" style="fill:none;fill-rule:evenodd;stroke:#000000;stroke-width:2.0px;stroke-linecap:butt;stroke-linejoin:miter;stroke-opacity:1"/>
<path class="bond-6 atom-6 atom-7" d="M 161.7,936.5 L 198.3,929.0" style="fill:none;fill-rule:evenodd;stroke:#000000;stroke-width:2.0px;stroke-linecap:butt;stroke-linejoin:miter;stroke-opacity:1"/>
<path class="bond-6 atom-6 atom-7" d="M 163.7,930.4 L 194.0,924.2" style="fill:none;fill-rule:evenodd;stroke:#000000;stroke-width:2.0px;stroke-linecap:butt;stroke-linejoin:miter;stroke-opacity:1"/>
<path class="bond-7 atom-7 atom-8" d="M 198.3,929.0 L 210.2,893.5" style="fill:none;fill-rule:evenodd;stroke:#000000;stroke-width:2.0px;stroke-linecap:butt;stroke-linejoin:miter;stroke-opacity:1"/>
<path class="bond-8 atom-8 atom-9" d="M 210.2,893.5 L 225.9,890.3" style="fill:none;fill-rule:evenodd;stroke:#000000;stroke-width:2.0px;stroke-linecap:butt;stroke-linejoin:miter;stroke-opacity:1"/>
<path class="bond-8 atom-8 atom-9" d="M 225.9,890.3 L 241.6,887.1" style="fill:none;fill-rule:evenodd;stroke:#0000FF;stroke-width:2.0px;stroke-linecap:butt;stroke-linejoin:miter;stroke-opacity:1"/>
<path class="bond-9 atom-9 atom-10" d="M 252.2,891.9 L 266.5,908.1" style="fill:none;fill-rule:evenodd;stroke:#0000FF;stroke-width:2.0px;stroke-linecap:butt;stroke-linejoin:miter;stroke-opacity:1"/>
<path class="bond-9 atom-9 atom-10" d="M 249.7,897.6 L 262.3,911.8" style="fill:none;fill-rule:evenodd;stroke:#0000FF;stroke-width:2.0px;stroke-linecap:butt;stroke-linejoin:miter;stroke-opacity:1"/>
<path class="bond-10 atom-10 atom-11" d="M 277.0,912.9 L 292.7,909.7" style="fill:none;fill-rule:evenodd;stroke:#0000FF;stroke-width:2.0px;stroke-linecap:butt;stroke-linejoin:miter;stroke-opacity:1"/>
<path class="bond-10 atom-10 atom-11" d="M 292.7,909.7 L 308.4,906.5" style="fill:none;fill-rule:evenodd;stroke:#000000;stroke-width:2.0px;stroke-linecap:butt;stroke-linejoin:miter;stroke-opacity:1"/>
<path class="bond-11 atom-11 atom-12" d="M 308.4,906.5 L 333.3,934.5" style="fill:none;fill-rule:evenodd;stroke:#000000;stroke-width:2.0px;stroke-linecap:butt;stroke-linejoin:miter;stroke-opacity:1"/>
<path class="bond-11 atom-11 atom-12" d="M 314.8,905.2 L 335.3,928.4" style="fill:none;fill-rule:evenodd;stroke:#000000;stroke-width:2.0px;stroke-linecap:butt;stroke-linejoin:miter;stroke-opacity:1"/>
<path class="bond-12 atom-12 atom-13" d="M 333.3,934.5 L 370.0,927.0" style="fill:none;fill-rule:evenodd;stroke:#000000;stroke-width:2.0px;stroke-linecap:butt;stroke-linejoin:miter;stroke-opacity:1"/>
<path class="bond-13 atom-13 atom-14" d="M 370.0,927.0 L 381.8,891.5" style="fill:none;fill-rule:evenodd;stroke:#000000;stroke-width:2.0px;stroke-linecap:butt;stroke-linejoin:miter;stroke-opacity:1"/>
<path class="bond-13 atom-13 atom-14" d="M 365.7,922.2 L 375.5,892.8" style="fill:none;fill-rule:evenodd;stroke:#000000;stroke-width:2.0px;stroke-linecap:butt;stroke-linejoin:miter;stroke-opacity:1"/>
<path class="bond-14 atom-14 atom-15" d="M 381.8,891.5 L 357.0,863.5" style="fill:none;fill-rule:evenodd;stroke:#000000;stroke-width:2.0px;stroke-linecap:butt;stroke-linejoin:miter;stroke-opacity:1"/>
<path class="bond-15 atom-15 atom-16" d="M 357.0,863.5 L 320.3,871.0" style="fill:none;fill-rule:evenodd;stroke:#000000;stroke-width:2.0px;stroke-linecap:butt;stroke-linejoin:miter;stroke-opacity:1"/>
<path class="bond-15 atom-15 atom-16" d="M 354.9,869.6 L 324.6,875.8" style="fill:none;fill-rule:evenodd;stroke:#000000;stroke-width:2.0px;stroke-linecap:butt;stroke-linejoin:miter;stroke-opacity:1"/>
<path class="bond-16 atom-8 atom-5" d="M 210.2,893.5 L 185.4,865.5" style="fill:none;fill-rule:evenodd;stroke:#000000;stroke-width:2.0px;stroke-linecap:butt;stroke-linejoin:miter;stroke-opacity:1"/>
<path class="bond-16 atom-8 atom-5" d="M 203.8,894.8 L 183.3,871.6" style="fill:none;fill-rule:evenodd;stroke:#000000;stroke-width:2.0px;stroke-linecap:butt;stroke-linejoin:miter;stroke-opacity:1"/>
<path class="bond-17 atom-16 atom-11" d="M 320.3,871.0 L 308.4,906.5" style="fill:none;fill-rule:evenodd;stroke:#000000;stroke-width:2.0px;stroke-linecap:butt;stroke-linejoin:miter;stroke-opacity:1"/>
<path d="M 74.7,888.1 L 75.3,887.9 L 76.5,889.3" style="fill:none;stroke:#000000;stroke-width:2.0px;stroke-linecap:butt;stroke-linejoin:miter;stroke-opacity:1;"/>
<path d="M 98.9,914.6 L 100.1,916.0 L 102.0,915.6" style="fill:none;stroke:#000000;stroke-width:2.0px;stroke-linecap:butt;stroke-linejoin:miter;stroke-opacity:1;"/>
<path d="M 148.1,874.7 L 148.7,873.0 L 150.5,872.6" style="fill:none;stroke:#000000;stroke-width:2.0px;stroke-linecap:butt;stroke-linejoin:miter;stroke-opacity:1;"/>
<path d="M 183.5,865.8 L 185.4,865.5 L 186.6,866.9" style="fill:none;stroke:#000000;stroke-width:2.0px;stroke-linecap:butt;stroke-linejoin:miter;stroke-opacity:1;"/>
<path d="M 160.4,935.1 L 161.7,936.5 L 163.5,936.1" style="fill:none;stroke:#000000;stroke-width:2.0px;stroke-linecap:butt;stroke-linejoin:miter;stroke-opacity:1;"/>
<path d="M 196.5,929.4 L 198.3,929.0 L 198.9,927.2" style="fill:none;stroke:#000000;stroke-width:2.0px;stroke-linecap:butt;stroke-linejoin:miter;stroke-opacity:1;"/>
<path d="M 332.0,933.1 L 333.3,934.5 L 335.1,934.2" style="fill:none;stroke:#000000;stroke-width:2.0px;stroke-linecap:butt;stroke-linejoin:miter;stroke-opacity:1;"/>
<path d="M 368.1,927.4 L 370.0,927.0 L 370.6,925.3" style="fill:none;stroke:#000000;stroke-width:2.0px;stroke-linecap:butt;stroke-linejoin:miter;stroke-opacity:1;"/>
<path d="M 381.2,893.3 L 381.8,891.5 L 380.6,890.1" style="fill:none;stroke:#000000;stroke-width:2.0px;stroke-linecap:butt;stroke-linejoin:miter;stroke-opacity:1;"/>
<path d="M 358.2,864.9 L 357.0,863.5 L 355.1,863.9" style="fill:none;stroke:#000000;stroke-width:2.0px;stroke-linecap:butt;stroke-linejoin:miter;stroke-opacity:1;"/>
<path d="M 322.1,870.6 L 320.3,871.0 L 319.7,872.8" style="fill:none;stroke:#000000;stroke-width:2.0px;stroke-linecap:butt;stroke-linejoin:miter;stroke-opacity:1;"/>
<path class="atom-0" d="M 18.2 890.1 L 19.6 890.1 L 19.6 894.6 L 25.0 894.6 L 25.0 890.1 L 26.5 890.1 L 26.5 900.7 L 25.0 900.7 L 25.0 895.8 L 19.6 895.8 L 19.6 900.7 L 18.2 900.7 L 18.2 890.1 " fill="#0000FF"/>
<path class="atom-0" d="M 31.9 902.4 Q 32.6 902.6, 32.9 903.0 Q 33.2 903.4, 33.2 904.1 Q 33.2 904.7, 32.9 905.2 Q 32.6 905.6, 32.1 905.9 Q 31.5 906.1, 30.8 906.1 Q 30.1 906.1, 29.5 905.9 Q 29.0 905.6, 28.5 905.1 L 29.1 904.5 Q 29.5 905.0, 29.9 905.2 Q 30.2 905.4, 30.8 905.4 Q 31.5 905.4, 31.8 905.0 Q 32.2 904.7, 32.2 904.1 Q 32.2 903.4, 31.8 903.1 Q 31.4 902.8, 30.6 902.8 L 30.1 902.8 L 30.1 902.1 L 30.5 902.1 Q 31.3 902.0, 31.7 901.7 Q 32.1 901.4, 32.1 900.8 Q 32.1 900.3, 31.7 900.0 Q 31.4 899.8, 30.8 899.8 Q 30.3 899.8, 29.9 900.0 Q 29.5 900.2, 29.3 900.7 L 28.6 900.3 Q 28.8 899.7, 29.4 899.4 Q 30.0 899.0, 30.8 899.0 Q 31.9 899.0, 32.5 899.5 Q 33.1 899.9, 33.1 900.8 Q 33.1 901.3, 32.8 901.7 Q 32.5 902.1, 31.9 902.4 " fill="#0000FF"/>
<path class="atom-0" d="M 36.2 890.1 L 39.7 895.8 Q 40.1 896.3, 40.6 897.3 Q 41.2 898.3, 41.2 898.4 L 41.2 890.1 L 42.6 890.1 L 42.6 900.7 L 41.2 900.7 L 37.4 894.6 Q 37.0 893.9, 36.5 893.1 Q 36.1 892.2, 35.9 892.0 L 35.9 900.7 L 34.6 900.7 L 34.6 890.1 L 36.2 890.1 " fill="#0000FF"/>
<path class="atom-0" d="M 44.6 892.1 L 46.5 892.1 L 46.5 890.1 L 47.3 890.1 L 47.3 892.1 L 49.2 892.1 L 49.2 892.8 L 47.3 892.8 L 47.3 894.7 L 46.5 894.7 L 46.5 892.8 L 44.6 892.8 L 44.6 892.1 " fill="#0000FF"/>
<path class="atom-9" d="M 244.6 880.7 L 248.0 886.3 Q 248.4 886.9, 248.9 887.9 Q 249.5 888.9, 249.5 888.9 L 249.5 880.7 L 250.9 880.7 L 250.9 891.3 L 249.5 891.3 L 245.7 885.1 Q 245.3 884.4, 244.8 883.6 Q 244.4 882.8, 244.3 882.5 L 244.3 891.3 L 242.9 891.3 L 242.9 880.7 L 244.6 880.7 " fill="#0000FF"/>
<path class="atom-10" d="M 269.4 908.7 L 272.9 914.3 Q 273.2 914.9, 273.8 915.9 Q 274.3 916.9, 274.4 917.0 L 274.4 908.7 L 275.8 908.7 L 275.8 919.3 L 274.3 919.3 L 270.6 913.2 Q 270.1 912.5, 269.7 911.6 Q 269.2 910.8, 269.1 910.6 L 269.1 919.3 L 267.7 919.3 L 267.7 908.7 L 269.4 908.7 " fill="#0000FF"/>
<path class="bond-0 atom-0 atom-1" d="M 505.8,880.5 L 517.2,875.8" style="fill:none;fill-rule:evenodd;stroke:#0000FF;stroke-width:2.0px;stroke-linecap:butt;stroke-linejoin:miter;stroke-opacity:1"/>
<path class="bond-0 atom-0 atom-1" d="M 517.2,875.8 L 528.6,871.2" style="fill:none;fill-rule:evenodd;stroke:#000000;stroke-width:2.0px;stroke-linecap:butt;stroke-linejoin:miter;stroke-opacity:1"/>
<path class="bond-1 atom-1 atom-2" d="M 528.6,871.2 L 558.2,894.1" style="fill:none;fill-rule:evenodd;stroke:#000000;stroke-width:2.0px;stroke-linecap:butt;stroke-linejoin:miter;stroke-opacity:1"/>
<path class="bond-2 atom-2 atom-3" d="M 558.2,894.1 L 572.5,888.2" style="fill:none;fill-rule:evenodd;stroke:#000000;stroke-width:2.0px;stroke-linecap:butt;stroke-linejoin:miter;stroke-opacity:1"/>
<path class="bond-2 atom-2 atom-3" d="M 572.5,888.2 L 586.8,882.4" style="fill:none;fill-rule:evenodd;stroke:#FF0000;stroke-width:2.0px;stroke-linecap:butt;stroke-linejoin:miter;stroke-opacity:1"/>
<path class="bond-3 atom-3 atom-4" d="M 599.0,884.6 L 610.7,893.7" style="fill:none;fill-rule:evenodd;stroke:#FF0000;stroke-width:2.0px;stroke-linecap:butt;stroke-linejoin:miter;stroke-opacity:1"/>
<path class="bond-3 atom-3 atom-4" d="M 610.7,893.7 L 622.5,902.8" style="fill:none;fill-rule:evenodd;stroke:#000000;stroke-width:2.0px;stroke-linecap:butt;stroke-linejoin:miter;stroke-opacity:1"/>
<path class="bond-4 atom-4 atom-5" d="M 622.5,902.8 L 617.5,939.9" style="fill:none;fill-rule:evenodd;stroke:#000000;stroke-width:2.0px;stroke-linecap:butt;stroke-linejoin:miter;stroke-opacity:1"/>
<path class="bond-4 atom-4 atom-5" d="M 627.6,906.7 L 623.5,937.4" style="fill:none;fill-rule:evenodd;stroke:#000000;stroke-width:2.0px;stroke-linecap:butt;stroke-linejoin:miter;stroke-opacity:1"/>
<path class="bond-5 atom-5 atom-6" d="M 617.5,939.9 L 647.1,962.8" style="fill:none;fill-rule:evenodd;stroke:#000000;stroke-width:2.0px;stroke-linecap:butt;stroke-linejoin:miter;stroke-opacity:1"/>
<path class="bond-6 atom-6 atom-7" d="M 647.1,962.8 L 681.8,948.6" style="fill:none;fill-rule:evenodd;stroke:#000000;stroke-width:2.0px;stroke-linecap:butt;stroke-linejoin:miter;stroke-opacity:1"/>
<path class="bond-6 atom-6 atom-7" d="M 648.0,956.4 L 676.7,944.6" style="fill:none;fill-rule:evenodd;stroke:#000000;stroke-width:2.0px;stroke-linecap:butt;stroke-linejoin:miter;stroke-opacity:1"/>
<path class="bond-7 atom-7 atom-8" d="M 681.8,948.6 L 686.8,911.5" style="fill:none;fill-rule:evenodd;stroke:#000000;stroke-width:2.0px;stroke-linecap:butt;stroke-linejoin:miter;stroke-opacity:1"/>
<path class="bond-8 atom-8 atom-9" d="M 686.8,911.5 L 721.4,897.2" style="fill:none;fill-rule:evenodd;stroke:#000000;stroke-width:2.0px;stroke-linecap:butt;stroke-linejoin:miter;stroke-opacity:1"/>
<path class="bond-8 atom-8 atom-9" d="M 687.7,905.0 L 716.3,893.3" style="fill:none;fill-rule:evenodd;stroke:#000000;stroke-width:2.0px;stroke-linecap:butt;stroke-linejoin:miter;stroke-opacity:1"/>
<path class="bond-9 atom-9 atom-10" d="M 721.4,897.2 L 726.5,860.1" style="fill:none;fill-rule:evenodd;stroke:#000000;stroke-width:2.0px;stroke-linecap:butt;stroke-linejoin:miter;stroke-opacity:1"/>
<path class="bond-10 atom-10 atom-11" d="M 726.5,860.1 L 696.8,837.2" style="fill:none;fill-rule:evenodd;stroke:#000000;stroke-width:2.0px;stroke-linecap:butt;stroke-linejoin:miter;stroke-opacity:1"/>
<path class="bond-10 atom-10 atom-11" d="M 720.5,862.6 L 696.0,843.6" style="fill:none;fill-rule:evenodd;stroke:#000000;stroke-width:2.0px;stroke-linecap:butt;stroke-linejoin:miter;stroke-opacity:1"/>
<path class="bond-11 atom-11 atom-12" d="M 696.8,837.2 L 662.2,851.4" style="fill:none;fill-rule:evenodd;stroke:#000000;stroke-width:2.0px;stroke-linecap:butt;stroke-linejoin:miter;stroke-opacity:1"/>
<path class="bond-12 atom-12 atom-13" d="M 662.2,851.4 L 657.2,888.5" style="fill:none;fill-rule:evenodd;stroke:#000000;stroke-width:2.0px;stroke-linecap:butt;stroke-linejoin:miter;stroke-opacity:1"/>
<path class="bond-12 atom-12 atom-13" d="M 667.3,855.4 L 663.2,886.1" style="fill:none;fill-rule:evenodd;stroke:#000000;stroke-width:2.0px;stroke-linecap:butt;stroke-linejoin:miter;stroke-opacity:1"/>
<path class="bond-13 atom-13 atom-4" d="M 657.2,888.5 L 622.5,902.8" style="fill:none;fill-rule:evenodd;stroke:#000000;stroke-width:2.0px;stroke-linecap:butt;stroke-linejoin:miter;stroke-opacity:1"/>
<path class="bond-14 atom-13 atom-8" d="M 657.2,888.5 L 686.8,911.5" style="fill:none;fill-rule:evenodd;stroke:#000000;stroke-width:2.0px;stroke-linecap:butt;stroke-linejoin:miter;stroke-opacity:1"/>
<path d="M 528.0,871.4 L 528.6,871.2 L 530.1,872.3" style="fill:none;stroke:#000000;stroke-width:2.0px;stroke-linecap:butt;stroke-linejoin:miter;stroke-opacity:1;"/>
<path d="M 556.7,892.9 L 558.2,894.1 L 558.9,893.8" style="fill:none;stroke:#000000;stroke-width:2.0px;stroke-linecap:butt;stroke-linejoin:miter;stroke-opacity:1;"/>
<path d="M 617.8,938.0 L 617.5,939.9 L 619.0,941.0" style="fill:none;stroke:#000000;stroke-width:2.0px;stroke-linecap:butt;stroke-linejoin:miter;stroke-opacity:1;"/>
<path d="M 645.7,961.6 L 647.1,962.8 L 648.9,962.1" style="fill:none;stroke:#000000;stroke-width:2.0px;stroke-linecap:butt;stroke-linejoin:miter;stroke-opacity:1;"/>
<path d="M 680.1,949.3 L 681.8,948.6 L 682.0,946.7" style="fill:none;stroke:#000000;stroke-width:2.0px;stroke-linecap:butt;stroke-linejoin:miter;stroke-opacity:1;"/>
<path d="M 719.7,897.9 L 721.4,897.2 L 721.7,895.4" style="fill:none;stroke:#000000;stroke-width:2.0px;stroke-linecap:butt;stroke-linejoin:miter;stroke-opacity:1;"/>
<path d="M 726.2,862.0 L 726.5,860.1 L 725.0,859.0" style="fill:none;stroke:#000000;stroke-width:2.0px;stroke-linecap:butt;stroke-linejoin:miter;stroke-opacity:1;"/>
<path d="M 698.3,838.4 L 696.8,837.2 L 695.1,837.9" style="fill:none;stroke:#000000;stroke-width:2.0px;stroke-linecap:butt;stroke-linejoin:miter;stroke-opacity:1;"/>
<path d="M 663.9,850.7 L 662.2,851.4 L 661.9,853.3" style="fill:none;stroke:#000000;stroke-width:2.0px;stroke-linecap:butt;stroke-linejoin:miter;stroke-opacity:1;"/>
<path class="atom-0" d="M 473.5 880.1 L 475.0 880.1 L 475.0 884.6 L 480.4 884.6 L 480.4 880.1 L 481.8 880.1 L 481.8 890.7 L 480.4 890.7 L 480.4 885.8 L 475.0 885.8 L 475.0 890.7 L 473.5 890.7 L 473.5 880.1 " fill="#0000FF"/>
<path class="atom-0" d="M 487.2 892.3 Q 487.9 892.5, 488.2 893.0 Q 488.6 893.4, 488.6 894.1 Q 488.6 894.7, 488.3 895.1 Q 488.0 895.6, 487.4 895.9 Q 486.9 896.1, 486.2 896.1 Q 485.4 896.1, 484.9 895.8 Q 484.3 895.6, 483.9 895.0 L 484.4 894.5 Q 484.9 894.9, 485.2 895.1 Q 485.6 895.3, 486.2 895.3 Q 486.8 895.3, 487.2 895.0 Q 487.6 894.6, 487.6 894.1 Q 487.6 893.4, 487.2 893.0 Q 486.8 892.7, 485.9 892.7 L 485.4 892.7 L 485.4 892.0 L 485.9 892.0 Q 486.6 892.0, 487.0 891.7 Q 487.4 891.3, 487.4 890.7 Q 487.4 890.3, 487.1 890.0 Q 486.8 889.7, 486.2 889.7 Q 485.6 889.7, 485.2 889.9 Q 484.9 890.1, 484.6 890.7 L 483.9 890.3 Q 484.2 889.7, 484.8 889.3 Q 485.4 888.9, 486.2 888.9 Q 487.2 888.9, 487.8 889.4 Q 488.4 889.9, 488.4 890.7 Q 488.4 891.3, 488.1 891.7 Q 487.8 892.1, 487.2 892.3 " fill="#0000FF"/>
<path class="atom-0" d="M 491.6 880.1 L 495.1 885.7 Q 495.4 886.3, 496.0 887.3 Q 496.5 888.3, 496.6 888.3 L 496.6 880.1 L 498.0 880.1 L 498.0 890.7 L 496.5 890.7 L 492.8 884.6 Q 492.4 883.8, 491.9 883.0 Q 491.4 882.2, 491.3 881.9 L 491.3 890.7 L 489.9 890.7 L 489.9 880.1 L 491.6 880.1 " fill="#0000FF"/>
<path class="atom-0" d="M 500.0 882.0 L 501.8 882.0 L 501.8 880.0 L 502.7 880.0 L 502.7 882.0 L 504.6 882.0 L 504.6 882.7 L 502.7 882.7 L 502.7 884.7 L 501.8 884.7 L 501.8 882.7 L 500.0 882.7 L 500.0 882.0 " fill="#0000FF"/>
<path class="atom-3" d="M 588.0 879.9 Q 588.0 877.3, 589.3 875.9 Q 590.5 874.5, 592.9 874.5 Q 595.2 874.5, 596.5 875.9 Q 597.7 877.3, 597.7 879.9 Q 597.7 882.5, 596.5 883.9 Q 595.2 885.4, 592.9 885.4 Q 590.5 885.4, 589.3 883.9 Q 588.0 882.5, 588.0 879.9 M 592.9 884.2 Q 594.5 884.2, 595.4 883.1 Q 596.3 882.0, 596.3 879.9 Q 596.3 877.8, 595.4 876.8 Q 594.5 875.7, 592.9 875.7 Q 591.3 875.7, 590.4 876.7 Q 589.5 877.8, 589.5 879.9 Q 589.5 882.0, 590.4 883.1 Q 591.3 884.2, 592.9 884.2 " fill="#FF0000"/>
<path class="bond-0 atom-0 atom-1" d="M 915.1,906.7 L 929.7,900.5" style="fill:none;fill-rule:evenodd;stroke:#0000FF;stroke-width:2.0px;stroke-linecap:butt;stroke-linejoin:miter;stroke-opacity:1"/>
<path class="bond-0 atom-0 atom-1" d="M 929.7,900.5 L 944.3,894.3" style="fill:none;fill-rule:evenodd;stroke:#000000;stroke-width:2.0px;stroke-linecap:butt;stroke-linejoin:miter;stroke-opacity:1"/>
<path class="bond-0 atom-0 atom-1" d="M 912.9,901.6 L 927.5,895.3" style="fill:none;fill-rule:evenodd;stroke:#0000FF;stroke-width:2.0px;stroke-linecap:butt;stroke-linejoin:miter;stroke-opacity:1"/>
<path class="bond-0 atom-0 atom-1" d="M 927.5,895.3 L 942.1,889.1" style="fill:none;fill-rule:evenodd;stroke:#000000;stroke-width:2.0px;stroke-linecap:butt;stroke-linejoin:miter;stroke-opacity:1"/>
<path class="bond-0 atom-0 atom-1" d="M 917.3,911.9 L 931.9,905.7" style="fill:none;fill-rule:evenodd;stroke:#0000FF;stroke-width:2.0px;stroke-linecap:butt;stroke-linejoin:miter;stroke-opacity:1"/>
<path class="bond-0 atom-0 atom-1" d="M 931.9,905.7 L 946.5,899.4" style="fill:none;fill-rule:evenodd;stroke:#000000;stroke-width:2.0px;stroke-linecap:butt;stroke-linejoin:miter;stroke-opacity:1"/>
<path class="bond-1 atom-1 atom-2" d="M 944.3,894.3 L 978.7,879.5" style="fill:none;fill-rule:evenodd;stroke:#000000;stroke-width:2.0px;stroke-linecap:butt;stroke-linejoin:miter;stroke-opacity:1"/>
<path class="bond-2 atom-2 atom-3" d="M 978.7,879.5 L 1008.7,902.0" style="fill:none;fill-rule:evenodd;stroke:#000000;stroke-width:2.0px;stroke-linecap:butt;stroke-linejoin:miter;stroke-opacity:1"/>
<path class="bond-3 atom-3 atom-4" d="M 1008.7,902.0 L 1043.1,887.3" style="fill:none;fill-rule:evenodd;stroke:#000000;stroke-width:2.0px;stroke-linecap:butt;stroke-linejoin:miter;stroke-opacity:1"/>
<path class="bond-4 atom-4 atom-5" d="M 1043.1,887.3 L 1055.5,896.5" style="fill:none;fill-rule:evenodd;stroke:#000000;stroke-width:2.0px;stroke-linecap:butt;stroke-linejoin:miter;stroke-opacity:1"/>
<path class="bond-4 atom-4 atom-5" d="M 1055.5,896.5 L 1067.8,905.8" style="fill:none;fill-rule:evenodd;stroke:#0000FF;stroke-width:2.0px;stroke-linecap:butt;stroke-linejoin:miter;stroke-opacity:1"/>
<path d="M 943.6,894.6 L 944.3,894.3 L 946.0,893.5" style="fill:none;stroke:#000000;stroke-width:2.0px;stroke-linecap:butt;stroke-linejoin:miter;stroke-opacity:1;"/>
<path d="M 977.0,880.3 L 978.7,879.5 L 980.2,880.7" style="fill:none;stroke:#000000;stroke-width:2.0px;stroke-linecap:butt;stroke-linejoin:miter;stroke-opacity:1;"/>
<path d="M 1007.2,900.9 L 1008.7,902.0 L 1010.4,901.3" style="fill:none;stroke:#000000;stroke-width:2.0px;stroke-linecap:butt;stroke-linejoin:miter;stroke-opacity:1;"/>
<path d="M 1041.4,888.0 L 1043.1,887.3 L 1043.8,887.8" style="fill:none;stroke:#000000;stroke-width:2.0px;stroke-linecap:butt;stroke-linejoin:miter;stroke-opacity:1;"/>
<path class="atom-0" d="M 907.5 903.7 L 911.0 909.3 Q 911.3 909.8, 911.9 910.9 Q 912.4 911.9, 912.5 911.9 L 912.5 903.7 L 913.9 903.7 L 913.9 914.3 L 912.4 914.3 L 908.7 908.1 Q 908.3 907.4, 907.8 906.6 Q 907.3 905.8, 907.2 905.5 L 907.2 914.3 L 905.8 914.3 L 905.8 903.7 L 907.5 903.7 " fill="#0000FF"/>
<path class="atom-5" d="M 1070.8 904.5 L 1074.2 910.1 Q 1074.6 910.6, 1075.1 911.6 Q 1075.7 912.6, 1075.7 912.7 L 1075.7 904.5 L 1077.1 904.5 L 1077.1 915.1 L 1075.7 915.1 L 1071.9 908.9 Q 1071.5 908.2, 1071.0 907.4 Q 1070.6 906.5, 1070.5 906.3 L 1070.5 915.1 L 1069.1 915.1 L 1069.1 904.5 L 1070.8 904.5 " fill="#0000FF"/>
<path class="atom-5" d="M 1079.1 904.5 L 1080.6 904.5 L 1080.6 909.0 L 1086.0 909.0 L 1086.0 904.5 L 1087.4 904.5 L 1087.4 915.1 L 1086.0 915.1 L 1086.0 910.2 L 1080.6 910.2 L 1080.6 915.1 L 1079.1 915.1 L 1079.1 904.5 " fill="#0000FF"/>
<path class="atom-5" d="M 1092.8 916.7 Q 1093.5 916.9, 1093.8 917.3 Q 1094.2 917.7, 1094.2 918.4 Q 1094.2 919.0, 1093.9 919.5 Q 1093.6 920.0, 1093.0 920.2 Q 1092.5 920.5, 1091.8 920.5 Q 1091.0 920.5, 1090.5 920.2 Q 1089.9 919.9, 1089.5 919.4 L 1090.0 918.8 Q 1090.5 919.3, 1090.8 919.5 Q 1091.2 919.7, 1091.8 919.7 Q 1092.4 919.7, 1092.8 919.3 Q 1093.2 919.0, 1093.2 918.4 Q 1093.2 917.7, 1092.8 917.4 Q 1092.4 917.1, 1091.5 917.1 L 1091.0 917.1 L 1091.0 916.4 L 1091.5 916.4 Q 1092.2 916.4, 1092.6 916.0 Q 1093.0 915.7, 1093.0 915.1 Q 1093.0 914.6, 1092.7 914.3 Q 1092.4 914.1, 1091.8 914.1 Q 1091.2 914.1, 1090.8 914.3 Q 1090.5 914.5, 1090.2 915.0 L 1089.5 914.6 Q 1089.8 914.1, 1090.4 913.7 Q 1091.0 913.3, 1091.8 913.3 Q 1092.8 913.3, 1093.4 913.8 Q 1094.0 914.2, 1094.0 915.1 Q 1094.0 915.6, 1093.7 916.0 Q 1093.4 916.4, 1092.8 916.7 " fill="#0000FF"/>
<path class="atom-5" d="M 1089.5 906.4 L 1091.4 906.4 L 1091.4 904.4 L 1092.2 904.4 L 1092.2 906.4 L 1094.1 906.4 L 1094.1 907.1 L 1092.2 907.1 L 1092.2 909.1 L 1091.4 909.1 L 1091.4 907.1 L 1089.5 907.1 L 1089.5 906.4 " fill="#0000FF"/>
</svg>