<svg xmlns="http://www.w3.org/2000/svg" xmlns:rdkit="http://www.rdkit.org/xml" xmlns:xlink="http://www.w3.org/1999/xlink" version="1.1" baseProfile="full" xml:space="preserve" width="800px" height="1000px" viewBox="0 0 800 1000">
<!-- END OF HEADER -->
<rect style="opacity:1.0;fill:#FFFFFF;stroke:none" width="800.0" height="1000.0" x="0.0" y="0.0"> </rect>
<path class="bond-0 atom-0 atom-1" d="M 231.3,100.0 L 218.8,100.0" style="fill:none;fill-rule:evenodd;stroke:#0000FF;stroke-width:2.0px;stroke-linecap:butt;stroke-linejoin:miter;stroke-opacity:1"/>
<path class="bond-0 atom-0 atom-1" d="M 218.8,100.0 L 206.4,100.0" style="fill:none;fill-rule:evenodd;stroke:#000000;stroke-width:2.0px;stroke-linecap:butt;stroke-linejoin:miter;stroke-opacity:1"/>
<path class="bond-1 atom-1 atom-2" d="M 206.4,100.0 L 191.8,125.1" style="fill:none;fill-rule:evenodd;stroke:#000000;stroke-width:2.0px;stroke-linecap:butt;stroke-linejoin:miter;stroke-opacity:1"/>
<path class="bond-1 atom-1 atom-2" d="M 201.3,100.0 L 189.3,120.8" style="fill:none;fill-rule:evenodd;stroke:#000000;stroke-width:2.0px;stroke-linecap:butt;stroke-linejoin:miter;stroke-opacity:1"/>
<path class="bond-2 atom-2 atom-3" d="M 191.8,125.1 L 162.8,125.1" style="fill:none;fill-rule:evenodd;stroke:#000000;stroke-width:2.0px;stroke-linecap:butt;stroke-linejoin:miter;stroke-opacity:1"/>
<path class="bond-3 atom-3 atom-4" d="M 162.8,125.1 L 148.3,100.0" style="fill:none;fill-rule:evenodd;stroke:#000000;stroke-width:2.0px;stroke-linecap:butt;stroke-linejoin:miter;stroke-opacity:1"/>
<path class="bond-3 atom-3 atom-4" d="M 165.3,120.8 L 153.3,100.0" style="fill:none;fill-rule:evenodd;stroke:#000000;stroke-width:2.0px;stroke-linecap:butt;stroke-linejoin:miter;stroke-opacity:1"/>
<path class="bond-4 atom-4 atom-5" d="M 148.3,100.0 L 162.8,74.9" style="fill:none;fill-rule:evenodd;stroke:#000000;stroke-width:2.0px;stroke-linecap:butt;stroke-linejoin:miter;stroke-opacity:1"/>
<path class="bond-5 atom-5 atom-6" d="M 162.8,74.9 L 191.8,74.9" style="fill:none;fill-rule:evenodd;stroke:#000000;stroke-width:2.0px;stroke-linecap:butt;stroke-linejoin:miter;stroke-opacity:1"/>
<path class="bond-5 atom-5 atom-6" d="M 165.3,79.2 L 189.3,79.2" style="fill:none;fill-rule:evenodd;stroke:#000000;stroke-width:2.0px;stroke-linecap:butt;stroke-linejoin:miter;stroke-opacity:1"/>
<path class="bond-6 atom-6 atom-1" d="M 191.8,74.9 L 206.4,100.0" style="fill:none;fill-rule:evenodd;stroke:#000000;stroke-width:2.0px;stroke-linecap:butt;stroke-linejoin:miter;stroke-opacity:1"/>
<path d="M 192.6,123.9 L 191.8,125.1 L 190.4,125.1" style="fill:none;stroke:#000000;stroke-width:2.0px;stroke-linecap:butt;stroke-linejoin:miter;stroke-opacity:1;"/>
<path d="M 164.3,125.1 L 162.8,125.1 L 162.1,123.9" style="fill:none;stroke:#000000;stroke-width:2.0px;stroke-linecap:butt;stroke-linejoin:miter;stroke-opacity:1;"/>
<path d="M 149.0,101.3 L 148.3,100.0 L 149.0,98.7" style="fill:none;stroke:#000000;stroke-width:2.0px;stroke-linecap:butt;stroke-linejoin:miter;stroke-opacity:1;"/>
<path d="M 162.1,76.1 L 162.8,74.9 L 164.3,74.9" style="fill:none;stroke:#000000;stroke-width:2.0px;stroke-linecap:butt;stroke-linejoin:miter;stroke-opacity:1;"/>
<path d="M 190.4,74.9 L 191.8,74.9 L 192.6,76.1" style="fill:none;stroke:#000000;stroke-width:2.0px;stroke-linecap:butt;stroke-linejoin:miter;stroke-opacity:1;"/>
<path class="atom-0" d="M 233.6 95.9 L 236.3 100.2 Q 236.5 100.7, 237.0 101.5 Q 237.4 102.2, 237.4 102.3 L 237.4 95.9 L 238.5 95.9 L 238.5 104.1 L 237.4 104.1 L 234.5 99.3 Q 234.1 98.8, 233.8 98.2 Q 233.4 97.5, 233.3 97.3 L 233.3 104.1 L 232.3 104.1 L 232.3 95.9 L 233.6 95.9 " fill="#0000FF"/>
<path class="atom-0" d="M 240.1 95.9 L 241.2 95.9 L 241.2 99.4 L 245.4 99.4 L 245.4 95.9 L 246.5 95.9 L 246.5 104.1 L 245.4 104.1 L 245.4 100.3 L 241.2 100.3 L 241.2 104.1 L 240.1 104.1 L 240.1 95.9 " fill="#0000FF"/>
<path class="atom-0" d="M 250.7 105.4 Q 251.2 105.5, 251.5 105.9 Q 251.7 106.2, 251.7 106.7 Q 251.7 107.2, 251.5 107.6 Q 251.3 107.9, 250.8 108.1 Q 250.4 108.3, 249.9 108.3 Q 249.3 108.3, 248.8 108.1 Q 248.4 107.9, 248.1 107.5 L 248.5 107.0 Q 248.8 107.4, 249.1 107.5 Q 249.4 107.7, 249.9 107.7 Q 250.3 107.7, 250.6 107.4 Q 250.9 107.2, 250.9 106.7 Q 250.9 106.2, 250.6 105.9 Q 250.3 105.7, 249.7 105.7 L 249.3 105.7 L 249.3 105.1 L 249.6 105.1 Q 250.2 105.1, 250.5 104.9 Q 250.8 104.6, 250.8 104.1 Q 250.8 103.8, 250.6 103.6 Q 250.3 103.3, 249.9 103.3 Q 249.4 103.3, 249.1 103.5 Q 248.9 103.7, 248.6 104.1 L 248.1 103.8 Q 248.3 103.3, 248.8 103.0 Q 249.2 102.7, 249.9 102.7 Q 250.7 102.7, 251.1 103.1 Q 251.6 103.5, 251.6 104.1 Q 251.6 104.6, 251.4 104.9 Q 251.1 105.2, 250.7 105.4 " fill="#0000FF"/>
<path class="atom-0" d="M 248.1 97.4 L 249.5 97.4 L 249.5 95.8 L 250.2 95.8 L 250.2 97.4 L 251.7 97.4 L 251.7 97.9 L 250.2 97.9 L 250.2 99.5 L 249.5 99.5 L 249.5 97.9 L 248.1 97.9 L 248.1 97.4 " fill="#0000FF"/>
<path class="bond-0 atom-0 atom-1" d="M 688.3,100.8 L 677.8,94.7" style="fill:none;fill-rule:evenodd;stroke:#0000FF;stroke-width:2.0px;stroke-linecap:butt;stroke-linejoin:miter;stroke-opacity:1"/>
<path class="bond-0 atom-0 atom-1" d="M 677.8,94.7 L 667.3,88.6" style="fill:none;fill-rule:evenodd;stroke:#000000;stroke-width:2.0px;stroke-linecap:butt;stroke-linejoin:miter;stroke-opacity:1"/>
<path class="bond-1 atom-1 atom-2" d="M 667.3,88.6 L 642.1,103.1" style="fill:none;fill-rule:evenodd;stroke:#000000;stroke-width:2.0px;stroke-linecap:butt;stroke-linejoin:miter;stroke-opacity:1"/>
<path class="bond-2 atom-2 atom-3" d="M 642.1,103.1 L 617.0,88.6" style="fill:none;fill-rule:evenodd;stroke:#000000;stroke-width:2.0px;stroke-linecap:butt;stroke-linejoin:miter;stroke-opacity:1"/>
<path class="bond-3 atom-3 atom-4" d="M 617.0,88.6 L 591.8,103.1" style="fill:none;fill-rule:evenodd;stroke:#000000;stroke-width:2.0px;stroke-linecap:butt;stroke-linejoin:miter;stroke-opacity:1"/>
<path class="bond-4 atom-4 atom-5" d="M 591.8,103.1 L 566.7,88.6" style="fill:none;fill-rule:evenodd;stroke:#000000;stroke-width:2.0px;stroke-linecap:butt;stroke-linejoin:miter;stroke-opacity:1"/>
<path class="bond-5 atom-5 atom-6" d="M 566.7,88.6 L 541.5,103.1" style="fill:none;fill-rule:evenodd;stroke:#000000;stroke-width:2.0px;stroke-linecap:butt;stroke-linejoin:miter;stroke-opacity:1"/>
<path class="bond-6 atom-6 atom-7" d="M 541.5,103.1 L 516.4,88.6" style="fill:none;fill-rule:evenodd;stroke:#000000;stroke-width:2.0px;stroke-linecap:butt;stroke-linejoin:miter;stroke-opacity:1"/>
<path class="bond-7 atom-7 atom-8" d="M 516.4,88.6 L 491.3,103.1" style="fill:none;fill-rule:evenodd;stroke:#000000;stroke-width:2.0px;stroke-linecap:butt;stroke-linejoin:miter;stroke-opacity:1"/>
<path d="M 667.8,88.9 L 667.3,88.6 L 666.0,89.3" style="fill:none;stroke:#000000;stroke-width:2.0px;stroke-linecap:butt;stroke-linejoin:miter;stroke-opacity:1;"/>
<path d="M 643.4,102.4 L 642.1,103.1 L 640.9,102.4" style="fill:none;stroke:#000000;stroke-width:2.0px;stroke-linecap:butt;stroke-linejoin:miter;stroke-opacity:1;"/>
<path d="M 618.2,89.3 L 617.0,88.6 L 615.7,89.3" style="fill:none;stroke:#000000;stroke-width:2.0px;stroke-linecap:butt;stroke-linejoin:miter;stroke-opacity:1;"/>
<path d="M 593.1,102.4 L 591.8,103.1 L 590.6,102.4" style="fill:none;stroke:#000000;stroke-width:2.0px;stroke-linecap:butt;stroke-linejoin:miter;stroke-opacity:1;"/>
<path d="M 567.9,89.3 L 566.7,88.6 L 565.4,89.3" style="fill:none;stroke:#000000;stroke-width:2.0px;stroke-linecap:butt;stroke-linejoin:miter;stroke-opacity:1;"/>
<path d="M 542.8,102.4 L 541.5,103.1 L 540.3,102.4" style="fill:none;stroke:#000000;stroke-width:2.0px;stroke-linecap:butt;stroke-linejoin:miter;stroke-opacity:1;"/>
<path d="M 517.7,89.3 L 516.4,88.6 L 515.2,89.3" style="fill:none;stroke:#000000;stroke-width:2.0px;stroke-linecap:butt;stroke-linejoin:miter;stroke-opacity:1;"/>
<path class="atom-0" d="M 690.6 99.0 L 693.3 103.4 Q 693.5 103.8, 694.0 104.6 Q 694.4 105.3, 694.4 105.4 L 694.4 99.0 L 695.5 99.0 L 695.5 107.2 L 694.4 107.2 L 691.5 102.5 Q 691.2 101.9, 690.8 101.3 Q 690.5 100.6, 690.4 100.4 L 690.4 107.2 L 689.3 107.2 L 689.3 99.0 L 690.6 99.0 " fill="#0000FF"/>
<path class="atom-0" d="M 697.1 99.0 L 698.2 99.0 L 698.2 102.5 L 702.4 102.5 L 702.4 99.0 L 703.5 99.0 L 703.5 107.2 L 702.4 107.2 L 702.4 103.4 L 698.2 103.4 L 698.2 107.2 L 697.1 107.2 L 697.1 99.0 " fill="#0000FF"/>
<path class="atom-0" d="M 707.7 108.5 Q 708.2 108.6, 708.5 109.0 Q 708.7 109.3, 708.7 109.8 Q 708.7 110.3, 708.5 110.7 Q 708.3 111.0, 707.9 111.2 Q 707.4 111.4, 706.9 111.4 Q 706.3 111.4, 705.9 111.2 Q 705.4 111.0, 705.1 110.6 L 705.5 110.1 Q 705.9 110.5, 706.1 110.7 Q 706.4 110.8, 706.9 110.8 Q 707.4 110.8, 707.7 110.5 Q 708.0 110.3, 708.0 109.8 Q 708.0 109.3, 707.7 109.0 Q 707.3 108.8, 706.7 108.8 L 706.3 108.8 L 706.3 108.2 L 706.6 108.2 Q 707.2 108.2, 707.5 108.0 Q 707.9 107.7, 707.9 107.2 Q 707.9 106.9, 707.6 106.7 Q 707.3 106.5, 706.9 106.5 Q 706.4 106.5, 706.2 106.6 Q 705.9 106.8, 705.7 107.2 L 705.1 106.9 Q 705.3 106.4, 705.8 106.1 Q 706.2 105.8, 706.9 105.8 Q 707.7 105.8, 708.2 106.2 Q 708.6 106.6, 708.6 107.2 Q 708.6 107.7, 708.4 108.0 Q 708.1 108.3, 707.7 108.5 " fill="#0000FF"/>
<path class="atom-0" d="M 705.1 100.5 L 706.6 100.5 L 706.6 99.0 L 707.2 99.0 L 707.2 100.5 L 708.7 100.5 L 708.7 101.0 L 707.2 101.0 L 707.2 102.6 L 706.6 102.6 L 706.6 101.0 L 705.1 101.0 L 705.1 100.5 " fill="#0000FF"/>
<path class="bond-0 atom-0 atom-1" d="M 280.2,329.5 L 268.2,326.4" style="fill:none;fill-rule:evenodd;stroke:#0000FF;stroke-width:2.0px;stroke-linecap:butt;stroke-linejoin:miter;stroke-opacity:1"/>
<path class="bond-0 atom-0 atom-1" d="M 268.2,326.4 L 256.1,323.3" style="fill:none;fill-rule:evenodd;stroke:#000000;stroke-width:2.0px;stroke-linecap:butt;stroke-linejoin:miter;stroke-opacity:1"/>
<path class="bond-1 atom-1 atom-2" d="M 256.1,323.3 L 248.3,295.4" style="fill:none;fill-rule:evenodd;stroke:#000000;stroke-width:2.0px;stroke-linecap:butt;stroke-linejoin:miter;stroke-opacity:1"/>
<path class="bond-2 atom-2 atom-3" d="M 248.3,295.4 L 220.1,288.2" style="fill:none;fill-rule:evenodd;stroke:#000000;stroke-width:2.0px;stroke-linecap:butt;stroke-linejoin:miter;stroke-opacity:1"/>
<path class="bond-3 atom-3 atom-4" d="M 220.1,288.2 L 209.4,261.2" style="fill:none;fill-rule:evenodd;stroke:#000000;stroke-width:2.0px;stroke-linecap:butt;stroke-linejoin:miter;stroke-opacity:1"/>
<path class="bond-3 atom-3 atom-4" d="M 214.9,286.9 L 206.5,265.8" style="fill:none;fill-rule:evenodd;stroke:#000000;stroke-width:2.0px;stroke-linecap:butt;stroke-linejoin:miter;stroke-opacity:1"/>
<path class="bond-4 atom-4 atom-5" d="M 209.4,261.2 L 180.4,263.1" style="fill:none;fill-rule:evenodd;stroke:#000000;stroke-width:2.0px;stroke-linecap:butt;stroke-linejoin:miter;stroke-opacity:1"/>
<path class="bond-5 atom-5 atom-6" d="M 180.4,263.1 L 173.3,291.2" style="fill:none;fill-rule:evenodd;stroke:#000000;stroke-width:2.0px;stroke-linecap:butt;stroke-linejoin:miter;stroke-opacity:1"/>
<path class="bond-5 atom-5 atom-6" d="M 183.9,267.2 L 178.3,289.2" style="fill:none;fill-rule:evenodd;stroke:#000000;stroke-width:2.0px;stroke-linecap:butt;stroke-linejoin:miter;stroke-opacity:1"/>
<path class="bond-6 atom-6 atom-7" d="M 173.3,291.2 L 146.3,301.9" style="fill:none;fill-rule:evenodd;stroke:#000000;stroke-width:2.0px;stroke-linecap:butt;stroke-linejoin:miter;stroke-opacity:1"/>
<path class="bond-7 atom-7 atom-8" d="M 146.3,301.9 L 139.1,330.1" style="fill:none;fill-rule:evenodd;stroke:#000000;stroke-width:2.0px;stroke-linecap:butt;stroke-linejoin:miter;stroke-opacity:1"/>
<path class="bond-7 atom-7 atom-8" d="M 141.3,303.9 L 135.7,325.9" style="fill:none;fill-rule:evenodd;stroke:#000000;stroke-width:2.0px;stroke-linecap:butt;stroke-linejoin:miter;stroke-opacity:1"/>
<path class="bond-8 atom-8 atom-9" d="M 139.1,330.1 L 110.1,331.9" style="fill:none;fill-rule:evenodd;stroke:#000000;stroke-width:2.0px;stroke-linecap:butt;stroke-linejoin:miter;stroke-opacity:1"/>
<path class="bond-9 atom-9 atom-10" d="M 110.1,331.9 L 99.4,304.9" style="fill:none;fill-rule:evenodd;stroke:#000000;stroke-width:2.0px;stroke-linecap:butt;stroke-linejoin:miter;stroke-opacity:1"/>
<path class="bond-9 atom-9 atom-10" d="M 113.0,327.4 L 104.6,306.3" style="fill:none;fill-rule:evenodd;stroke:#000000;stroke-width:2.0px;stroke-linecap:butt;stroke-linejoin:miter;stroke-opacity:1"/>
<path class="bond-10 atom-10 atom-11" d="M 99.4,304.9 L 108.8,297.2" style="fill:none;fill-rule:evenodd;stroke:#000000;stroke-width:2.0px;stroke-linecap:butt;stroke-linejoin:miter;stroke-opacity:1"/>
<path class="bond-10 atom-10 atom-11" d="M 108.8,297.2 L 118.2,289.4" style="fill:none;fill-rule:evenodd;stroke:#CCCC00;stroke-width:2.0px;stroke-linecap:butt;stroke-linejoin:miter;stroke-opacity:1"/>
<path class="bond-11 atom-6 atom-12" d="M 173.3,291.2 L 183.7,297.8" style="fill:none;fill-rule:evenodd;stroke:#000000;stroke-width:2.0px;stroke-linecap:butt;stroke-linejoin:miter;stroke-opacity:1"/>
<path class="bond-11 atom-6 atom-12" d="M 183.7,297.8 L 194.2,304.4" style="fill:none;fill-rule:evenodd;stroke:#CCCC00;stroke-width:2.0px;stroke-linecap:butt;stroke-linejoin:miter;stroke-opacity:1"/>
<path class="bond-12 atom-12 atom-3" d="M 201.4,303.7 L 210.8,296.0" style="fill:none;fill-rule:evenodd;stroke:#CCCC00;stroke-width:2.0px;stroke-linecap:butt;stroke-linejoin:miter;stroke-opacity:1"/>
<path class="bond-12 atom-12 atom-3" d="M 210.8,296.0 L 220.1,288.2" style="fill:none;fill-rule:evenodd;stroke:#000000;stroke-width:2.0px;stroke-linecap:butt;stroke-linejoin:miter;stroke-opacity:1"/>
<path class="bond-13 atom-11 atom-7" d="M 125.4,288.7 L 135.8,295.3" style="fill:none;fill-rule:evenodd;stroke:#CCCC00;stroke-width:2.0px;stroke-linecap:butt;stroke-linejoin:miter;stroke-opacity:1"/>
<path class="bond-13 atom-11 atom-7" d="M 135.8,295.3 L 146.3,301.9" style="fill:none;fill-rule:evenodd;stroke:#000000;stroke-width:2.0px;stroke-linecap:butt;stroke-linejoin:miter;stroke-opacity:1"/>
<path d="M 256.7,323.5 L 256.1,323.3 L 255.7,321.9" style="fill:none;stroke:#000000;stroke-width:2.0px;stroke-linecap:butt;stroke-linejoin:miter;stroke-opacity:1;"/>
<path d="M 248.7,296.8 L 248.3,295.4 L 246.9,295.0" style="fill:none;stroke:#000000;stroke-width:2.0px;stroke-linecap:butt;stroke-linejoin:miter;stroke-opacity:1;"/>
<path d="M 210.0,262.6 L 209.4,261.2 L 208.0,261.3" style="fill:none;stroke:#000000;stroke-width:2.0px;stroke-linecap:butt;stroke-linejoin:miter;stroke-opacity:1;"/>
<path d="M 181.9,263.0 L 180.4,263.1 L 180.1,264.5" style="fill:none;stroke:#000000;stroke-width:2.0px;stroke-linecap:butt;stroke-linejoin:miter;stroke-opacity:1;"/>
<path d="M 139.5,328.7 L 139.1,330.1 L 137.7,330.2" style="fill:none;stroke:#000000;stroke-width:2.0px;stroke-linecap:butt;stroke-linejoin:miter;stroke-opacity:1;"/>
<path d="M 111.6,331.8 L 110.1,331.9 L 109.6,330.6" style="fill:none;stroke:#000000;stroke-width:2.0px;stroke-linecap:butt;stroke-linejoin:miter;stroke-opacity:1;"/>
<path d="M 100.0,306.3 L 99.4,304.9 L 99.9,304.6" style="fill:none;stroke:#000000;stroke-width:2.0px;stroke-linecap:butt;stroke-linejoin:miter;stroke-opacity:1;"/>
<path class="atom-0" d="M 282.4 326.4 L 285.1 330.7 Q 285.4 331.2, 285.8 331.9 Q 286.3 332.7, 286.3 332.8 L 286.3 326.4 L 287.4 326.4 L 287.4 334.6 L 286.2 334.6 L 283.4 329.8 Q 283.0 329.3, 282.7 328.6 Q 282.3 328.0, 282.2 327.8 L 282.2 334.6 L 281.1 334.6 L 281.1 326.4 L 282.4 326.4 " fill="#0000FF"/>
<path class="atom-0" d="M 288.9 326.4 L 290.0 326.4 L 290.0 329.9 L 294.2 329.9 L 294.2 326.4 L 295.4 326.4 L 295.4 334.6 L 294.2 334.6 L 294.2 330.8 L 290.0 330.8 L 290.0 334.6 L 288.9 334.6 L 288.9 326.4 " fill="#0000FF"/>
<path class="atom-0" d="M 299.5 335.9 Q 300.1 336.0, 300.3 336.4 Q 300.6 336.7, 300.6 337.2 Q 300.6 337.7, 300.4 338.0 Q 300.1 338.4, 299.7 338.6 Q 299.3 338.8, 298.7 338.8 Q 298.1 338.8, 297.7 338.6 Q 297.3 338.4, 296.9 338.0 L 297.4 337.5 Q 297.7 337.9, 298.0 338.0 Q 298.3 338.2, 298.7 338.2 Q 299.2 338.2, 299.5 337.9 Q 299.8 337.7, 299.8 337.2 Q 299.8 336.7, 299.5 336.4 Q 299.2 336.2, 298.5 336.2 L 298.1 336.2 L 298.1 335.6 L 298.5 335.6 Q 299.1 335.6, 299.4 335.4 Q 299.7 335.1, 299.7 334.6 Q 299.7 334.3, 299.4 334.1 Q 299.2 333.8, 298.7 333.8 Q 298.3 333.8, 298.0 334.0 Q 297.7 334.2, 297.5 334.6 L 297.0 334.3 Q 297.2 333.8, 297.6 333.5 Q 298.1 333.2, 298.7 333.2 Q 299.5 333.2, 300.0 333.6 Q 300.5 334.0, 300.5 334.6 Q 300.5 335.1, 300.2 335.4 Q 300.0 335.7, 299.5 335.9 " fill="#0000FF"/>
<path class="atom-0" d="M 297.0 327.9 L 298.4 327.9 L 298.4 326.3 L 299.1 326.3 L 299.1 327.9 L 300.6 327.9 L 300.6 328.4 L 299.1 328.4 L 299.1 329.9 L 298.4 329.9 L 298.4 328.4 L 297.0 328.4 L 297.0 327.9 " fill="#0000FF"/>
<path class="atom-11" d="M 119.4 289.2 Q 119.5 289.3, 119.9 289.4 Q 120.3 289.6, 120.7 289.7 Q 121.1 289.8, 121.6 289.8 Q 122.3 289.8, 122.8 289.4 Q 123.2 289.0, 123.2 288.4 Q 123.2 287.9, 123.0 287.6 Q 122.8 287.4, 122.4 287.2 Q 122.1 287.1, 121.5 286.9 Q 120.8 286.7, 120.3 286.5 Q 119.9 286.2, 119.6 285.8 Q 119.3 285.4, 119.3 284.6 Q 119.3 283.6, 120.0 282.9 Q 120.7 282.3, 122.1 282.3 Q 123.0 282.3, 124.1 282.8 L 123.9 283.7 Q 122.9 283.2, 122.1 283.2 Q 121.3 283.2, 120.9 283.6 Q 120.4 283.9, 120.5 284.5 Q 120.5 284.9, 120.7 285.2 Q 120.9 285.5, 121.2 285.6 Q 121.6 285.8, 122.1 285.9 Q 122.9 286.2, 123.3 286.4 Q 123.8 286.6, 124.1 287.1 Q 124.4 287.6, 124.4 288.4 Q 124.4 289.5, 123.6 290.1 Q 122.9 290.7, 121.6 290.7 Q 120.9 290.7, 120.3 290.6 Q 119.8 290.4, 119.1 290.1 L 119.4 289.2 " fill="#CCCC00"/>
<path class="atom-12" d="M 195.5 309.5 Q 195.6 309.6, 196.0 309.7 Q 196.3 309.9, 196.8 310.0 Q 197.2 310.1, 197.6 310.1 Q 198.4 310.1, 198.8 309.7 Q 199.3 309.3, 199.3 308.7 Q 199.3 308.2, 199.1 308.0 Q 198.8 307.7, 198.5 307.5 Q 198.1 307.4, 197.6 307.2 Q 196.8 307.0, 196.4 306.8 Q 196.0 306.6, 195.6 306.1 Q 195.3 305.7, 195.3 304.9 Q 195.3 303.9, 196.0 303.3 Q 196.7 302.6, 198.1 302.6 Q 199.1 302.6, 200.2 303.1 L 199.9 304.0 Q 198.9 303.6, 198.2 303.6 Q 197.4 303.6, 196.9 303.9 Q 196.5 304.2, 196.5 304.8 Q 196.5 305.2, 196.7 305.5 Q 197.0 305.8, 197.3 305.9 Q 197.6 306.1, 198.2 306.2 Q 198.9 306.5, 199.4 306.7 Q 199.8 306.9, 200.1 307.4 Q 200.4 307.9, 200.4 308.7 Q 200.4 309.8, 199.7 310.4 Q 198.9 311.0, 197.7 311.0 Q 196.9 311.0, 196.4 310.9 Q 195.8 310.7, 195.2 310.5 L 195.5 309.5 " fill="#CCCC00"/>
<path class="bond-0 atom-0 atom-1" d="M 532.7,292.1 L 542.4,290.3" style="fill:none;fill-rule:evenodd;stroke:#0000FF;stroke-width:2.0px;stroke-linecap:butt;stroke-linejoin:miter;stroke-opacity:1"/>
<path class="bond-0 atom-0 atom-1" d="M 542.4,290.3 L 552.1,288.5" style="fill:none;fill-rule:evenodd;stroke:#000000;stroke-width:2.0px;stroke-linecap:butt;stroke-linejoin:miter;stroke-opacity:1"/>
<path class="bond-1 atom-1 atom-2" d="M 552.1,288.5 L 570.9,310.6" style="fill:none;fill-rule:evenodd;stroke:#000000;stroke-width:2.0px;stroke-linecap:butt;stroke-linejoin:miter;stroke-opacity:1"/>
<path class="bond-2 atom-2 atom-3" d="M 570.9,310.6 L 599.5,305.3" style="fill:none;fill-rule:evenodd;stroke:#000000;stroke-width:2.0px;stroke-linecap:butt;stroke-linejoin:miter;stroke-opacity:1"/>
<path class="bond-3 atom-3 atom-4" d="M 599.5,305.3 L 609.2,277.9" style="fill:none;fill-rule:evenodd;stroke:#000000;stroke-width:2.0px;stroke-linecap:butt;stroke-linejoin:miter;stroke-opacity:1"/>
<path class="bond-3 atom-3 atom-4" d="M 604.4,304.4 L 612.4,281.7" style="fill:none;fill-rule:evenodd;stroke:#000000;stroke-width:2.0px;stroke-linecap:butt;stroke-linejoin:miter;stroke-opacity:1"/>
<path class="bond-4 atom-4 atom-5" d="M 609.2,277.9 L 637.7,272.6" style="fill:none;fill-rule:evenodd;stroke:#000000;stroke-width:2.0px;stroke-linecap:butt;stroke-linejoin:miter;stroke-opacity:1"/>
<path class="bond-5 atom-5 atom-6" d="M 637.7,272.6 L 656.6,294.7" style="fill:none;fill-rule:evenodd;stroke:#000000;stroke-width:2.0px;stroke-linecap:butt;stroke-linejoin:miter;stroke-opacity:1"/>
<path class="bond-5 atom-5 atom-6" d="M 636.0,277.4 L 651.6,295.6" style="fill:none;fill-rule:evenodd;stroke:#000000;stroke-width:2.0px;stroke-linecap:butt;stroke-linejoin:miter;stroke-opacity:1"/>
<path class="bond-6 atom-6 atom-7" d="M 656.6,294.7 L 669.0,292.4" style="fill:none;fill-rule:evenodd;stroke:#000000;stroke-width:2.0px;stroke-linecap:butt;stroke-linejoin:miter;stroke-opacity:1"/>
<path class="bond-6 atom-6 atom-7" d="M 669.0,292.4 L 681.3,290.1" style="fill:none;fill-rule:evenodd;stroke:#7F4C19;stroke-width:2.0px;stroke-linecap:butt;stroke-linejoin:miter;stroke-opacity:1"/>
<path class="bond-7 atom-6 atom-8" d="M 656.6,294.7 L 646.9,322.1" style="fill:none;fill-rule:evenodd;stroke:#000000;stroke-width:2.0px;stroke-linecap:butt;stroke-linejoin:miter;stroke-opacity:1"/>
<path class="bond-8 atom-8 atom-9" d="M 646.9,322.1 L 618.3,327.4" style="fill:none;fill-rule:evenodd;stroke:#000000;stroke-width:2.0px;stroke-linecap:butt;stroke-linejoin:miter;stroke-opacity:1"/>
<path class="bond-8 atom-8 atom-9" d="M 643.6,318.3 L 620.0,322.6" style="fill:none;fill-rule:evenodd;stroke:#000000;stroke-width:2.0px;stroke-linecap:butt;stroke-linejoin:miter;stroke-opacity:1"/>
<path class="bond-9 atom-9 atom-3" d="M 618.3,327.4 L 599.5,305.3" style="fill:none;fill-rule:evenodd;stroke:#000000;stroke-width:2.0px;stroke-linecap:butt;stroke-linejoin:miter;stroke-opacity:1"/>
<path d="M 551.6,288.6 L 552.1,288.5 L 553.0,289.6" style="fill:none;stroke:#000000;stroke-width:2.0px;stroke-linecap:butt;stroke-linejoin:miter;stroke-opacity:1;"/>
<path d="M 570.0,309.5 L 570.9,310.6 L 572.3,310.3" style="fill:none;stroke:#000000;stroke-width:2.0px;stroke-linecap:butt;stroke-linejoin:miter;stroke-opacity:1;"/>
<path d="M 608.7,279.3 L 609.2,277.9 L 610.6,277.7" style="fill:none;stroke:#000000;stroke-width:2.0px;stroke-linecap:butt;stroke-linejoin:miter;stroke-opacity:1;"/>
<path d="M 636.3,272.9 L 637.7,272.6 L 638.6,273.7" style="fill:none;stroke:#000000;stroke-width:2.0px;stroke-linecap:butt;stroke-linejoin:miter;stroke-opacity:1;"/>
<path d="M 647.3,320.7 L 646.9,322.1 L 645.4,322.3" style="fill:none;stroke:#000000;stroke-width:2.0px;stroke-linecap:butt;stroke-linejoin:miter;stroke-opacity:1;"/>
<path d="M 619.7,327.1 L 618.3,327.4 L 617.4,326.3" style="fill:none;stroke:#000000;stroke-width:2.0px;stroke-linecap:butt;stroke-linejoin:miter;stroke-opacity:1;"/>
<path class="atom-0" d="M 507.7 289.7 L 508.8 289.7 L 508.8 293.1 L 513.0 293.1 L 513.0 289.7 L 514.1 289.7 L 514.1 297.9 L 513.0 297.9 L 513.0 294.1 L 508.8 294.1 L 508.8 297.9 L 507.7 297.9 L 507.7 289.7 " fill="#0000FF"/>
<path class="atom-0" d="M 518.3 299.1 Q 518.8 299.3, 519.1 299.6 Q 519.4 300.0, 519.4 300.5 Q 519.4 301.0, 519.1 301.3 Q 518.9 301.7, 518.5 301.9 Q 518.1 302.1, 517.5 302.1 Q 516.9 302.1, 516.5 301.9 Q 516.1 301.7, 515.7 301.2 L 516.1 300.8 Q 516.5 301.2, 516.8 301.3 Q 517.0 301.4, 517.5 301.4 Q 518.0 301.4, 518.3 301.2 Q 518.6 300.9, 518.6 300.5 Q 518.6 299.9, 518.3 299.7 Q 518.0 299.4, 517.3 299.4 L 516.9 299.4 L 516.9 298.9 L 517.3 298.9 Q 517.8 298.9, 518.2 298.6 Q 518.5 298.4, 518.5 297.9 Q 518.5 297.5, 518.2 297.3 Q 518.0 297.1, 517.5 297.1 Q 517.1 297.1, 516.8 297.3 Q 516.5 297.4, 516.3 297.8 L 515.8 297.6 Q 515.9 297.1, 516.4 296.8 Q 516.9 296.5, 517.5 296.5 Q 518.3 296.5, 518.8 296.9 Q 519.2 297.2, 519.2 297.9 Q 519.2 298.3, 519.0 298.6 Q 518.8 298.9, 518.3 299.1 " fill="#0000FF"/>
<path class="atom-0" d="M 521.7 289.7 L 524.4 294.0 Q 524.7 294.4, 525.1 295.2 Q 525.5 296.0, 525.5 296.0 L 525.5 289.7 L 526.6 289.7 L 526.6 297.9 L 525.5 297.9 L 522.6 293.1 Q 522.3 292.6, 521.9 291.9 Q 521.6 291.3, 521.5 291.1 L 521.5 297.9 L 520.4 297.9 L 520.4 289.7 L 521.7 289.7 " fill="#0000FF"/>
<path class="atom-0" d="M 528.2 291.1 L 529.6 291.1 L 529.6 289.6 L 530.3 289.6 L 530.3 291.1 L 531.8 291.1 L 531.8 291.7 L 530.3 291.7 L 530.3 293.2 L 529.6 293.2 L 529.6 291.7 L 528.2 291.7 L 528.2 291.1 " fill="#0000FF"/>
<path class="atom-7" d="M 686.3 289.2 Q 687.1 289.4, 687.5 289.9 Q 687.9 290.4, 687.9 291.1 Q 687.9 292.3, 687.2 292.9 Q 686.4 293.5, 685.1 293.5 L 682.3 293.5 L 682.3 285.3 L 684.7 285.3 Q 686.1 285.3, 686.8 285.9 Q 687.6 286.5, 687.6 287.5 Q 687.6 288.8, 686.3 289.2 M 683.4 286.3 L 683.4 288.8 L 684.7 288.8 Q 685.5 288.8, 686.0 288.5 Q 686.4 288.2, 686.4 287.5 Q 686.4 286.3, 684.7 286.3 L 683.4 286.3 M 685.1 292.6 Q 685.9 292.6, 686.3 292.2 Q 686.7 291.9, 686.7 291.1 Q 686.7 290.4, 686.3 290.1 Q 685.8 289.8, 684.9 289.8 L 683.4 289.8 L 683.4 292.6 L 685.1 292.6 " fill="#7F4C19"/>
<path class="atom-7" d="M 689.8 287.6 L 689.9 288.4 Q 690.5 287.5, 691.5 287.5 Q 691.9 287.5, 692.3 287.6 L 692.1 288.6 Q 691.6 288.5, 691.4 288.5 Q 690.9 288.5, 690.5 288.6 Q 690.2 288.8, 690.0 289.3 L 690.0 293.5 L 688.9 293.5 L 688.9 287.6 L 689.8 287.6 " fill="#7F4C19"/>
<path class="bond-0 atom-0 atom-1" d="M 255.0,500.4 L 244.2,494.8" style="fill:none;fill-rule:evenodd;stroke:#0000FF;stroke-width:2.0px;stroke-linecap:butt;stroke-linejoin:miter;stroke-opacity:1"/>
<path class="bond-0 atom-0 atom-1" d="M 244.2,494.8 L 233.3,489.2" style="fill:none;fill-rule:evenodd;stroke:#000000;stroke-width:2.0px;stroke-linecap:butt;stroke-linejoin:miter;stroke-opacity:1"/>
<path class="bond-1 atom-1 atom-2" d="M 233.3,489.2 L 208.9,505.0" style="fill:none;fill-rule:evenodd;stroke:#000000;stroke-width:2.0px;stroke-linecap:butt;stroke-linejoin:miter;stroke-opacity:1"/>
<path class="bond-2 atom-2 atom-3" d="M 208.9,505.0 L 183.1,491.8" style="fill:none;fill-rule:evenodd;stroke:#000000;stroke-width:2.0px;stroke-linecap:butt;stroke-linejoin:miter;stroke-opacity:1"/>
<path class="bond-3 atom-3 atom-4" d="M 183.1,491.8 L 158.7,507.6" style="fill:none;fill-rule:evenodd;stroke:#000000;stroke-width:2.0px;stroke-linecap:butt;stroke-linejoin:miter;stroke-opacity:1"/>
<path class="bond-4 atom-4 atom-5" d="M 158.7,507.6 L 147.1,501.6" style="fill:none;fill-rule:evenodd;stroke:#000000;stroke-width:2.0px;stroke-linecap:butt;stroke-linejoin:miter;stroke-opacity:1"/>
<path class="bond-4 atom-4 atom-5" d="M 147.1,501.6 L 135.5,495.7" style="fill:none;fill-rule:evenodd;stroke:#7F4C19;stroke-width:2.0px;stroke-linecap:butt;stroke-linejoin:miter;stroke-opacity:1"/>
<path d="M 233.8,489.5 L 233.3,489.2 L 232.1,490.0" style="fill:none;stroke:#000000;stroke-width:2.0px;stroke-linecap:butt;stroke-linejoin:miter;stroke-opacity:1;"/>
<path d="M 210.1,504.2 L 208.9,505.0 L 207.6,504.4" style="fill:none;stroke:#000000;stroke-width:2.0px;stroke-linecap:butt;stroke-linejoin:miter;stroke-opacity:1;"/>
<path d="M 184.3,492.5 L 183.1,491.8 L 181.8,492.6" style="fill:none;stroke:#000000;stroke-width:2.0px;stroke-linecap:butt;stroke-linejoin:miter;stroke-opacity:1;"/>
<path d="M 159.9,506.8 L 158.7,507.6 L 158.1,507.3" style="fill:none;stroke:#000000;stroke-width:2.0px;stroke-linecap:butt;stroke-linejoin:miter;stroke-opacity:1;"/>
<path class="atom-0" d="M 257.3 498.4 L 260.0 502.7 Q 260.3 503.1, 260.7 503.9 Q 261.1 504.7, 261.1 504.7 L 261.1 498.4 L 262.2 498.4 L 262.2 506.6 L 261.1 506.6 L 258.2 501.8 Q 257.9 501.3, 257.5 500.6 Q 257.2 500.0, 257.1 499.8 L 257.1 506.6 L 256.0 506.6 L 256.0 498.4 L 257.3 498.4 " fill="#0000FF"/>
<path class="atom-0" d="M 263.8 498.4 L 264.9 498.4 L 264.9 501.8 L 269.1 501.8 L 269.1 498.4 L 270.2 498.4 L 270.2 506.6 L 269.1 506.6 L 269.1 502.8 L 264.9 502.8 L 264.9 506.6 L 263.8 506.6 L 263.8 498.4 " fill="#0000FF"/>
<path class="atom-0" d="M 274.4 507.8 Q 274.9 508.0, 275.2 508.3 Q 275.5 508.7, 275.5 509.2 Q 275.5 509.7, 275.2 510.0 Q 275.0 510.4, 274.6 510.6 Q 274.1 510.8, 273.6 510.8 Q 273.0 510.8, 272.6 510.6 Q 272.1 510.4, 271.8 509.9 L 272.2 509.5 Q 272.6 509.9, 272.9 510.0 Q 273.1 510.1, 273.6 510.1 Q 274.1 510.1, 274.4 509.9 Q 274.7 509.6, 274.7 509.2 Q 274.7 508.6, 274.4 508.4 Q 274.1 508.1, 273.4 508.1 L 273.0 508.1 L 273.0 507.6 L 273.4 507.6 Q 273.9 507.6, 274.3 507.3 Q 274.6 507.1, 274.6 506.6 Q 274.6 506.2, 274.3 506.0 Q 274.0 505.8, 273.6 505.8 Q 273.2 505.8, 272.9 506.0 Q 272.6 506.1, 272.4 506.5 L 271.8 506.3 Q 272.0 505.8, 272.5 505.5 Q 273.0 505.2, 273.6 505.2 Q 274.4 505.2, 274.9 505.6 Q 275.3 505.9, 275.3 506.6 Q 275.3 507.0, 275.1 507.3 Q 274.9 507.6, 274.4 507.8 " fill="#0000FF"/>
<path class="atom-0" d="M 271.8 499.8 L 273.3 499.8 L 273.3 498.3 L 273.9 498.3 L 273.9 499.8 L 275.4 499.8 L 275.4 500.4 L 273.9 500.4 L 273.9 501.9 L 273.3 501.9 L 273.3 500.4 L 271.8 500.4 L 271.8 499.8 " fill="#0000FF"/>
<path class="atom-5" d="M 128.5 494.1 Q 129.3 494.4, 129.7 494.8 Q 130.1 495.3, 130.1 496.0 Q 130.1 497.2, 129.4 497.8 Q 128.7 498.5, 127.3 498.5 L 124.5 498.5 L 124.5 490.2 L 127.0 490.2 Q 128.4 490.2, 129.1 490.8 Q 129.8 491.4, 129.8 492.4 Q 129.8 493.7, 128.5 494.1 M 125.7 491.2 L 125.7 493.7 L 127.0 493.7 Q 127.8 493.7, 128.2 493.4 Q 128.6 493.1, 128.6 492.4 Q 128.6 491.2, 127.0 491.2 L 125.7 491.2 M 127.3 497.5 Q 128.1 497.5, 128.5 497.1 Q 129.0 496.8, 129.0 496.0 Q 129.0 495.4, 128.5 495.0 Q 128.0 494.7, 127.1 494.7 L 125.7 494.7 L 125.7 497.5 L 127.3 497.5 " fill="#7F4C19"/>
<path class="atom-5" d="M 132.0 492.5 L 132.1 493.3 Q 132.8 492.4, 133.8 492.4 Q 134.1 492.4, 134.5 492.5 L 134.4 493.5 Q 133.9 493.4, 133.6 493.4 Q 133.1 493.4, 132.8 493.6 Q 132.5 493.7, 132.2 494.2 L 132.2 498.5 L 131.1 498.5 L 131.1 492.5 L 132.0 492.5 " fill="#7F4C19"/>
<path class="bond-0 atom-0 atom-1" d="M 622.8,500.0 L 610.3,500.0" style="fill:none;fill-rule:evenodd;stroke:#0000FF;stroke-width:2.0px;stroke-linecap:butt;stroke-linejoin:miter;stroke-opacity:1"/>
<path class="bond-0 atom-0 atom-1" d="M 610.3,500.0 L 597.8,500.0" style="fill:none;fill-rule:evenodd;stroke:#000000;stroke-width:2.0px;stroke-linecap:butt;stroke-linejoin:miter;stroke-opacity:1"/>
<path class="bond-1 atom-1 atom-2" d="M 597.8,500.0 L 577.3,520.5" style="fill:none;fill-rule:evenodd;stroke:#000000;stroke-width:2.0px;stroke-linecap:butt;stroke-linejoin:miter;stroke-opacity:1"/>
<path class="bond-2 atom-2 atom-3" d="M 577.3,520.5 L 556.8,500.0" style="fill:none;fill-rule:evenodd;stroke:#000000;stroke-width:2.0px;stroke-linecap:butt;stroke-linejoin:miter;stroke-opacity:1"/>
<path class="bond-3 atom-3 atom-4" d="M 556.8,500.0 L 577.3,479.5" style="fill:none;fill-rule:evenodd;stroke:#000000;stroke-width:2.0px;stroke-linecap:butt;stroke-linejoin:miter;stroke-opacity:1"/>
<path class="bond-4 atom-4 atom-1" d="M 577.3,479.5 L 597.8,500.0" style="fill:none;fill-rule:evenodd;stroke:#000000;stroke-width:2.0px;stroke-linecap:butt;stroke-linejoin:miter;stroke-opacity:1"/>
<path d="M 578.3,519.5 L 577.3,520.5 L 576.3,519.5" style="fill:none;stroke:#000000;stroke-width:2.0px;stroke-linecap:butt;stroke-linejoin:miter;stroke-opacity:1;"/>
<path d="M 557.8,501.0 L 556.8,500.0 L 557.8,499.0" style="fill:none;stroke:#000000;stroke-width:2.0px;stroke-linecap:butt;stroke-linejoin:miter;stroke-opacity:1;"/>
<path d="M 576.3,480.5 L 577.3,479.5 L 578.3,480.5" style="fill:none;stroke:#000000;stroke-width:2.0px;stroke-linecap:butt;stroke-linejoin:miter;stroke-opacity:1;"/>
<path class="atom-0" d="M 625.1 495.9 L 627.8 500.2 Q 628.0 500.7, 628.5 501.5 Q 628.9 502.2, 628.9 502.3 L 628.9 495.9 L 630.0 495.9 L 630.0 504.1 L 628.9 504.1 L 626.0 499.3 Q 625.6 498.8, 625.3 498.2 Q 624.9 497.5, 624.8 497.3 L 624.8 504.1 L 623.8 504.1 L 623.8 495.9 L 625.1 495.9 " fill="#0000FF"/>
<path class="atom-0" d="M 631.6 495.9 L 632.7 495.9 L 632.7 499.4 L 636.9 499.4 L 636.9 495.9 L 638.0 495.9 L 638.0 504.1 L 636.9 504.1 L 636.9 500.3 L 632.7 500.3 L 632.7 504.1 L 631.6 504.1 L 631.6 495.9 " fill="#0000FF"/>
<path class="atom-0" d="M 642.2 505.4 Q 642.7 505.5, 642.9 505.9 Q 643.2 506.2, 643.2 506.7 Q 643.2 507.2, 643.0 507.6 Q 642.8 507.9, 642.3 508.1 Q 641.9 508.3, 641.4 508.3 Q 640.8 508.3, 640.3 508.1 Q 639.9 507.9, 639.6 507.5 L 640.0 507.0 Q 640.3 507.4, 640.6 507.5 Q 640.9 507.7, 641.4 507.7 Q 641.8 507.7, 642.1 507.4 Q 642.4 507.2, 642.4 506.7 Q 642.4 506.2, 642.1 505.9 Q 641.8 505.7, 641.2 505.7 L 640.8 505.7 L 640.8 505.1 L 641.1 505.1 Q 641.7 505.1, 642.0 504.9 Q 642.3 504.6, 642.3 504.1 Q 642.3 503.8, 642.1 503.6 Q 641.8 503.3, 641.4 503.3 Q 640.9 503.3, 640.6 503.5 Q 640.4 503.7, 640.1 504.1 L 639.6 503.8 Q 639.8 503.3, 640.3 503.0 Q 640.7 502.7, 641.4 502.7 Q 642.2 502.7, 642.6 503.1 Q 643.1 503.5, 643.1 504.1 Q 643.1 504.6, 642.9 504.9 Q 642.6 505.2, 642.2 505.4 " fill="#0000FF"/>
<path class="atom-0" d="M 639.6 497.4 L 641.0 497.4 L 641.0 495.8 L 641.7 495.8 L 641.7 497.4 L 643.2 497.4 L 643.2 497.9 L 641.7 497.9 L 641.7 499.5 L 641.0 499.5 L 641.0 497.9 L 639.6 497.9 L 639.6 497.4 " fill="#0000FF"/>
<path class="bond-0 atom-0 atom-1" d="M 127.0,684.9 L 135.8,681.3" style="fill:none;fill-rule:evenodd;stroke:#0000FF;stroke-width:2.0px;stroke-linecap:butt;stroke-linejoin:miter;stroke-opacity:1"/>
<path class="bond-0 atom-0 atom-1" d="M 135.8,681.3 L 144.6,677.7" style="fill:none;fill-rule:evenodd;stroke:#000000;stroke-width:2.0px;stroke-linecap:butt;stroke-linejoin:miter;stroke-opacity:1"/>
<path class="bond-1 atom-1 atom-2" d="M 144.6,677.7 L 167.6,695.4" style="fill:none;fill-rule:evenodd;stroke:#000000;stroke-width:2.0px;stroke-linecap:butt;stroke-linejoin:miter;stroke-opacity:1"/>
<path class="bond-2 atom-2 atom-3" d="M 167.6,695.4 L 178.7,690.9" style="fill:none;fill-rule:evenodd;stroke:#000000;stroke-width:2.0px;stroke-linecap:butt;stroke-linejoin:miter;stroke-opacity:1"/>
<path class="bond-2 atom-2 atom-3" d="M 178.7,690.9 L 189.7,686.3" style="fill:none;fill-rule:evenodd;stroke:#FF0000;stroke-width:2.0px;stroke-linecap:butt;stroke-linejoin:miter;stroke-opacity:1"/>
<path class="bond-3 atom-3 atom-4" d="M 199.2,688.0 L 208.3,695.1" style="fill:none;fill-rule:evenodd;stroke:#FF0000;stroke-width:2.0px;stroke-linecap:butt;stroke-linejoin:miter;stroke-opacity:1"/>
<path class="bond-3 atom-3 atom-4" d="M 208.3,695.1 L 217.5,702.1" style="fill:none;fill-rule:evenodd;stroke:#000000;stroke-width:2.0px;stroke-linecap:butt;stroke-linejoin:miter;stroke-opacity:1"/>
<path class="bond-4 atom-4 atom-5" d="M 217.5,702.1 L 213.6,730.9" style="fill:none;fill-rule:evenodd;stroke:#000000;stroke-width:2.0px;stroke-linecap:butt;stroke-linejoin:miter;stroke-opacity:1"/>
<path class="bond-4 atom-4 atom-5" d="M 221.4,705.2 L 218.2,729.0" style="fill:none;fill-rule:evenodd;stroke:#000000;stroke-width:2.0px;stroke-linecap:butt;stroke-linejoin:miter;stroke-opacity:1"/>
<path class="bond-5 atom-5 atom-6" d="M 213.6,730.9 L 236.5,748.7" style="fill:none;fill-rule:evenodd;stroke:#000000;stroke-width:2.0px;stroke-linecap:butt;stroke-linejoin:miter;stroke-opacity:1"/>
<path class="bond-6 atom-6 atom-7" d="M 236.5,748.7 L 263.4,737.6" style="fill:none;fill-rule:evenodd;stroke:#000000;stroke-width:2.0px;stroke-linecap:butt;stroke-linejoin:miter;stroke-opacity:1"/>
<path class="bond-6 atom-6 atom-7" d="M 237.2,743.7 L 259.4,734.6" style="fill:none;fill-rule:evenodd;stroke:#000000;stroke-width:2.0px;stroke-linecap:butt;stroke-linejoin:miter;stroke-opacity:1"/>
<path class="bond-7 atom-7 atom-8" d="M 263.4,737.6 L 267.3,708.9" style="fill:none;fill-rule:evenodd;stroke:#000000;stroke-width:2.0px;stroke-linecap:butt;stroke-linejoin:miter;stroke-opacity:1"/>
<path class="bond-8 atom-8 atom-9" d="M 267.3,708.9 L 294.1,697.9" style="fill:none;fill-rule:evenodd;stroke:#000000;stroke-width:2.0px;stroke-linecap:butt;stroke-linejoin:miter;stroke-opacity:1"/>
<path class="bond-8 atom-8 atom-9" d="M 268.0,703.9 L 290.2,694.8" style="fill:none;fill-rule:evenodd;stroke:#000000;stroke-width:2.0px;stroke-linecap:butt;stroke-linejoin:miter;stroke-opacity:1"/>
<path class="bond-9 atom-9 atom-10" d="M 294.1,697.9 L 298.0,669.1" style="fill:none;fill-rule:evenodd;stroke:#000000;stroke-width:2.0px;stroke-linecap:butt;stroke-linejoin:miter;stroke-opacity:1"/>
<path class="bond-10 atom-10 atom-11" d="M 298.0,669.1 L 275.1,651.3" style="fill:none;fill-rule:evenodd;stroke:#000000;stroke-width:2.0px;stroke-linecap:butt;stroke-linejoin:miter;stroke-opacity:1"/>
<path class="bond-10 atom-10 atom-11" d="M 293.4,671.0 L 274.4,656.3" style="fill:none;fill-rule:evenodd;stroke:#000000;stroke-width:2.0px;stroke-linecap:butt;stroke-linejoin:miter;stroke-opacity:1"/>
<path class="bond-11 atom-11 atom-12" d="M 275.1,651.3 L 248.2,662.4" style="fill:none;fill-rule:evenodd;stroke:#000000;stroke-width:2.0px;stroke-linecap:butt;stroke-linejoin:miter;stroke-opacity:1"/>
<path class="bond-12 atom-12 atom-13" d="M 248.2,662.4 L 244.3,691.1" style="fill:none;fill-rule:evenodd;stroke:#000000;stroke-width:2.0px;stroke-linecap:butt;stroke-linejoin:miter;stroke-opacity:1"/>
<path class="bond-12 atom-12 atom-13" d="M 252.2,665.4 L 249.0,689.2" style="fill:none;fill-rule:evenodd;stroke:#000000;stroke-width:2.0px;stroke-linecap:butt;stroke-linejoin:miter;stroke-opacity:1"/>
<path class="bond-13 atom-13 atom-4" d="M 244.3,691.1 L 217.5,702.1" style="fill:none;fill-rule:evenodd;stroke:#000000;stroke-width:2.0px;stroke-linecap:butt;stroke-linejoin:miter;stroke-opacity:1"/>
<path class="bond-14 atom-13 atom-8" d="M 244.3,691.1 L 267.3,708.9" style="fill:none;fill-rule:evenodd;stroke:#000000;stroke-width:2.0px;stroke-linecap:butt;stroke-linejoin:miter;stroke-opacity:1"/>
<path d="M 144.2,677.8 L 144.6,677.7 L 145.8,678.5" style="fill:none;stroke:#000000;stroke-width:2.0px;stroke-linecap:butt;stroke-linejoin:miter;stroke-opacity:1;"/>
<path d="M 166.5,694.5 L 167.6,695.4 L 168.2,695.2" style="fill:none;stroke:#000000;stroke-width:2.0px;stroke-linecap:butt;stroke-linejoin:miter;stroke-opacity:1;"/>
<path d="M 213.8,729.5 L 213.6,730.9 L 214.7,731.8" style="fill:none;stroke:#000000;stroke-width:2.0px;stroke-linecap:butt;stroke-linejoin:miter;stroke-opacity:1;"/>
<path d="M 235.4,747.8 L 236.5,748.7 L 237.9,748.1" style="fill:none;stroke:#000000;stroke-width:2.0px;stroke-linecap:butt;stroke-linejoin:miter;stroke-opacity:1;"/>
<path d="M 262.1,738.2 L 263.4,737.6 L 263.6,736.2" style="fill:none;stroke:#000000;stroke-width:2.0px;stroke-linecap:butt;stroke-linejoin:miter;stroke-opacity:1;"/>
<path d="M 292.8,698.4 L 294.1,697.9 L 294.3,696.4" style="fill:none;stroke:#000000;stroke-width:2.0px;stroke-linecap:butt;stroke-linejoin:miter;stroke-opacity:1;"/>
<path d="M 297.8,670.5 L 298.0,669.1 L 296.9,668.2" style="fill:none;stroke:#000000;stroke-width:2.0px;stroke-linecap:butt;stroke-linejoin:miter;stroke-opacity:1;"/>
<path d="M 276.2,652.2 L 275.1,651.3 L 273.7,651.9" style="fill:none;stroke:#000000;stroke-width:2.0px;stroke-linecap:butt;stroke-linejoin:miter;stroke-opacity:1;"/>
<path d="M 249.5,661.8 L 248.2,662.4 L 248.0,663.8" style="fill:none;stroke:#000000;stroke-width:2.0px;stroke-linecap:butt;stroke-linejoin:miter;stroke-opacity:1;"/>
<path class="atom-0" d="M 102.0 684.6 L 103.1 684.6 L 103.1 688.1 L 107.3 688.1 L 107.3 684.6 L 108.4 684.6 L 108.4 692.8 L 107.3 692.8 L 107.3 689.0 L 103.1 689.0 L 103.1 692.8 L 102.0 692.8 L 102.0 684.6 " fill="#0000FF"/>
<path class="atom-0" d="M 112.6 694.0 Q 113.1 694.2, 113.4 694.5 Q 113.6 694.9, 113.6 695.4 Q 113.6 695.9, 113.4 696.2 Q 113.2 696.6, 112.7 696.8 Q 112.3 697.0, 111.8 697.0 Q 111.2 697.0, 110.8 696.8 Q 110.3 696.6, 110.0 696.2 L 110.4 695.7 Q 110.8 696.1, 111.0 696.2 Q 111.3 696.4, 111.8 696.4 Q 112.3 696.4, 112.6 696.1 Q 112.9 695.8, 112.9 695.4 Q 112.9 694.9, 112.5 694.6 Q 112.2 694.4, 111.6 694.4 L 111.2 694.4 L 111.2 693.8 L 111.5 693.8 Q 112.1 693.8, 112.4 693.5 Q 112.7 693.3, 112.7 692.8 Q 112.7 692.4, 112.5 692.2 Q 112.2 692.0, 111.8 692.0 Q 111.3 692.0, 111.0 692.2 Q 110.8 692.3, 110.6 692.8 L 110.0 692.5 Q 110.2 692.0, 110.7 691.7 Q 111.1 691.4, 111.8 691.4 Q 112.6 691.4, 113.0 691.8 Q 113.5 692.2, 113.5 692.8 Q 113.5 693.2, 113.3 693.5 Q 113.0 693.9, 112.6 694.0 " fill="#0000FF"/>
<path class="atom-0" d="M 116.0 684.6 L 118.7 688.9 Q 118.9 689.4, 119.4 690.1 Q 119.8 690.9, 119.8 691.0 L 119.8 684.6 L 120.9 684.6 L 120.9 692.8 L 119.8 692.8 L 116.9 688.0 Q 116.6 687.5, 116.2 686.8 Q 115.8 686.2, 115.7 686.0 L 115.7 692.8 L 114.7 692.8 L 114.7 684.6 L 116.0 684.6 " fill="#0000FF"/>
<path class="atom-0" d="M 122.5 686.0 L 123.9 686.0 L 123.9 684.5 L 124.6 684.5 L 124.6 686.0 L 126.0 686.0 L 126.0 686.6 L 124.6 686.6 L 124.6 688.1 L 123.9 688.1 L 123.9 686.6 L 122.5 686.6 L 122.5 686.0 " fill="#0000FF"/>
<path class="atom-3" d="M 190.7 684.4 Q 190.7 682.4, 191.7 681.3 Q 192.7 680.2, 194.5 680.2 Q 196.3 680.2, 197.3 681.3 Q 198.3 682.4, 198.3 684.4 Q 198.3 686.4, 197.3 687.5 Q 196.3 688.7, 194.5 688.7 Q 192.7 688.7, 191.7 687.5 Q 190.7 686.4, 190.7 684.4 M 194.5 687.7 Q 195.7 687.7, 196.4 686.9 Q 197.1 686.1, 197.1 684.4 Q 197.1 682.8, 196.4 682.0 Q 195.7 681.2, 194.5 681.2 Q 193.2 681.2, 192.5 682.0 Q 191.9 682.8, 191.9 684.4 Q 191.9 686.1, 192.5 686.9 Q 193.2 687.7, 194.5 687.7 " fill="#FF0000"/>
<path class="bond-0 atom-0 atom-1" d="M 526.6,696.0 L 536.2,693.8" style="fill:none;fill-rule:evenodd;stroke:#0000FF;stroke-width:2.0px;stroke-linecap:butt;stroke-linejoin:miter;stroke-opacity:1"/>
<path class="bond-0 atom-0 atom-1" d="M 536.2,693.8 L 545.7,691.6" style="fill:none;fill-rule:evenodd;stroke:#000000;stroke-width:2.0px;stroke-linecap:butt;stroke-linejoin:miter;stroke-opacity:1"/>
<path class="bond-1 atom-1 atom-2" d="M 545.7,691.6 L 565.5,712.9" style="fill:none;fill-rule:evenodd;stroke:#000000;stroke-width:2.0px;stroke-linecap:butt;stroke-linejoin:miter;stroke-opacity:1"/>
<path class="bond-2 atom-2 atom-3" d="M 565.5,712.9 L 593.8,706.5" style="fill:none;fill-rule:evenodd;stroke:#000000;stroke-width:2.0px;stroke-linecap:butt;stroke-linejoin:miter;stroke-opacity:1"/>
<path class="bond-3 atom-3 atom-4" d="M 593.8,706.5 L 602.3,678.7" style="fill:none;fill-rule:evenodd;stroke:#000000;stroke-width:2.0px;stroke-linecap:butt;stroke-linejoin:miter;stroke-opacity:1"/>
<path class="bond-3 atom-3 atom-4" d="M 598.7,705.3 L 605.7,682.4" style="fill:none;fill-rule:evenodd;stroke:#000000;stroke-width:2.0px;stroke-linecap:butt;stroke-linejoin:miter;stroke-opacity:1"/>
<path class="bond-4 atom-4 atom-5" d="M 602.3,678.7 L 630.6,672.3" style="fill:none;fill-rule:evenodd;stroke:#000000;stroke-width:2.0px;stroke-linecap:butt;stroke-linejoin:miter;stroke-opacity:1"/>
<path class="bond-5 atom-5 atom-6" d="M 630.6,672.3 L 650.4,693.5" style="fill:none;fill-rule:evenodd;stroke:#000000;stroke-width:2.0px;stroke-linecap:butt;stroke-linejoin:miter;stroke-opacity:1"/>
<path class="bond-5 atom-5 atom-6" d="M 629.1,677.1 L 645.5,694.7" style="fill:none;fill-rule:evenodd;stroke:#000000;stroke-width:2.0px;stroke-linecap:butt;stroke-linejoin:miter;stroke-opacity:1"/>
<path class="bond-6 atom-6 atom-7" d="M 650.4,693.5 L 662.2,690.9" style="fill:none;fill-rule:evenodd;stroke:#000000;stroke-width:2.0px;stroke-linecap:butt;stroke-linejoin:miter;stroke-opacity:1"/>
<path class="bond-6 atom-6 atom-7" d="M 662.2,690.9 L 673.9,688.2" style="fill:none;fill-rule:evenodd;stroke:#FF0000;stroke-width:2.0px;stroke-linecap:butt;stroke-linejoin:miter;stroke-opacity:1"/>
<path class="bond-7 atom-7 atom-8" d="M 683.4,692.2 L 690.9,700.3" style="fill:none;fill-rule:evenodd;stroke:#FF0000;stroke-width:2.0px;stroke-linecap:butt;stroke-linejoin:miter;stroke-opacity:1"/>
<path class="bond-7 atom-7 atom-8" d="M 690.9,700.3 L 698.4,708.4" style="fill:none;fill-rule:evenodd;stroke:#000000;stroke-width:2.0px;stroke-linecap:butt;stroke-linejoin:miter;stroke-opacity:1"/>
<path class="bond-8 atom-6 atom-9" d="M 650.4,693.5 L 641.8,721.3" style="fill:none;fill-rule:evenodd;stroke:#000000;stroke-width:2.0px;stroke-linecap:butt;stroke-linejoin:miter;stroke-opacity:1"/>
<path class="bond-9 atom-9 atom-10" d="M 641.8,721.3 L 613.5,727.7" style="fill:none;fill-rule:evenodd;stroke:#000000;stroke-width:2.0px;stroke-linecap:butt;stroke-linejoin:miter;stroke-opacity:1"/>
<path class="bond-9 atom-9 atom-10" d="M 638.4,717.6 L 615.0,722.9" style="fill:none;fill-rule:evenodd;stroke:#000000;stroke-width:2.0px;stroke-linecap:butt;stroke-linejoin:miter;stroke-opacity:1"/>
<path class="bond-10 atom-10 atom-3" d="M 613.5,727.7 L 593.8,706.5" style="fill:none;fill-rule:evenodd;stroke:#000000;stroke-width:2.0px;stroke-linecap:butt;stroke-linejoin:miter;stroke-opacity:1"/>
<path d="M 545.2,691.7 L 545.7,691.6 L 546.7,692.7" style="fill:none;stroke:#000000;stroke-width:2.0px;stroke-linecap:butt;stroke-linejoin:miter;stroke-opacity:1;"/>
<path d="M 564.5,711.8 L 565.5,712.9 L 566.9,712.6" style="fill:none;stroke:#000000;stroke-width:2.0px;stroke-linecap:butt;stroke-linejoin:miter;stroke-opacity:1;"/>
<path d="M 601.9,680.1 L 602.3,678.7 L 603.7,678.4" style="fill:none;stroke:#000000;stroke-width:2.0px;stroke-linecap:butt;stroke-linejoin:miter;stroke-opacity:1;"/>
<path d="M 629.2,672.6 L 630.6,672.3 L 631.6,673.3" style="fill:none;stroke:#000000;stroke-width:2.0px;stroke-linecap:butt;stroke-linejoin:miter;stroke-opacity:1;"/>
<path d="M 642.2,719.9 L 641.8,721.3 L 640.4,721.6" style="fill:none;stroke:#000000;stroke-width:2.0px;stroke-linecap:butt;stroke-linejoin:miter;stroke-opacity:1;"/>
<path d="M 614.9,727.4 L 613.5,727.7 L 612.5,726.7" style="fill:none;stroke:#000000;stroke-width:2.0px;stroke-linecap:butt;stroke-linejoin:miter;stroke-opacity:1;"/>
<path class="atom-0" d="M 501.6 694.0 L 502.7 694.0 L 502.7 697.5 L 506.9 697.5 L 506.9 694.0 L 508.0 694.0 L 508.0 702.2 L 506.9 702.2 L 506.9 698.4 L 502.7 698.4 L 502.7 702.2 L 501.6 702.2 L 501.6 694.0 " fill="#0000FF"/>
<path class="atom-0" d="M 512.2 703.4 Q 512.7 703.6, 513.0 703.9 Q 513.2 704.3, 513.2 704.8 Q 513.2 705.3, 513.0 705.6 Q 512.8 706.0, 512.4 706.2 Q 511.9 706.4, 511.4 706.4 Q 510.8 706.4, 510.4 706.2 Q 509.9 706.0, 509.6 705.6 L 510.0 705.1 Q 510.4 705.5, 510.7 705.6 Q 510.9 705.8, 511.4 705.8 Q 511.9 705.8, 512.2 705.5 Q 512.5 705.2, 512.5 704.8 Q 512.5 704.3, 512.2 704.0 Q 511.9 703.8, 511.2 703.8 L 510.8 703.8 L 510.8 703.2 L 511.1 703.2 Q 511.7 703.2, 512.0 702.9 Q 512.4 702.7, 512.4 702.2 Q 512.4 701.8, 512.1 701.6 Q 511.8 701.4, 511.4 701.4 Q 510.9 701.4, 510.7 701.6 Q 510.4 701.7, 510.2 702.2 L 509.6 701.9 Q 509.8 701.4, 510.3 701.1 Q 510.8 700.8, 511.4 700.8 Q 512.2 700.8, 512.7 701.2 Q 513.1 701.6, 513.1 702.2 Q 513.1 702.6, 512.9 703.0 Q 512.7 703.3, 512.2 703.4 " fill="#0000FF"/>
<path class="atom-0" d="M 515.6 694.0 L 518.3 698.3 Q 518.5 698.8, 519.0 699.5 Q 519.4 700.3, 519.4 700.4 L 519.4 694.0 L 520.5 694.0 L 520.5 702.2 L 519.4 702.2 L 516.5 697.4 Q 516.2 696.9, 515.8 696.2 Q 515.5 695.6, 515.4 695.4 L 515.4 702.2 L 514.3 702.2 L 514.3 694.0 L 515.6 694.0 " fill="#0000FF"/>
<path class="atom-0" d="M 522.1 695.5 L 523.5 695.5 L 523.5 693.9 L 524.2 693.9 L 524.2 695.5 L 525.7 695.5 L 525.7 696.0 L 524.2 696.0 L 524.2 697.5 L 523.5 697.5 L 523.5 696.0 L 522.1 696.0 L 522.1 695.5 " fill="#0000FF"/>
<path class="atom-7" d="M 674.9 687.1 Q 674.9 685.1, 675.9 684.0 Q 676.8 682.9, 678.7 682.9 Q 680.5 682.9, 681.5 684.0 Q 682.4 685.1, 682.4 687.1 Q 682.4 689.1, 681.5 690.2 Q 680.5 691.4, 678.7 691.4 Q 676.9 691.4, 675.9 690.2 Q 674.9 689.1, 674.9 687.1 M 678.7 690.4 Q 679.9 690.4, 680.6 689.6 Q 681.3 688.8, 681.3 687.1 Q 681.3 685.5, 680.6 684.7 Q 679.9 683.9, 678.7 683.9 Q 677.4 683.9, 676.7 684.7 Q 676.1 685.5, 676.1 687.1 Q 676.1 688.8, 676.7 689.6 Q 677.4 690.4, 678.7 690.4 " fill="#FF0000"/>
<path class="bond-0 atom-0 atom-1" d="M 239.7,881.5 L 233.9,891.5" style="fill:none;fill-rule:evenodd;stroke:#0000FF;stroke-width:2.0px;stroke-linecap:butt;stroke-linejoin:miter;stroke-opacity:1"/>
<path class="bond-0 atom-0 atom-1" d="M 233.9,891.5 L 228.1,901.5" style="fill:none;fill-rule:evenodd;stroke:#000000;stroke-width:2.0px;stroke-linecap:butt;stroke-linejoin:miter;stroke-opacity:1"/>
<path class="bond-1 atom-1 atom-2" d="M 228.1,901.5 L 244.5,925.6 L 240.8,927.8 Z" style="fill:#000000;fill-rule:evenodd;fill-opacity:1;stroke:#000000;stroke-width:0.5px;stroke-linecap:butt;stroke-linejoin:miter;stroke-opacity:1;"/>
<path class="bond-2 atom-1 atom-3" d="M 228.1,901.5 L 199.1,901.5" style="fill:none;fill-rule:evenodd;stroke:#000000;stroke-width:2.0px;stroke-linecap:butt;stroke-linejoin:miter;stroke-opacity:1"/>
<path class="bond-3 atom-3 atom-4" d="M 199.1,901.5 L 184.6,926.7" style="fill:none;fill-rule:evenodd;stroke:#000000;stroke-width:2.0px;stroke-linecap:butt;stroke-linejoin:miter;stroke-opacity:1"/>
<path class="bond-3 atom-3 atom-4" d="M 194.1,901.5 L 182.1,922.3" style="fill:none;fill-rule:evenodd;stroke:#000000;stroke-width:2.0px;stroke-linecap:butt;stroke-linejoin:miter;stroke-opacity:1"/>
<path class="bond-4 atom-4 atom-5" d="M 184.6,926.7 L 155.5,926.7" style="fill:none;fill-rule:evenodd;stroke:#000000;stroke-width:2.0px;stroke-linecap:butt;stroke-linejoin:miter;stroke-opacity:1"/>
<path class="bond-5 atom-5 atom-6" d="M 155.5,926.7 L 141.0,901.5" style="fill:none;fill-rule:evenodd;stroke:#000000;stroke-width:2.0px;stroke-linecap:butt;stroke-linejoin:miter;stroke-opacity:1"/>
<path class="bond-5 atom-5 atom-6" d="M 158.1,922.3 L 146.1,901.5" style="fill:none;fill-rule:evenodd;stroke:#000000;stroke-width:2.0px;stroke-linecap:butt;stroke-linejoin:miter;stroke-opacity:1"/>
<path class="bond-6 atom-6 atom-7" d="M 141.0,901.5 L 155.5,876.4" style="fill:none;fill-rule:evenodd;stroke:#000000;stroke-width:2.0px;stroke-linecap:butt;stroke-linejoin:miter;stroke-opacity:1"/>
<path class="bond-7 atom-7 atom-8" d="M 155.5,876.4 L 184.6,876.4" style="fill:none;fill-rule:evenodd;stroke:#000000;stroke-width:2.0px;stroke-linecap:butt;stroke-linejoin:miter;stroke-opacity:1"/>
<path class="bond-7 atom-7 atom-8" d="M 158.1,880.7 L 182.1,880.7" style="fill:none;fill-rule:evenodd;stroke:#000000;stroke-width:2.0px;stroke-linecap:butt;stroke-linejoin:miter;stroke-opacity:1"/>
<path class="bond-8 atom-8 atom-3" d="M 184.6,876.4 L 199.1,901.5" style="fill:none;fill-rule:evenodd;stroke:#000000;stroke-width:2.0px;stroke-linecap:butt;stroke-linejoin:miter;stroke-opacity:1"/>
<path d="M 228.4,901.0 L 228.1,901.5 L 226.7,901.5" style="fill:none;stroke:#000000;stroke-width:2.0px;stroke-linecap:butt;stroke-linejoin:miter;stroke-opacity:1;"/>
<path d="M 185.3,925.4 L 184.6,926.7 L 183.1,926.7" style="fill:none;stroke:#000000;stroke-width:2.0px;stroke-linecap:butt;stroke-linejoin:miter;stroke-opacity:1;"/>
<path d="M 157.0,926.7 L 155.5,926.7 L 154.8,925.4" style="fill:none;stroke:#000000;stroke-width:2.0px;stroke-linecap:butt;stroke-linejoin:miter;stroke-opacity:1;"/>
<path d="M 141.8,902.8 L 141.0,901.5 L 141.8,900.3" style="fill:none;stroke:#000000;stroke-width:2.0px;stroke-linecap:butt;stroke-linejoin:miter;stroke-opacity:1;"/>
<path d="M 154.8,877.6 L 155.5,876.4 L 157.0,876.4" style="fill:none;stroke:#000000;stroke-width:2.0px;stroke-linecap:butt;stroke-linejoin:miter;stroke-opacity:1;"/>
<path d="M 183.1,876.4 L 184.6,876.4 L 185.3,877.6" style="fill:none;stroke:#000000;stroke-width:2.0px;stroke-linecap:butt;stroke-linejoin:miter;stroke-opacity:1;"/>
<path class="atom-0" d="M 240.8 872.3 L 243.5 876.6 Q 243.8 877.1, 244.2 877.8 Q 244.6 878.6, 244.7 878.7 L 244.7 872.3 L 245.8 872.3 L 245.8 880.5 L 244.6 880.5 L 241.7 875.7 Q 241.4 875.2, 241.0 874.5 Q 240.7 873.9, 240.6 873.7 L 240.6 880.5 L 239.5 880.5 L 239.5 872.3 L 240.8 872.3 " fill="#0000FF"/>
<path class="atom-0" d="M 247.3 872.3 L 248.4 872.3 L 248.4 875.8 L 252.6 875.8 L 252.6 872.3 L 253.7 872.3 L 253.7 880.5 L 252.6 880.5 L 252.6 876.7 L 248.4 876.7 L 248.4 880.5 L 247.3 880.5 L 247.3 872.3 " fill="#0000FF"/>
<path class="atom-0" d="M 257.9 881.8 Q 258.5 881.9, 258.7 882.3 Q 259.0 882.6, 259.0 883.1 Q 259.0 883.6, 258.7 883.9 Q 258.5 884.3, 258.1 884.5 Q 257.7 884.7, 257.1 884.7 Q 256.5 884.7, 256.1 884.5 Q 255.7 884.3, 255.3 883.9 L 255.8 883.4 Q 256.1 883.8, 256.4 883.9 Q 256.7 884.1, 257.1 884.1 Q 257.6 884.1, 257.9 883.8 Q 258.2 883.5, 258.2 883.1 Q 258.2 882.6, 257.9 882.3 Q 257.6 882.1, 256.9 882.1 L 256.5 882.1 L 256.5 881.5 L 256.9 881.5 Q 257.5 881.5, 257.8 881.3 Q 258.1 881.0, 258.1 880.5 Q 258.1 880.2, 257.8 880.0 Q 257.6 879.7, 257.1 879.7 Q 256.7 879.7, 256.4 879.9 Q 256.1 880.1, 255.9 880.5 L 255.4 880.2 Q 255.6 879.7, 256.0 879.4 Q 256.5 879.1, 257.1 879.1 Q 257.9 879.1, 258.4 879.5 Q 258.9 879.9, 258.9 880.5 Q 258.9 880.9, 258.6 881.3 Q 258.4 881.6, 257.9 881.8 " fill="#0000FF"/>
<path class="atom-0" d="M 255.4 873.8 L 256.8 873.8 L 256.8 872.2 L 257.4 872.2 L 257.4 873.8 L 258.9 873.8 L 258.9 874.3 L 257.4 874.3 L 257.4 875.8 L 256.8 875.8 L 256.8 874.3 L 255.4 874.3 L 255.4 873.8 " fill="#0000FF"/>
<path class="bond-0 atom-0 atom-1" d="M 438.1,881.1 L 450.4,882.8" style="fill:none;fill-rule:evenodd;stroke:#0000FF;stroke-width:2.0px;stroke-linecap:butt;stroke-linejoin:miter;stroke-opacity:1"/>
<path class="bond-0 atom-0 atom-1" d="M 450.4,882.8 L 462.8,884.5" style="fill:none;fill-rule:evenodd;stroke:#000000;stroke-width:2.0px;stroke-linecap:butt;stroke-linejoin:miter;stroke-opacity:1"/>
<path class="bond-1 atom-1 atom-2" d="M 462.8,884.5 L 473.7,911.4" style="fill:none;fill-rule:evenodd;stroke:#000000;stroke-width:2.0px;stroke-linecap:butt;stroke-linejoin:miter;stroke-opacity:1"/>
<path class="bond-2 atom-2 atom-3" d="M 473.7,911.4 L 502.5,915.4" style="fill:none;fill-rule:evenodd;stroke:#000000;stroke-width:2.0px;stroke-linecap:butt;stroke-linejoin:miter;stroke-opacity:1"/>
<path class="bond-3 atom-3 atom-4" d="M 502.5,915.4 L 516.2,941.0" style="fill:none;fill-rule:evenodd;stroke:#000000;stroke-width:2.0px;stroke-linecap:butt;stroke-linejoin:miter;stroke-opacity:1"/>
<path class="bond-3 atom-3 atom-4" d="M 507.8,916.1 L 518.5,936.1" style="fill:none;fill-rule:evenodd;stroke:#000000;stroke-width:2.0px;stroke-linecap:butt;stroke-linejoin:miter;stroke-opacity:1"/>
<path class="bond-4 atom-4 atom-5" d="M 516.2,941.0 L 544.7,935.9" style="fill:none;fill-rule:evenodd;stroke:#000000;stroke-width:2.0px;stroke-linecap:butt;stroke-linejoin:miter;stroke-opacity:1"/>
<path class="bond-5 atom-5 atom-6" d="M 544.7,935.9 L 548.7,907.1" style="fill:none;fill-rule:evenodd;stroke:#000000;stroke-width:2.0px;stroke-linecap:butt;stroke-linejoin:miter;stroke-opacity:1"/>
<path class="bond-5 atom-5 atom-6" d="M 540.9,932.1 L 544.0,909.7" style="fill:none;fill-rule:evenodd;stroke:#000000;stroke-width:2.0px;stroke-linecap:butt;stroke-linejoin:miter;stroke-opacity:1"/>
<path class="bond-6 atom-6 atom-7" d="M 548.7,907.1 L 574.3,893.4" style="fill:none;fill-rule:evenodd;stroke:#000000;stroke-width:2.0px;stroke-linecap:butt;stroke-linejoin:miter;stroke-opacity:1"/>
<path class="bond-7 atom-7 atom-8" d="M 574.3,893.4 L 578.3,864.7" style="fill:none;fill-rule:evenodd;stroke:#000000;stroke-width:2.0px;stroke-linecap:butt;stroke-linejoin:miter;stroke-opacity:1"/>
<path class="bond-7 atom-7 atom-8" d="M 579.0,890.9 L 582.2,868.4" style="fill:none;fill-rule:evenodd;stroke:#000000;stroke-width:2.0px;stroke-linecap:butt;stroke-linejoin:miter;stroke-opacity:1"/>
<path class="bond-8 atom-8 atom-9" d="M 578.3,864.7 L 606.8,859.6" style="fill:none;fill-rule:evenodd;stroke:#000000;stroke-width:2.0px;stroke-linecap:butt;stroke-linejoin:miter;stroke-opacity:1"/>
<path class="bond-9 atom-9 atom-10" d="M 606.8,859.6 L 619.5,833.4" style="fill:none;fill-rule:evenodd;stroke:#000000;stroke-width:2.0px;stroke-linecap:butt;stroke-linejoin:miter;stroke-opacity:1"/>
<path class="bond-10 atom-9 atom-11" d="M 606.8,859.6 L 620.5,885.2" style="fill:none;fill-rule:evenodd;stroke:#000000;stroke-width:2.0px;stroke-linecap:butt;stroke-linejoin:miter;stroke-opacity:1"/>
<path class="bond-10 atom-9 atom-11" d="M 604.5,864.4 L 615.2,884.4" style="fill:none;fill-rule:evenodd;stroke:#000000;stroke-width:2.0px;stroke-linecap:butt;stroke-linejoin:miter;stroke-opacity:1"/>
<path class="bond-11 atom-11 atom-12" d="M 620.5,885.2 L 649.3,889.1" style="fill:none;fill-rule:evenodd;stroke:#000000;stroke-width:2.0px;stroke-linecap:butt;stroke-linejoin:miter;stroke-opacity:1"/>
<path class="bond-12 atom-12 atom-13" d="M 649.3,889.1 L 667.1,866.2" style="fill:none;fill-rule:evenodd;stroke:#000000;stroke-width:2.0px;stroke-linecap:butt;stroke-linejoin:miter;stroke-opacity:1"/>
<path class="bond-12 atom-12 atom-13" d="M 654.3,889.8 L 669.0,870.9" style="fill:none;fill-rule:evenodd;stroke:#000000;stroke-width:2.0px;stroke-linecap:butt;stroke-linejoin:miter;stroke-opacity:1"/>
<path class="bond-13 atom-13 atom-14" d="M 667.1,866.2 L 695.9,870.2" style="fill:none;fill-rule:evenodd;stroke:#000000;stroke-width:2.0px;stroke-linecap:butt;stroke-linejoin:miter;stroke-opacity:1"/>
<path class="bond-14 atom-14 atom-15" d="M 695.9,870.2 L 706.8,897.1" style="fill:none;fill-rule:evenodd;stroke:#000000;stroke-width:2.0px;stroke-linecap:butt;stroke-linejoin:miter;stroke-opacity:1"/>
<path class="bond-14 atom-14 atom-15" d="M 692.8,874.1 L 701.8,896.4" style="fill:none;fill-rule:evenodd;stroke:#000000;stroke-width:2.0px;stroke-linecap:butt;stroke-linejoin:miter;stroke-opacity:1"/>
<path class="bond-15 atom-15 atom-16" d="M 706.8,897.1 L 735.6,901.0" style="fill:none;fill-rule:evenodd;stroke:#000000;stroke-width:2.0px;stroke-linecap:butt;stroke-linejoin:miter;stroke-opacity:1"/>
<path class="bond-16 atom-16 atom-17" d="M 735.6,901.0 L 755.7,880.1" style="fill:none;fill-rule:evenodd;stroke:#000000;stroke-width:2.0px;stroke-linecap:butt;stroke-linejoin:miter;stroke-opacity:1"/>
<path class="bond-16 atom-16 atom-17" d="M 740.9,901.8 L 756.6,885.4" style="fill:none;fill-rule:evenodd;stroke:#000000;stroke-width:2.0px;stroke-linecap:butt;stroke-linejoin:miter;stroke-opacity:1"/>
<path class="bond-17 atom-17 atom-18" d="M 755.7,880.1 L 750.6,851.5" style="fill:none;fill-rule:evenodd;stroke:#000000;stroke-width:2.0px;stroke-linecap:butt;stroke-linejoin:miter;stroke-opacity:1"/>
<path class="bond-18 atom-17 atom-19" d="M 755.7,880.1 L 781.8,892.8" style="fill:none;fill-rule:evenodd;stroke:#000000;stroke-width:2.0px;stroke-linecap:butt;stroke-linejoin:miter;stroke-opacity:1"/>
<path class="bond-19 atom-19 atom-20" d="M 781.8,892.8 L 777.8,921.5" style="fill:none;fill-rule:evenodd;stroke:#000000;stroke-width:2.0px;stroke-linecap:butt;stroke-linejoin:miter;stroke-opacity:1"/>
<path class="bond-19 atom-19 atom-20" d="M 777.1,895.3 L 774.0,917.8" style="fill:none;fill-rule:evenodd;stroke:#000000;stroke-width:2.0px;stroke-linecap:butt;stroke-linejoin:miter;stroke-opacity:1"/>
<path class="bond-20 atom-20 atom-21" d="M 777.8,921.5 L 765.4,923.7" style="fill:none;fill-rule:evenodd;stroke:#000000;stroke-width:2.0px;stroke-linecap:butt;stroke-linejoin:miter;stroke-opacity:1"/>
<path class="bond-20 atom-20 atom-21" d="M 765.4,923.7 L 752.9,926.0" style="fill:none;fill-rule:evenodd;stroke:#CCCC00;stroke-width:2.0px;stroke-linecap:butt;stroke-linejoin:miter;stroke-opacity:1"/>
<path class="bond-21 atom-15 atom-22" d="M 706.8,897.1 L 689.0,920.0" style="fill:none;fill-rule:evenodd;stroke:#000000;stroke-width:2.0px;stroke-linecap:butt;stroke-linejoin:miter;stroke-opacity:1"/>
<path class="bond-22 atom-22 atom-23" d="M 689.0,920.0 L 691.1,931.7" style="fill:none;fill-rule:evenodd;stroke:#000000;stroke-width:2.0px;stroke-linecap:butt;stroke-linejoin:miter;stroke-opacity:1"/>
<path class="bond-22 atom-22 atom-23" d="M 691.1,931.7 L 693.2,943.5" style="fill:none;fill-rule:evenodd;stroke:#0000FF;stroke-width:2.0px;stroke-linecap:butt;stroke-linejoin:miter;stroke-opacity:1"/>
<path class="bond-22 atom-22 atom-23" d="M 685.3,923.9 L 687.1,934.1" style="fill:none;fill-rule:evenodd;stroke:#000000;stroke-width:2.0px;stroke-linecap:butt;stroke-linejoin:miter;stroke-opacity:1"/>
<path class="bond-22 atom-22 atom-23" d="M 687.1,934.1 L 688.9,944.3" style="fill:none;fill-rule:evenodd;stroke:#0000FF;stroke-width:2.0px;stroke-linecap:butt;stroke-linejoin:miter;stroke-opacity:1"/>
<path class="bond-23 atom-23 atom-24" d="M 690.0,950.7 L 681.1,955.5" style="fill:none;fill-rule:evenodd;stroke:#0000FF;stroke-width:2.0px;stroke-linecap:butt;stroke-linejoin:miter;stroke-opacity:1"/>
<path class="bond-23 atom-23 atom-24" d="M 681.1,955.5 L 672.1,960.3" style="fill:none;fill-rule:evenodd;stroke:#CCCC00;stroke-width:2.0px;stroke-linecap:butt;stroke-linejoin:miter;stroke-opacity:1"/>
<path class="bond-24 atom-24 atom-25" d="M 664.9,958.8 L 658.3,952.4" style="fill:none;fill-rule:evenodd;stroke:#CCCC00;stroke-width:2.0px;stroke-linecap:butt;stroke-linejoin:miter;stroke-opacity:1"/>
<path class="bond-24 atom-24 atom-25" d="M 658.3,952.4 L 651.7,946.1" style="fill:none;fill-rule:evenodd;stroke:#0000FF;stroke-width:2.0px;stroke-linecap:butt;stroke-linejoin:miter;stroke-opacity:1"/>
<path class="bond-25 atom-25 atom-26" d="M 650.0,937.1 L 655.1,926.5" style="fill:none;fill-rule:evenodd;stroke:#0000FF;stroke-width:2.0px;stroke-linecap:butt;stroke-linejoin:miter;stroke-opacity:1"/>
<path class="bond-25 atom-25 atom-26" d="M 655.1,926.5 L 660.2,916.0" style="fill:none;fill-rule:evenodd;stroke:#000000;stroke-width:2.0px;stroke-linecap:butt;stroke-linejoin:miter;stroke-opacity:1"/>
<path class="bond-25 atom-25 atom-26" d="M 654.0,939.0 L 658.4,929.9" style="fill:none;fill-rule:evenodd;stroke:#0000FF;stroke-width:2.0px;stroke-linecap:butt;stroke-linejoin:miter;stroke-opacity:1"/>
<path class="bond-25 atom-25 atom-26" d="M 658.4,929.9 L 662.8,920.8" style="fill:none;fill-rule:evenodd;stroke:#000000;stroke-width:2.0px;stroke-linecap:butt;stroke-linejoin:miter;stroke-opacity:1"/>
<path class="bond-26 atom-11 atom-27" d="M 620.5,885.2 L 612.3,893.7" style="fill:none;fill-rule:evenodd;stroke:#000000;stroke-width:2.0px;stroke-linecap:butt;stroke-linejoin:miter;stroke-opacity:1"/>
<path class="bond-26 atom-11 atom-27" d="M 612.3,893.7 L 604.0,902.3" style="fill:none;fill-rule:evenodd;stroke:#CCCC00;stroke-width:2.0px;stroke-linecap:butt;stroke-linejoin:miter;stroke-opacity:1"/>
<path class="bond-27 atom-6 atom-28" d="M 548.7,907.1 L 537.4,901.7" style="fill:none;fill-rule:evenodd;stroke:#000000;stroke-width:2.0px;stroke-linecap:butt;stroke-linejoin:miter;stroke-opacity:1"/>
<path class="bond-27 atom-6 atom-28" d="M 537.4,901.7 L 526.2,896.2" style="fill:none;fill-rule:evenodd;stroke:#CCCC00;stroke-width:2.0px;stroke-linecap:butt;stroke-linejoin:miter;stroke-opacity:1"/>
<path class="bond-28 atom-28 atom-3" d="M 519.0,898.2 L 510.7,906.8" style="fill:none;fill-rule:evenodd;stroke:#CCCC00;stroke-width:2.0px;stroke-linecap:butt;stroke-linejoin:miter;stroke-opacity:1"/>
<path class="bond-28 atom-28 atom-3" d="M 510.7,906.8 L 502.5,915.4" style="fill:none;fill-rule:evenodd;stroke:#000000;stroke-width:2.0px;stroke-linecap:butt;stroke-linejoin:miter;stroke-opacity:1"/>
<path class="bond-29 atom-27 atom-7" d="M 596.8,904.3 L 585.6,898.9" style="fill:none;fill-rule:evenodd;stroke:#CCCC00;stroke-width:2.0px;stroke-linecap:butt;stroke-linejoin:miter;stroke-opacity:1"/>
<path class="bond-29 atom-27 atom-7" d="M 585.6,898.9 L 574.3,893.4" style="fill:none;fill-rule:evenodd;stroke:#000000;stroke-width:2.0px;stroke-linecap:butt;stroke-linejoin:miter;stroke-opacity:1"/>
<path class="bond-30 atom-26 atom-12" d="M 660.2,916.0 L 649.3,889.1" style="fill:none;fill-rule:evenodd;stroke:#000000;stroke-width:2.0px;stroke-linecap:butt;stroke-linejoin:miter;stroke-opacity:1"/>
<path class="bond-31 atom-21 atom-16" d="M 746.6,921.6 L 741.1,911.3" style="fill:none;fill-rule:evenodd;stroke:#CCCC00;stroke-width:2.0px;stroke-linecap:butt;stroke-linejoin:miter;stroke-opacity:1"/>
<path class="bond-31 atom-21 atom-16" d="M 741.1,911.3 L 735.6,901.0" style="fill:none;fill-rule:evenodd;stroke:#000000;stroke-width:2.0px;stroke-linecap:butt;stroke-linejoin:miter;stroke-opacity:1"/>
<path class="bond-32 atom-26 atom-22" d="M 660.2,916.0 L 689.0,920.0" style="fill:none;fill-rule:evenodd;stroke:#000000;stroke-width:2.0px;stroke-linecap:butt;stroke-linejoin:miter;stroke-opacity:1"/>
<path d="M 462.1,884.4 L 462.8,884.5 L 463.3,885.9" style="fill:none;stroke:#000000;stroke-width:2.0px;stroke-linecap:butt;stroke-linejoin:miter;stroke-opacity:1;"/>
<path d="M 473.2,910.1 L 473.7,911.4 L 475.1,911.6" style="fill:none;stroke:#000000;stroke-width:2.0px;stroke-linecap:butt;stroke-linejoin:miter;stroke-opacity:1;"/>
<path d="M 515.5,939.7 L 516.2,941.0 L 517.6,940.7" style="fill:none;stroke:#000000;stroke-width:2.0px;stroke-linecap:butt;stroke-linejoin:miter;stroke-opacity:1;"/>
<path d="M 543.3,936.1 L 544.7,935.9 L 544.9,934.4" style="fill:none;stroke:#000000;stroke-width:2.0px;stroke-linecap:butt;stroke-linejoin:miter;stroke-opacity:1;"/>
<path d="M 578.1,866.1 L 578.3,864.7 L 579.7,864.4" style="fill:none;stroke:#000000;stroke-width:2.0px;stroke-linecap:butt;stroke-linejoin:miter;stroke-opacity:1;"/>
<path d="M 666.2,867.3 L 667.1,866.2 L 668.6,866.4" style="fill:none;stroke:#000000;stroke-width:2.0px;stroke-linecap:butt;stroke-linejoin:miter;stroke-opacity:1;"/>
<path d="M 694.4,870.0 L 695.9,870.2 L 696.4,871.5" style="fill:none;stroke:#000000;stroke-width:2.0px;stroke-linecap:butt;stroke-linejoin:miter;stroke-opacity:1;"/>
<path d="M 780.5,892.1 L 781.8,892.8 L 781.6,894.2" style="fill:none;stroke:#000000;stroke-width:2.0px;stroke-linecap:butt;stroke-linejoin:miter;stroke-opacity:1;"/>
<path d="M 778.0,920.1 L 777.8,921.5 L 777.2,921.6" style="fill:none;stroke:#000000;stroke-width:2.0px;stroke-linecap:butt;stroke-linejoin:miter;stroke-opacity:1;"/>
<path class="atom-0" d="M 418.2 876.5 L 419.3 876.5 L 419.3 879.9 L 423.5 879.9 L 423.5 876.5 L 424.6 876.5 L 424.6 884.7 L 423.5 884.7 L 423.5 880.9 L 419.3 880.9 L 419.3 884.7 L 418.2 884.7 L 418.2 876.5 " fill="#0000FF"/>
<path class="atom-0" d="M 428.8 885.9 Q 429.3 886.1, 429.6 886.4 Q 429.8 886.8, 429.8 887.3 Q 429.8 887.8, 429.6 888.1 Q 429.4 888.5, 429.0 888.7 Q 428.5 888.9, 428.0 888.9 Q 427.4 888.9, 427.0 888.7 Q 426.5 888.5, 426.2 888.0 L 426.6 887.6 Q 427.0 888.0, 427.3 888.1 Q 427.5 888.2, 428.0 888.2 Q 428.5 888.2, 428.8 888.0 Q 429.1 887.7, 429.1 887.3 Q 429.1 886.7, 428.8 886.5 Q 428.5 886.2, 427.8 886.2 L 427.4 886.2 L 427.4 885.7 L 427.7 885.7 Q 428.3 885.7, 428.6 885.4 Q 429.0 885.2, 429.0 884.7 Q 429.0 884.3, 428.7 884.1 Q 428.4 883.9, 428.0 883.9 Q 427.5 883.9, 427.3 884.1 Q 427.0 884.2, 426.8 884.6 L 426.2 884.4 Q 426.4 883.9, 426.9 883.6 Q 427.4 883.3, 428.0 883.3 Q 428.8 883.3, 429.3 883.7 Q 429.7 884.0, 429.7 884.7 Q 429.7 885.1, 429.5 885.4 Q 429.3 885.8, 428.8 885.9 " fill="#0000FF"/>
<path class="atom-0" d="M 432.2 876.5 L 434.9 880.8 Q 435.1 881.2, 435.6 882.0 Q 436.0 882.8, 436.0 882.8 L 436.0 876.5 L 437.1 876.5 L 437.1 884.7 L 436.0 884.7 L 433.1 879.9 Q 432.8 879.4, 432.4 878.7 Q 432.1 878.1, 432.0 877.9 L 432.0 884.7 L 430.9 884.7 L 430.9 876.5 L 432.2 876.5 " fill="#0000FF"/>
<path class="atom-0" d="M 438.7 877.9 L 440.1 877.9 L 440.1 876.4 L 440.8 876.4 L 440.8 877.9 L 442.3 877.9 L 442.3 878.5 L 440.8 878.5 L 440.8 880.0 L 440.1 880.0 L 440.1 878.5 L 438.7 878.5 L 438.7 877.9 " fill="#0000FF"/>
<path class="atom-21" d="M 746.9 929.4 Q 747.0 929.5, 747.4 929.6 Q 747.8 929.8, 748.2 929.9 Q 748.7 930.0, 749.1 930.0 Q 749.9 930.0, 750.3 929.6 Q 750.8 929.3, 750.8 928.6 Q 750.8 928.1, 750.5 927.9 Q 750.3 927.6, 750.0 927.4 Q 749.6 927.3, 749.0 927.1 Q 748.3 926.9, 747.9 926.7 Q 747.4 926.5, 747.1 926.0 Q 746.8 925.6, 746.8 924.8 Q 746.8 923.8, 747.5 923.2 Q 748.2 922.5, 749.6 922.5 Q 750.6 922.5, 751.6 923.0 L 751.4 923.9 Q 750.4 923.5, 749.6 923.5 Q 748.8 923.5, 748.4 923.8 Q 748.0 924.1, 748.0 924.7 Q 748.0 925.1, 748.2 925.4 Q 748.4 925.7, 748.7 925.8 Q 749.1 926.0, 749.6 926.1 Q 750.4 926.4, 750.8 926.6 Q 751.3 926.8, 751.6 927.3 Q 751.9 927.8, 751.9 928.6 Q 751.9 929.7, 751.1 930.3 Q 750.4 930.9, 749.1 930.9 Q 748.4 930.9, 747.8 930.8 Q 747.3 930.6, 746.6 930.4 L 746.9 929.4 " fill="#CCCC00"/>
<path class="atom-23" d="M 692.3 944.4 L 695.0 948.8 Q 695.3 949.2, 695.7 950.0 Q 696.1 950.8, 696.1 950.8 L 696.1 944.4 L 697.2 944.4 L 697.2 952.7 L 696.1 952.7 L 693.2 947.9 Q 692.9 947.4, 692.5 946.7 Q 692.2 946.1, 692.1 945.9 L 692.1 952.7 L 691.0 952.7 L 691.0 944.4 L 692.3 944.4 " fill="#0000FF"/>
<path class="atom-24" d="M 666.2 965.1 Q 666.3 965.1, 666.7 965.3 Q 667.1 965.4, 667.5 965.5 Q 667.9 965.6, 668.3 965.6 Q 669.1 965.6, 669.5 965.3 Q 670.0 964.9, 670.0 964.2 Q 670.0 963.8, 669.8 963.5 Q 669.5 963.2, 669.2 963.1 Q 668.9 962.9, 668.3 962.7 Q 667.5 962.5, 667.1 962.3 Q 666.7 962.1, 666.4 961.6 Q 666.1 961.2, 666.1 960.5 Q 666.1 959.4, 666.8 958.8 Q 667.5 958.2, 668.9 958.2 Q 669.8 958.2, 670.9 958.6 L 670.6 959.5 Q 669.6 959.1, 668.9 959.1 Q 668.1 959.1, 667.6 959.4 Q 667.2 959.8, 667.2 960.3 Q 667.2 960.8, 667.4 961.0 Q 667.7 961.3, 668.0 961.5 Q 668.3 961.6, 668.9 961.8 Q 669.6 962.0, 670.1 962.2 Q 670.5 962.5, 670.8 962.9 Q 671.2 963.4, 671.2 964.2 Q 671.2 965.4, 670.4 966.0 Q 669.6 966.6, 668.4 966.6 Q 667.6 966.6, 667.1 966.4 Q 666.5 966.3, 665.9 966.0 L 666.2 965.1 " fill="#CCCC00"/>
<path class="atom-25" d="M 645.8 938.0 L 648.5 942.4 Q 648.7 942.8, 649.2 943.6 Q 649.6 944.4, 649.6 944.4 L 649.6 938.0 L 650.7 938.0 L 650.7 946.2 L 649.6 946.2 L 646.7 941.5 Q 646.3 940.9, 646.0 940.3 Q 645.6 939.7, 645.5 939.5 L 645.5 946.2 L 644.5 946.2 L 644.5 938.0 L 645.8 938.0 " fill="#0000FF"/>
<path class="atom-27" d="M 598.1 908.9 Q 598.2 908.9, 598.6 909.1 Q 599.0 909.3, 599.4 909.4 Q 599.8 909.5, 600.2 909.5 Q 601.0 909.5, 601.5 909.1 Q 601.9 908.7, 601.9 908.0 Q 601.9 907.6, 601.7 907.3 Q 601.5 907.0, 601.1 906.9 Q 600.8 906.7, 600.2 906.6 Q 599.5 906.3, 599.0 906.1 Q 598.6 905.9, 598.3 905.5 Q 598.0 905.0, 598.0 904.3 Q 598.0 903.3, 598.7 902.6 Q 599.4 902.0, 600.8 902.0 Q 601.7 902.0, 602.8 902.4 L 602.5 903.3 Q 601.5 902.9, 600.8 902.9 Q 600.0 902.9, 599.6 903.3 Q 599.1 903.6, 599.1 904.2 Q 599.1 904.6, 599.3 904.9 Q 599.6 905.1, 599.9 905.3 Q 600.2 905.4, 600.8 905.6 Q 601.5 905.8, 602.0 906.1 Q 602.4 906.3, 602.7 906.8 Q 603.1 907.2, 603.1 908.0 Q 603.1 909.2, 602.3 909.8 Q 601.5 910.4, 600.3 910.4 Q 599.5 910.4, 599.0 910.2 Q 598.4 910.1, 597.8 909.8 L 598.1 908.9 " fill="#CCCC00"/>
<path class="atom-28" d="M 520.3 897.3 Q 520.3 897.3, 520.7 897.5 Q 521.1 897.6, 521.5 897.7 Q 522.0 897.8, 522.4 897.8 Q 523.2 897.8, 523.6 897.5 Q 524.1 897.1, 524.1 896.4 Q 524.1 896.0, 523.8 895.7 Q 523.6 895.4, 523.3 895.3 Q 522.9 895.1, 522.3 894.9 Q 521.6 894.7, 521.2 894.5 Q 520.7 894.3, 520.4 893.9 Q 520.1 893.4, 520.1 892.7 Q 520.1 891.6, 520.8 891.0 Q 521.5 890.4, 522.9 890.4 Q 523.9 890.4, 524.9 890.8 L 524.7 891.7 Q 523.7 891.3, 522.9 891.3 Q 522.1 891.3, 521.7 891.6 Q 521.3 892.0, 521.3 892.5 Q 521.3 893.0, 521.5 893.2 Q 521.7 893.5, 522.1 893.7 Q 522.4 893.8, 522.9 894.0 Q 523.7 894.2, 524.1 894.4 Q 524.6 894.7, 524.9 895.2 Q 525.2 895.6, 525.2 896.4 Q 525.2 897.6, 524.4 898.2 Q 523.7 898.8, 522.4 898.8 Q 521.7 898.8, 521.1 898.6 Q 520.6 898.5, 519.9 898.2 L 520.3 897.3 " fill="#CCCC00"/>
</svg>